<svg width="156" height="156" viewBox="0 0 156 156" fill="none" xmlns="http://www.w3.org/2000/svg">
<g opacity="0.2" clip-path="url(#clip0_5_36)">
<path d="M108.848 126.462C107.067 122.621 105.81 118.557 105.113 114.38C104.759 108.879 105.508 103.362 107.315 98.1536L113.747 83.2938C117.197 75.378 117.638 66.4748 114.986 58.2569C112.335 50.0391 106.774 43.0724 99.3478 38.6656L101.027 34.7852C101.488 33.7202 101.507 32.5156 101.08 31.4365C100.653 30.3574 99.815 29.4922 98.7499 29.0312C97.6849 28.5702 96.4803 28.5512 95.4012 28.9783C94.3221 29.4054 93.4569 30.2437 92.9959 31.3087L91.2902 35.2493C83.034 32.954 74.2258 33.7285 66.4968 37.4294C58.7679 41.1303 52.6421 47.5067 49.2539 55.3777L42.8217 70.2376C40.2612 75.1198 36.7513 79.4413 32.498 82.9487C29.0158 85.3072 25.234 87.1897 21.253 88.5462C20.8101 88.6892 20.4028 88.9249 20.0581 89.2376C19.7133 89.5502 19.4392 89.9327 19.2537 90.3596L17.483 94.4506C17.1376 95.2484 17.1234 96.1506 17.4433 96.9589C17.7632 97.7672 18.3912 98.4154 19.189 98.7607L102.813 134.958C103.611 135.303 104.513 135.317 105.322 134.997C106.13 134.677 106.778 134.05 107.123 133.252L108.894 129.161C109.079 128.733 109.17 128.272 109.162 127.806C109.154 127.341 109.047 126.883 108.848 126.462ZM25.0418 94.1508C29.0108 92.6586 32.7864 90.6955 36.2876 88.3036C41.5441 84.1194 45.8352 78.8497 48.868 72.8547L55.3001 57.9949C56.7068 54.4179 58.8189 51.1605 61.5106 48.4168C64.2023 45.6731 67.4187 43.4991 70.9681 42.0242C74.5175 40.5494 78.3274 39.8039 82.171 39.8321C86.0145 39.8604 89.813 40.6618 93.3404 42.1886C96.8678 43.7154 100.052 45.9365 102.703 48.7195C105.354 51.5025 107.418 54.7905 108.772 58.3878C110.126 61.9851 110.742 65.818 110.584 69.6584C110.426 73.4988 109.496 77.268 107.851 80.7417L101.419 95.6016C99.1236 101.916 98.2184 108.651 98.7653 115.347C99.4176 119.537 100.57 123.633 102.199 127.548L25.0418 94.1508Z" fill="#7CE7D7"/>
<path d="M56.8027 126.971C58.7164 127.748 60.8432 127.823 62.8068 127.182C64.7703 126.542 66.4442 125.228 67.5322 123.472L51.7097 116.623C51.1602 118.673 51.3737 120.852 52.3105 122.755C53.2474 124.658 54.8437 126.157 56.8027 126.971Z" fill="#7CE7D7"/>
</g>
<defs>
<clipPath id="clip0_5_36">
<rect width="118" height="118" fill="white" transform="translate(47.2917 0.417725) rotate(23.4055)"/>
</clipPath>
</defs>
</svg>
