<svg width="118" height="118" viewBox="0 0 118 118" fill="none" xmlns="http://www.w3.org/2000/svg">
<g opacity="0.2">
<path d="M80.9763 9.23351C71.5226 3.71614 60.2652 2.17735 49.6776 4.95524C39.09 7.73313 30.0382 14.6005 24.5109 24.0484C21.7721 28.7297 19.9822 33.9047 19.2434 39.2778C18.5046 44.6508 18.8313 50.1168 20.2049 55.3636C21.5785 60.6104 23.9721 65.5353 27.249 69.8571C30.526 74.1788 34.622 77.8128 39.3034 80.5515C43.9848 83.2903 49.1598 85.0801 54.5329 85.8189C59.906 86.5576 65.3721 86.2308 70.6189 84.8571C75.8657 83.4833 80.7906 81.0896 85.1123 77.8126C89.434 74.5355 93.0679 70.4393 95.8065 65.7579C101.337 56.3036 102.886 45.0395 100.112 34.4433C97.3379 23.8472 90.4682 14.7871 81.014 9.25593C81.0015 9.24845 80.9889 9.24098 80.9763 9.23351ZM80.4264 14.3488C83.8083 17.1855 85.5877 22.3799 85.4107 29.1673C85.3541 31.3562 85.0815 33.689 84.6083 36.1151L72.0059 28.7425L80.4264 14.3488ZM76.7802 12.4042L68.44 26.6562L56.4984 19.6706C58.3805 18.0694 60.2815 16.6876 62.16 15.5666C67.6482 12.2909 72.7529 11.2206 76.7779 12.4042H76.7802ZM68.001 8.56445C65.3637 9.27245 62.6792 10.4466 60.0443 12.0195C57.5745 13.4945 55.1189 15.3259 52.7306 17.4652L43.1372 11.8531C50.7951 7.91059 59.5839 6.74822 68.0034 8.56445H68.001ZM88.7773 21.1621C94.0105 27.479 97.0097 35.348 97.3087 43.5456L88.3713 38.317C89.0687 35.1876 89.4652 32.1503 89.5395 29.2746C89.6151 26.4049 89.3625 23.6696 88.7773 21.1621ZM39.0898 14.2698L49.6473 20.4459C46.6064 23.6071 43.7272 27.2781 41.1395 31.3845L29.1696 24.3812C31.7941 20.4028 35.1626 16.969 39.0898 14.2686V14.2698ZM53.3301 22.6006L66.3561 30.221L59.4189 42.0788L44.709 33.4719C47.3357 29.3301 50.2715 25.6697 53.3301 22.6006ZM69.9209 32.3072L83.6053 40.3135C82.43 44.4837 80.6789 48.8367 78.3543 53.1555L62.9837 44.1639L69.9209 32.3072ZM87.2846 42.4659L97.1871 48.2585C96.7574 53.0048 95.4147 57.6234 93.2329 61.8603L81.9144 55.2393C84.226 50.9725 86.0173 46.6643 87.2846 42.4659ZM27.0845 27.946L39.0344 34.9375C36.6838 39.1666 34.843 43.4453 33.5202 47.626L23.1303 41.549C23.5599 36.8023 24.9026 32.1833 27.0845 27.946ZM42.5992 37.0237L57.3338 45.6436L50.3966 57.5002L37.1924 49.7759C38.4326 45.62 40.2321 41.2988 42.5992 37.0237ZM60.8986 47.7287L76.2917 56.7344C73.7252 60.8939 70.8401 64.579 67.8252 67.6966L53.9614 59.5853L60.8986 47.7287ZM79.8459 58.8136L91.1467 65.4251C88.5225 69.4034 85.1544 72.8372 81.2276 75.5377L71.4926 69.8419C74.4875 66.6393 77.3112 62.9341 79.8459 58.8136ZM23.0088 46.2619L32.3745 51.7407C31.5555 55.1709 31.1001 58.4985 31.0198 61.6326C30.9549 64.0929 31.1343 66.4541 31.5532 68.6595C26.3124 62.3405 23.3083 54.4659 23.0088 46.2619ZM36.1233 53.9343L48.3115 61.065L39.6374 75.8917C39.4249 75.7513 39.2208 75.6026 39.012 75.4586C36.364 72.4756 34.9929 67.7297 35.1486 61.74C35.2124 59.295 35.538 56.6683 36.1233 53.9343ZM51.8763 63.1501L64.7242 70.6667C62.6273 72.5169 60.4986 74.0875 58.3982 75.3407C53.3572 78.3496 48.6396 79.4978 44.7857 78.7497C44.2547 78.5066 43.726 78.247 43.2021 77.978L51.8763 63.1501ZM68.4707 72.8591L77.1791 77.9532C70.2553 81.5164 62.3885 82.8185 54.6859 81.6761C56.7138 80.9356 58.6659 80.0018 60.5151 78.8877C63.2067 77.2817 65.8841 75.2533 68.4707 72.8579V72.8591Z" fill="#E683C3"/>
<path d="M85.4414 0.00472191C84.6776 0.0362639 83.9445 0.314215 83.3518 0.797008C82.7591 1.2798 82.3386 1.94149 82.1532 2.68313C81.9678 3.42477 82.0274 4.2065 82.3232 4.91142C82.619 5.61634 83.135 6.20657 83.7941 6.59384C98.3341 15.4084 106.667 31.2429 105.569 47.8348C104.47 64.4256 94.1097 79.1001 78.5184 86.0196C62.927 92.9403 44.6795 90.9261 31.0788 80.8005C30.706 80.5228 30.2821 80.3213 29.8314 80.2074C29.3807 80.0935 28.9119 80.0695 28.4519 80.1368C27.992 80.2041 27.5497 80.3613 27.1505 80.5995C26.7513 80.8377 26.4029 81.1522 26.1252 81.525C25.8475 81.8978 25.646 82.3217 25.5321 82.7724C25.4182 83.2232 25.3942 83.6919 25.4615 84.1519C25.5288 84.6119 25.686 85.0541 25.9242 85.4533C26.1624 85.8526 26.4769 86.201 26.8497 86.4787C29.9119 88.7582 33.2095 90.7029 36.6862 92.2795C28.7094 94.4979 23.6 98.078 23.6 102.829C23.6 111.207 38.2096 118 59 118C79.7904 118 94.4 111.207 94.4 102.829C94.4 98.1441 89.4381 94.5923 81.6501 92.3692C99.4315 84.3641 111.364 67.4559 112.632 48.3021C113.907 29.054 104.199 10.6837 87.4628 0.539262C86.8582 0.161631 86.1536 -0.0246773 85.4414 0.00472191ZM42.0564 94.3764C46.2091 95.7474 50.5108 96.6174 54.87 96.9677V99.4103C54.87 100.263 55.3051 101.081 56.0796 101.684C56.8542 102.287 57.9046 102.626 59 102.626C60.0953 102.626 61.1458 102.287 61.9203 101.684C62.6949 101.081 63.13 100.263 63.13 99.4103V97.0137C67.6 96.6968 72.0143 95.8329 76.274 94.4413C82.9717 95.9128 87.32 98.2067 87.32 100.807C87.32 105.276 74.6409 108.899 59 108.899C43.3591 108.899 30.68 105.276 30.68 100.807C30.68 98.1713 35.1475 95.8467 42.0552 94.3764H42.0564Z" fill="#E683C3"/>
</g>
</svg>
