<svg width="153" height="153" viewBox="0 0 153 153" fill="none" xmlns="http://www.w3.org/2000/svg">
<g opacity="0.2" clip-path="url(#clip0_5_28)">
<path d="M49.2081 63.8214L38.0503 93.2084L67.4373 104.366L63.6356 95.9105L46.5059 89.4067L53.0098 72.277L49.2081 63.8214Z" fill="#F7DC69"/>
<path d="M111.17 139.518L105.761 127.261L102.713 135.29L16.9112 102.713L21.7397 89.9956L27.8684 92.3225L29.7299 87.4196L23.6013 85.0926L31.3384 64.7148L37.4671 67.0418L39.3286 62.1388L33.2 59.8119L40.6463 40.2001L46.7749 42.5271L48.6365 37.6242L42.5078 35.2972L49.0117 18.1676L79.416 85.2832L82.697 76.6417L51.7531 8.26946C51.4886 7.67457 51.0529 7.17192 50.5016 6.82561C49.9502 6.47931 49.3083 6.30503 48.6575 6.32499C48.0068 6.34496 47.3767 6.55827 46.8477 6.93772C46.3186 7.31718 45.9146 7.84559 45.687 8.45559L9.61909 103.45C9.31052 104.263 9.33743 105.165 9.69391 105.958C10.0504 106.75 10.7072 107.369 11.5199 107.678L107.005 143.932C107.612 144.166 108.275 144.215 108.91 144.071C109.545 143.927 110.123 143.597 110.57 143.124C111.017 142.65 111.312 142.055 111.419 141.412C111.526 140.77 111.439 140.111 111.17 139.518Z" fill="#F7DC69"/>
<path d="M80.5249 119.854L92.7822 124.507C94.4076 125.125 96.2116 125.071 97.7974 124.358C99.3831 123.645 100.621 122.331 101.238 120.706L123.693 61.5642L121.567 45.926C121.38 44.7747 120.89 43.694 120.146 42.7954C119.403 41.8967 118.433 41.2127 117.337 40.814C116.218 40.3995 115.008 40.2979 113.837 40.5203C112.665 40.7426 111.576 41.2804 110.687 42.0757L99.1551 52.3176L76.7232 111.398C76.106 113.023 76.1598 114.827 76.8728 116.413C77.5858 117.999 78.8994 119.236 80.5249 119.854ZM104.725 56.1154L115.056 46.8201L116.971 60.8L99.7631 106.121L87.5058 101.468L104.725 56.1154ZM85.6093 106.462L97.8666 111.116L95.0277 118.593L82.7704 113.939L85.6093 106.462Z" fill="#F7DC69"/>
</g>
<defs>
<clipPath id="clip0_5_28">
<rect width="118" height="118" fill="white" transform="translate(41.8853) rotate(20.791)"/>
</clipPath>
</defs>
</svg>
