<svg width="53" height="35" viewBox="0 0 53 35" fill="none" xmlns="http://www.w3.org/2000/svg">
<path d="M23.0743 18.5521L23.0698 17.5193C23.0698 13.227 23.3236 9.31384 23.7058 6.7629L24.0407 5.17659C24.227 4.33645 24.4719 3.37984 24.7273 2.8915C25.662 1.1052 27.4896 0 29.4458 0H29.616C30.8912 0.0417661 33.5701 1.15017 33.5701 1.18873C37.8807 2.98034 46.197 8.38751 50.0379 12.2424L51.154 13.3997C51.4463 13.7134 51.7747 14.0846 51.9786 14.374C52.6595 15.2671 53 16.3723 53 17.4775C53 18.7112 52.6178 19.8582 51.895 20.7963L50.7483 22.0222L50.4914 22.2838C47.0063 26.0267 37.9064 32.1471 33.1461 34.0201L32.4274 34.2929C31.5626 34.6 30.3508 34.9663 29.616 35C28.6813 35 27.7884 34.7847 26.9372 34.3607C25.874 33.7663 25.026 32.8282 24.557 31.723C24.2583 30.9583 23.7893 28.6612 23.7893 28.6194C23.3594 26.3033 23.1101 22.6484 23.0743 18.5521ZM0 17.4987C0 15.0538 1.98185 13.0715 4.42625 13.0715L15.3184 14.0257C17.236 14.0257 18.7907 15.5807 18.7907 17.4987C18.7907 19.42 17.236 20.9717 15.3184 20.9717L4.42625 21.9259C1.98185 21.9259 0 19.9436 0 17.4987Z" fill="#7CE7D7"/>
</svg>
