<svg width="200" height="200" viewBox="0 0 200 200" fill="none" xmlns="http://www.w3.org/2000/svg">
<g opacity="0.5">
<path fill-rule="evenodd" clip-rule="evenodd" d="M60 20C54.6957 20 49.6086 22.1071 45.8579 25.8579C42.1071 29.6086 40 34.6957 40 40V160C40 165.304 42.1071 170.391 45.8579 174.142C49.6086 177.893 54.6957 180 60 180H140C145.304 180 150.391 177.893 154.142 174.142C157.893 170.391 160 165.304 160 160V74.14C159.999 68.8361 157.891 63.7499 154.14 60L120 25.86C116.25 22.109 111.164 20.0011 105.86 20H60ZM80 120C80 117.348 78.9464 114.804 77.0711 112.929C75.1957 111.054 72.6522 110 70 110C67.3478 110 64.8043 111.054 62.9289 112.929C61.0536 114.804 60 117.348 60 120V150C60 152.652 61.0536 155.196 62.9289 157.071C64.8043 158.946 67.3478 160 70 160C72.6522 160 75.1957 158.946 77.0711 157.071C78.9464 155.196 80 152.652 80 150V120ZM100 90C102.652 90 105.196 91.0536 107.071 92.9289C108.946 94.8043 110 97.3478 110 100V150C110 152.652 108.946 155.196 107.071 157.071C105.196 158.946 102.652 160 100 160C97.3478 160 94.8043 158.946 92.9289 157.071C91.0536 155.196 90 152.652 90 150V100C90 97.3478 91.0536 94.8043 92.9289 92.9289C94.8043 91.0536 97.3478 90 100 90ZM140 80C140 77.3478 138.946 74.8043 137.071 72.9289C135.196 71.0536 132.652 70 130 70C127.348 70 124.804 71.0536 122.929 72.9289C121.054 74.8043 120 77.3478 120 80V150C120 152.652 121.054 155.196 122.929 157.071C124.804 158.946 127.348 160 130 160C132.652 160 135.196 158.946 137.071 157.071C138.946 155.196 140 152.652 140 150V80Z" fill="#F7DC69"/>
</g>
</svg>
