<svg width="200" height="200" viewBox="0 0 200 200" fill="none" xmlns="http://www.w3.org/2000/svg">
<g opacity="0.5" clip-path="url(#clip0_11_11)">
<path d="M117.562 13.125C112.4 -4.375 87.6 -4.375 82.4375 13.125L81.1875 17.375C80.4161 19.9949 79.0682 22.409 77.2424 24.4402C75.4166 26.4713 73.1594 28.0681 70.6362 29.1133C68.113 30.1585 65.3878 30.6258 62.6606 30.4807C59.9333 30.3356 57.2731 29.582 54.875 28.275L51 26.15C34.9625 17.425 17.425 34.9625 26.1625 50.9875L28.275 54.875C33.85 65.125 28.5625 77.8875 17.375 81.1875L13.125 82.4375C-4.375 87.6 -4.375 112.4 13.125 117.562L17.375 118.812C19.9949 119.584 22.409 120.932 24.4402 122.758C26.4713 124.583 28.0681 126.841 29.1133 129.364C30.1585 131.887 30.6258 134.612 30.4807 137.339C30.3356 140.067 29.582 142.727 28.275 145.125L26.15 149C17.425 165.038 34.9625 182.575 50.9875 173.837L54.875 171.725C57.2731 170.418 59.9333 169.664 62.6606 169.519C65.3878 169.374 68.113 169.841 70.6362 170.887C73.1594 171.932 75.4166 173.529 77.2424 175.56C79.0682 177.591 80.4161 180.005 81.1875 182.625L82.4375 186.875C87.6 204.375 112.4 204.375 117.562 186.875L118.812 182.625C119.584 180.005 120.932 177.591 122.758 175.56C124.583 173.529 126.841 171.932 129.364 170.887C131.887 169.841 134.612 169.374 137.339 169.519C140.067 169.664 142.727 170.418 145.125 171.725L149 173.85C165.038 182.575 182.575 165.037 173.837 149.012L171.725 145.125C170.418 142.727 169.664 140.067 169.519 137.339C169.374 134.612 169.841 131.887 170.887 129.364C171.932 126.841 173.529 124.583 175.56 122.758C177.591 120.932 180.005 119.584 182.625 118.812L186.875 117.562C204.375 112.4 204.375 87.6 186.875 82.4375L182.625 81.1875C180.005 80.4161 177.591 79.0682 175.56 77.2424C173.529 75.4166 171.932 73.1594 170.887 70.6362C169.841 68.113 169.374 65.3878 169.519 62.6606C169.664 59.9333 170.418 57.2731 171.725 54.875L173.85 51C182.575 34.9625 165.037 17.425 149.012 26.1625L145.125 28.275C142.727 29.582 140.067 30.3356 137.339 30.4807C134.612 30.6258 131.887 30.1585 129.364 29.1133C126.841 28.0681 124.583 26.4713 122.758 24.4402C120.932 22.409 119.584 19.9949 118.812 17.375L117.562 13.125ZM100 136.625C90.2864 136.625 80.9707 132.766 74.1022 125.898C67.2337 119.029 63.375 109.714 63.375 100C63.375 90.2864 67.2337 80.9707 74.1022 74.1022C80.9707 67.2337 90.2864 63.375 100 63.375C109.71 63.375 119.023 67.2324 125.889 74.0985C132.755 80.9647 136.613 90.2773 136.613 99.9875C136.613 109.698 132.755 119.01 125.889 125.876C119.023 132.743 109.71 136.6 100 136.6V136.625Z" fill="#7CE7D7"/>
</g>
<defs>
<clipPath id="clip0_11_11">
<rect width="200" height="200" fill="white"/>
</clipPath>
</defs>
</svg>
