<svg width="200" height="200" viewBox="0 0 200 200" fill="none" xmlns="http://www.w3.org/2000/svg">
<g opacity="0.5">
<path opacity="0.5" d="M182.917 72.6751L182.708 71.2751L182.492 71.3251C181.011 64.4004 177.6 58.0365 172.653 52.9697C167.706 47.9029 161.426 44.3403 154.538 42.6941C147.651 41.0479 140.438 41.3855 133.735 43.6676C127.032 45.9498 121.111 50.0834 116.659 55.59C112.207 61.0967 109.405 67.7513 108.578 74.784C107.75 81.8168 108.931 88.9401 111.983 95.3298C115.035 101.72 119.834 107.115 125.824 110.89C131.815 114.666 138.752 116.669 145.833 116.667C147.692 116.667 149.475 116.383 151.25 116.125C150.675 118.058 150.083 120.025 149.133 121.792C148.183 124.358 146.7 126.583 145.225 128.825C143.992 131.25 141.817 132.892 140.217 134.967C138.542 136.983 136.258 138.325 134.45 140C132.675 141.75 130.35 142.625 128.5 143.858C126.567 144.967 124.883 146.192 123.083 146.775L118.592 148.625L114.642 150.267L118.675 166.425L123.65 165.225C125.242 164.825 127.183 164.358 129.392 163.8C131.65 163.383 134.058 162.242 136.742 161.2C139.383 160.008 142.458 159.217 145.308 157.308C148.175 155.492 151.483 153.975 154.4 151.542C157.225 149.033 160.633 146.858 163.15 143.675C165.9 140.692 168.617 137.558 170.725 133.992C173.167 130.592 174.825 126.858 176.575 123.167C178.158 119.475 179.433 115.7 180.475 112.033C182.45 104.683 183.333 97.7001 183.675 91.7251C183.958 85.7417 183.792 80.7668 183.442 77.1667C183.325 75.6633 183.149 74.165 182.917 72.6751ZM91.25 72.6751L91.0417 71.2751L90.825 71.3251C89.3442 64.4004 85.9331 58.0365 80.9862 52.9697C76.0393 47.9029 69.7589 44.3403 62.8716 42.6941C55.9844 41.0479 48.7718 41.3855 42.0684 43.6676C35.365 45.9498 29.4447 50.0834 24.9926 55.59C20.5406 61.0967 17.7386 67.7513 16.911 74.784C16.0834 81.8168 17.264 88.9401 20.3161 95.3298C23.3683 101.72 28.1672 107.115 34.1577 110.89C40.1482 114.666 47.0854 116.669 54.1667 116.667C56.025 116.667 57.8083 116.383 59.5833 116.125C59.0083 118.058 58.4167 120.025 57.4667 121.792C56.5167 124.358 55.0333 126.583 53.5583 128.825C52.325 131.25 50.15 132.892 48.55 134.967C46.875 136.983 44.5917 138.325 42.7833 140C41.0083 141.75 38.6833 142.625 36.8333 143.858C34.9 144.967 33.2167 146.192 31.4167 146.775L26.925 148.625C24.4167 149.65 22.9833 150.25 22.9833 150.25L27.0167 166.408L31.9917 165.208C33.5833 164.808 35.525 164.342 37.7333 163.783C39.9917 163.367 42.4 162.225 45.0833 161.183C47.725 159.992 50.8 159.2 53.65 157.292C56.5167 155.475 59.825 153.958 62.7416 151.525C65.5667 149.017 68.975 146.842 71.4917 143.658C74.2417 140.675 76.9583 137.542 79.0667 133.975C81.5083 130.575 83.1666 126.842 84.9166 123.15C86.5 119.458 87.775 115.683 88.8167 112.017C90.7917 104.667 91.675 97.6834 92.0167 91.7084C92.3 85.7251 92.1333 80.7501 91.7833 77.1501C91.6589 75.6525 91.481 74.1599 91.25 72.6751Z" fill="white"/>
</g>
</svg>
