<?xml version="1.0" ?><!DOCTYPE svg  PUBLIC '-//W3C//DTD SVG 1.1//EN'  'http://www.w3.org/Graphics/SVG/1.1/DTD/svg11.dtd'><svg enable-background="new 0 0 64 64" height="64px" id="Layer_1" version="1.1" viewBox="0 0 64 64" width="64px" xml:space="preserve" xmlns="http://www.w3.org/2000/svg" xmlns:xlink="http://www.w3.org/1999/xlink"><g id="ruble"><g><g><g><g><g><g><path d="M32,59C17.112,59,5,46.888,5,32S17.112,5,32,5s27,12.112,27,27S46.888,59,32,59z M32,6         C17.663,6,6,17.663,6,32s11.663,26,26,26s26-11.663,26-26S46.337,6,32,6z" fill="#FFFFFF"/></g></g></g></g><g><g><g><g><path d="M32,55C19.317,55,9,44.683,9,32S19.317,9,32,9s23,10.317,23,23S44.683,55,32,55z M32,10         c-12.131,0-22,9.869-22,22s9.869,22,22,22s22-9.869,22-22S44.131,10,32,10z" fill="#FFFFFF"/></g></g></g></g></g></g><g><g><g><g><path d="M29,48h-6v-8h-2v-4h2v-1h-2v-4h2V17h12.5c5.238,0,9.5,4.037,9.5,9s-4.262,9-9.5,9H29v1h10v4H29V48z        M24,47h4v-8h10v-2H28v-3h7.5c4.687,0,8.5-3.589,8.5-8s-3.813-8-8.5-8H24v14h-2v2h2v3h-2v2h2V47z M34.5,32H28V20h6.5       c3.584,0,6.5,2.691,6.5,6S38.084,32,34.5,32z M29,31h5.5c3.033,0,5.5-2.243,5.5-5s-2.467-5-5.5-5H29V31z" fill="#FFFFFF"/></g></g></g></g></g></svg>
