<svg width="27" height="32" viewBox="0 0 27 32" fill="none" xmlns="http://www.w3.org/2000/svg">
<path d="M25.6821 19.016C25.5314 19.1707 24.9625 19.832 24.4325 20.376C21.3255 23.7973 13.2203 29.3973 8.97804 31.1067C8.33378 31.3813 6.70494 31.9627 5.83467 32C5.00077 32 4.20584 31.808 3.44728 31.4187C2.50167 30.8747 1.7431 30.0187 1.32745 29.008C1.05987 28.3067 0.644223 26.208 0.644223 26.1707C0.228572 23.8747 -3.71105e-05 20.144 -3.67501e-05 16.0213C-3.64067e-05 12.0933 0.228571 8.51467 0.568886 6.184C0.607855 6.14667 1.02351 3.53866 1.47813 2.64533C2.31203 1.01333 3.94086 -1.98675e-06 5.684 -1.83436e-06L5.83468 -1.82119e-06C6.96993 0.0399973 9.35733 1.05333 9.35733 1.09067C13.371 2.80267 21.2891 8.128 24.4715 11.6667C24.4715 11.6667 25.3677 12.576 25.7574 13.144C26.3653 13.96 26.6666 14.9707 26.6666 15.9813C26.6666 17.1093 26.3263 18.16 25.6821 19.016Z" fill="#7CE7D7"/>
</svg>
