<svg width="27" height="32" viewBox="0 0 27 32" fill="none" xmlns="http://www.w3.org/2000/svg">
<path d="M0.984575 12.984C1.13525 12.8293 1.70417 12.168 2.23413 11.624C5.34113 8.20267 13.4463 2.60267 17.6886 0.893333C18.3328 0.618667 19.9617 0.0373333 20.832 0C21.6659 0 22.4608 0.192 23.2194 0.581333C24.165 1.12533 24.9235 1.98133 25.3392 2.992C25.6068 3.69333 26.0224 5.792 26.0224 5.82933C26.4381 8.12533 26.6667 11.856 26.6667 15.9787C26.6667 19.9067 26.4381 23.4853 26.0977 25.816C26.0588 25.8533 25.6431 28.4613 25.1885 29.3547C24.3546 30.9867 22.7258 32 20.9826 32H20.832C19.6967 31.96 17.3093 30.9467 17.3093 30.9093C13.2957 29.1973 5.3775 23.872 2.19516 20.3333C2.19516 20.3333 1.29891 19.424 0.909238 18.856C0.301348 18.04 0 17.0293 0 16.0187C0 14.8907 0.340315 13.84 0.984575 12.984Z" fill="#7CE7D7"/>
</svg>
