<svg width="200" height="200" viewBox="0 0 200 200" fill="none" xmlns="http://www.w3.org/2000/svg">
<g opacity="0.5">
<path d="M177.074 68.9649L127.484 61.7579L105.316 16.8165C104.711 15.586 103.715 14.5899 102.484 13.9844C99.3981 12.461 95.6481 13.7305 94.1052 16.8165L71.9372 61.7579L22.3474 68.9649C20.9802 69.1602 19.7302 69.8048 18.7731 70.7813C17.6161 71.9705 16.9786 73.5704 17.0005 75.2294C17.0225 76.8884 17.7022 78.4709 18.8903 79.629L54.7692 114.609L46.2927 164.004C46.0939 165.153 46.221 166.335 46.6597 167.415C47.0984 168.496 47.831 169.432 48.7745 170.117C49.718 170.802 50.8346 171.209 51.9977 171.292C53.1609 171.375 54.324 171.13 55.3552 170.586L99.7106 147.266L144.066 170.586C145.277 171.231 146.683 171.445 148.031 171.211C151.429 170.625 153.715 167.402 153.129 164.004L144.652 114.609L180.531 79.629C181.508 78.672 182.152 77.422 182.347 76.0548C182.875 72.6368 180.492 69.4727 177.074 68.9649Z" fill="#E683C3"/>
</g>
</svg>
