<svg width="400" height="400" viewBox="0 0 400 400" fill="none" xmlns="http://www.w3.org/2000/svg">
<g opacity="0.2">
<path d="M200 156.111C191.21 156.111 182.617 158.718 175.308 163.601C167.999 168.485 162.303 175.426 158.939 183.547C155.575 191.669 154.695 200.605 156.41 209.226C158.125 217.848 162.357 225.767 168.573 231.983C174.789 238.198 182.708 242.431 191.329 244.146C199.951 245.861 208.887 244.981 217.008 241.617C225.129 238.253 232.071 232.556 236.954 225.248C241.838 217.939 244.445 209.346 244.445 200.556C244.445 188.768 239.762 177.464 231.427 169.129C223.092 160.794 211.788 156.111 200 156.111V156.111ZM200 227.667C194.682 227.667 189.483 226.09 185.061 223.135C180.64 220.18 177.193 215.981 175.158 211.068C173.123 206.154 172.59 200.748 173.628 195.532C174.665 190.316 177.226 185.525 180.987 181.764C184.747 178.004 189.538 175.443 194.754 174.406C199.97 173.368 205.377 173.901 210.29 175.936C215.203 177.971 219.403 181.417 222.357 185.839C225.312 190.261 226.889 195.46 226.889 200.778C226.889 204.309 226.194 207.805 224.842 211.068C223.491 214.33 221.51 217.294 219.013 219.791C216.517 222.288 213.552 224.269 210.29 225.62C207.028 226.971 203.531 227.667 200 227.667V227.667Z" fill="#F7DC69"/>
<path d="M269.222 130.111C253.44 114.31 236.464 99.7487 218.445 86.5556C230.768 79.1004 243.704 72.707 257.111 67.4444C260.667 66.1111 264 65.1111 267.333 64.1111C270.038 67.3833 273.522 69.9234 277.464 71.4979C281.407 73.0725 285.682 73.6309 289.897 73.1221C294.111 72.6132 298.131 71.0533 301.585 68.5857C305.04 66.1181 307.819 62.8219 309.667 59C317.601 59.7184 325.088 62.9937 331 68.3333C344.222 81.5556 344.556 108.222 332.111 141.444C337.556 148.667 342.556 156 347.111 163.667C349 159.222 351 154.889 352.556 150.556C368.889 107.778 366.778 72.7778 346.667 53C336.605 43.4719 323.501 37.8051 309.667 37C307.359 32.1884 303.596 28.2243 298.912 25.6684C294.227 23.1126 288.857 22.0944 283.562 22.7578C278.267 23.4212 273.314 25.7327 269.405 29.3653C265.496 32.9979 262.828 37.7677 261.778 43C257.667 44.2222 253.556 45.4444 249.222 47.1111C231.469 54.1026 214.459 62.8497 198.445 73.2222C182.397 62.7162 165.352 53.8211 147.556 46.6667C104.778 30.4444 69.7779 32.4444 50.1112 52.5555C31.6668 71.1111 28.6668 101.889 40.889 139.889C38.0994 143.476 36.326 147.747 35.7546 152.255C35.1832 156.763 35.8349 161.342 37.6414 165.512C39.4478 169.681 42.3425 173.288 46.0221 175.955C49.7018 178.621 54.0308 180.249 58.5557 180.667C62.1112 187.444 66.0001 194.222 70.3334 200.889C60.0149 216.938 51.3414 233.988 44.4445 251.778C28.1112 294.444 30.2223 329.556 50.3334 349.222C56.4522 354.941 63.6569 359.373 71.5205 362.255C79.384 365.137 87.7462 366.41 96.1112 366C113.86 365.421 131.36 361.658 147.778 354.889C165.557 347.876 182.602 339.13 198.667 328.778C214.583 339.368 231.519 348.338 249.222 355.556C262.236 360.677 275.875 364.04 289.778 365.556C292.218 370.745 296.333 374.963 301.461 377.531C306.588 380.099 312.43 380.867 318.048 379.713C323.665 378.559 328.731 375.549 332.43 371.167C336.13 366.785 338.248 361.287 338.445 355.556C341.395 353.732 344.151 351.61 346.667 349.222C366.778 329.111 368.889 294.444 352.556 251.778C333.392 205.949 305.03 164.54 269.222 130.111V130.111ZM139.667 334.333C106.333 347.111 79.1112 346.889 65.7779 333.444C52.4445 320 52.1112 293.222 65.0001 259.667C70.2225 246.261 76.5789 233.325 84.0001 221C97.233 238.953 111.792 255.889 127.556 271.667C132.333 276.444 137.222 281.111 142.111 285.556C148.778 282.148 155.556 278.259 162.445 273.889C156 268.111 149.556 262.778 143.333 256C118.326 231.427 96.8604 203.492 79.5557 173C83.0308 169.398 85.3665 164.851 86.2705 159.929C87.1745 155.006 86.6066 149.926 84.6379 145.324C82.6692 140.723 79.3871 136.804 75.2024 134.059C71.0177 131.313 66.1161 129.863 61.1112 129.889C52.7779 102.111 54.2223 80 65.889 68.3333C69.998 64.7121 74.7858 61.9436 79.9741 60.1887C85.1623 58.4339 90.6476 57.7277 96.1112 58.1111C111.105 58.6118 125.89 61.772 139.778 67.4444C153.185 72.707 166.121 79.1004 178.445 86.5556C160.425 99.7487 143.449 114.31 127.667 130.111C122.778 135 118 140.111 113.333 145.222C116.679 152.262 120.388 159.123 124.445 165.778C130.445 159 136.556 152.333 143.111 145.778C160.206 128.702 178.799 113.195 198.667 99.4444C218.323 113.247 236.727 128.751 253.667 145.778C270.746 162.869 286.253 181.463 300 201.333C286.218 221.177 270.714 239.768 253.667 256.889C221.336 290.196 182.543 316.549 139.667 334.333V334.333ZM331 333.333L329.222 334.778C326.305 332.304 322.862 330.527 319.156 329.58C315.45 328.633 311.577 328.542 307.831 329.312C304.084 330.083 300.562 331.696 297.53 334.029C294.499 336.362 292.038 339.353 290.333 342.778C278.912 341.311 267.716 338.437 257 334.222C243.573 329.004 230.634 322.608 218.333 315.111C236.353 301.918 253.329 287.356 269.111 271.556C284.937 255.836 299.5 238.894 312.667 220.889C320.121 233.213 326.514 246.149 331.778 259.556C344.445 293.222 344.445 320.111 331 333.333Z" fill="#F7DC69"/>
</g>
</svg>
