<svg width="400" height="400" viewBox="0 0 400 400" fill="none" xmlns="http://www.w3.org/2000/svg">
<g opacity="0.2">
<path d="M340.388 295.225L250 170.938V50H275V25H125V50H150V170.938L59.6126 295.225C54.1605 302.718 50.8878 311.573 50.1564 320.811C49.4251 330.049 51.2637 339.309 55.4689 347.567C59.674 355.824 66.0818 362.758 73.983 367.599C81.8842 372.441 90.9709 375.002 100.238 375H299.75C309.017 375.002 318.104 372.441 326.005 367.599C333.906 362.758 340.314 355.824 344.519 347.567C348.724 339.309 350.563 330.049 349.831 320.811C349.1 311.573 345.827 302.718 340.375 295.225H340.388ZM175 179.062V50H225V179.062L258.413 225H141.588L175 179.062ZM299.763 350H100.25C95.5975 349.995 91.0367 348.705 87.0712 346.271C83.1057 343.838 79.8896 340.356 77.7779 336.21C75.6662 332.064 74.741 327.416 75.1045 322.777C75.4679 318.139 77.1059 313.691 79.8376 309.925L123.413 250H276.588L320.175 309.925C322.907 313.691 324.545 318.139 324.908 322.777C325.272 327.416 324.347 332.064 322.235 336.21C320.123 340.356 316.907 343.838 312.942 346.271C308.976 348.705 304.415 349.995 299.763 350Z" fill="#F7DC69"/>
</g>
</svg>
