<svg width="400" height="400" viewBox="0 0 400 400" fill="none" xmlns="http://www.w3.org/2000/svg">
<g opacity="0.2">
<path d="M162.5 283.333L150 333.333L133.333 350H266.667L250 333.333L237.5 283.333H162.5ZM50 216.667H350H50ZM83.3333 283.333H316.667C325.507 283.333 333.986 279.821 340.237 273.57C346.488 267.319 350 258.841 350 250V83.3333C350 74.4928 346.488 66.0143 340.237 59.7631C333.986 53.5119 325.507 50 316.667 50H83.3333C74.4928 50 66.0143 53.5119 59.7631 59.7631C53.5119 66.0143 50 74.4928 50 83.3333V250C50 258.841 53.5119 267.319 59.7631 273.57C66.0143 279.821 74.4928 283.333 83.3333 283.333Z" stroke="#F7DC69" stroke-width="32" stroke-linecap="round" stroke-linejoin="round"/>
</g>
</svg>
