<svg width="413" height="413" viewBox="0 0 413 413" fill="none" xmlns="http://www.w3.org/2000/svg">
<path opacity="0.2" d="M144.28 9.98008C36.0512 44.1559 -24.1957 160.011 9.98006 268.24C44.1559 376.469 160.011 436.716 268.24 402.54C376.469 368.364 436.716 252.509 402.54 144.28C368.364 36.0512 252.509 -24.1957 144.28 9.98008ZM355.732 137.476L301.48 154.607C285.493 112.411 260.251 74.334 227.612 43.1762C255.187 46.8168 281.392 57.3714 303.792 73.8586C326.193 90.3457 344.06 112.23 355.732 137.476ZM167.246 46.4811C196.015 66.8387 238.312 105.632 262.028 167.065L141.767 205.04C128.405 153.224 130.114 100.19 146.65 52.9632C149.964 51.7008 153.241 50.3207 156.676 49.2361C160.189 48.1266 163.723 47.356 167.246 46.4811ZM96.174 84.0334C88.5805 127.249 90.7203 172.852 102.511 217.436L44.3924 235.788C39.4028 208.177 41.5395 179.75 50.6006 153.195C59.6616 126.64 75.3473 102.836 96.174 84.0334ZM56.7884 275.044L115.162 256.612C132.577 302.464 155.969 340.384 184.317 369.25C156.856 365.53 130.775 354.949 108.485 338.483C86.1954 322.018 68.4154 300.199 56.7884 275.044ZM244.881 366.163C206.858 341.518 175.881 299.949 154.379 244.228L274.365 206.34C287.469 262.057 284.645 315.25 266.486 359.319C262.988 360.683 259.515 362.125 255.844 363.284C252.193 364.437 248.541 365.245 244.881 366.163ZM318.824 326.15C326.45 285.018 324.834 240.049 313.581 193.956L368.108 176.738C373.003 203.777 371.059 231.611 362.451 257.706C353.844 283.802 338.846 307.33 318.824 326.15Z" fill="#F7DC69"/>
</svg>
