<svg width="400" height="400" viewBox="0 0 400 400" fill="none" xmlns="http://www.w3.org/2000/svg">
<g opacity="0.2">
<path d="M209.414 106.641H190.625C188.906 106.641 187.5 108.047 187.5 109.766V217.305C187.5 218.32 187.969 219.258 188.789 219.844L253.359 266.992C254.766 268.008 256.719 267.734 257.734 266.328L268.906 251.094C269.961 249.648 269.648 247.695 268.242 246.719L212.539 206.445V109.766C212.539 108.047 211.133 106.641 209.414 106.641ZM295.273 136.016L356.523 150.977C358.476 151.445 360.391 149.961 360.391 147.969L360.703 84.8828C360.703 82.2656 357.695 80.7813 355.664 82.4219L294.101 130.508C293.636 130.868 293.282 131.352 293.079 131.904C292.877 132.456 292.835 133.055 292.957 133.63C293.079 134.205 293.362 134.734 293.771 135.156C294.181 135.578 294.702 135.876 295.273 136.016V136.016ZM360.781 253.633L338.633 246.016C337.86 245.751 337.015 245.799 336.278 246.149C335.541 246.5 334.97 247.125 334.687 247.891C333.945 249.883 333.164 251.836 332.344 253.789C325.391 270.234 315.43 285.039 302.695 297.734C290.102 310.366 275.178 320.435 258.75 327.383C241.731 334.578 223.438 338.271 204.961 338.242C186.289 338.242 168.203 334.609 151.172 327.383C134.744 320.435 119.819 310.366 107.226 297.734C94.5311 285.039 84.5702 270.234 77.578 253.789C70.4224 236.761 66.7563 218.47 66.7968 200C66.7968 181.328 70.4296 163.203 77.6561 146.172C84.6093 129.727 94.5702 114.922 107.305 102.227C119.898 89.5945 134.822 79.5257 151.25 72.5781C168.203 65.3516 186.328 61.7188 205 61.7188C223.672 61.7188 241.758 65.3516 258.789 72.5781C275.217 79.5257 290.141 89.5945 302.734 102.227C306.719 106.25 310.469 110.43 313.906 114.844L337.266 96.5625C306.523 57.2656 258.672 31.9922 204.922 32.0312C111.328 32.0703 36.1718 108.086 37.1093 201.719C38.0468 293.711 112.851 367.969 205 367.969C277.461 367.969 339.18 322.031 362.695 257.695C363.281 256.055 362.422 254.219 360.781 253.633V253.633Z" fill="#F7DC69"/>
</g>
</svg>
