<svg width="400" height="400" viewBox="0 0 400 400" fill="none" xmlns="http://www.w3.org/2000/svg">
<g opacity="0.2">
<path d="M333.333 33.3333H155.556V88.8889H177.778V55.5555H333.333C340 55.5555 344.444 60 344.444 66.6667V188.889C344.444 195.556 340 200 333.333 200H188.889V277.778H130L88.8888 310V277.778H55.5555C48.8888 277.778 44.4444 273.333 44.4444 266.667V144.444C44.4444 137.778 48.8888 133.333 55.5555 133.333H200V111.111H55.5555C36.6666 111.111 22.2222 125.556 22.2222 144.444V266.667C22.2222 285.556 36.6666 300 55.5555 300H66.6666V356.667L136.667 300H211.111V222.222H333.333C352.222 222.222 366.667 207.778 366.667 188.889V66.6667C366.667 47.7778 352.222 33.3333 333.333 33.3333Z" fill="#F7DC69"/>
<path d="M68.8889 254.444H95.5556L102.222 236.667H136.667L143.333 254.444H170L132.222 155.556H105.556L68.8889 254.444ZM118.889 183.333L130 217.778H107.778L118.889 183.333Z" fill="#F7DC69"/>
<path d="M222.222 188.889C234.444 188.889 251.111 185.556 266.667 177.778C282.222 185.556 300 188.889 311.111 188.889V166.667C311.111 166.667 300 166.667 287.778 162.222C301.111 148.889 311.111 128.889 311.111 100V88.8889H277.778V66.6667H255.556V88.8889H222.222V111.111H287.778C285.555 131.111 276.667 143.333 266.667 151.111C260 145.556 253.333 137.778 248.889 127.778H225.555C230 142.222 236.667 153.333 245.556 162.222C234.444 166.667 224.444 166.667 222.222 166.667V188.889V188.889Z" fill="#F7DC69"/>
</g>
</svg>
