<svg width="400" height="400" viewBox="0 0 400 400" fill="none" xmlns="http://www.w3.org/2000/svg">
<g opacity="0.2">
<path d="M233.333 166.667H250C266.667 166.667 266.667 183.333 283.6 225.45C300 266.667 300 283.333 316.667 283.333H333.333" stroke="#F7DC69" stroke-width="32" stroke-linecap="round" stroke-linejoin="round"/>
<path d="M83.3333 200H183.333M216.667 283.333C241.667 283.333 266.667 250 283.333 225C300 200 325 166.667 350 166.667L216.667 283.333ZM50 316.667C50 341.667 58.3333 350 83.3333 350C108.333 350 116.667 283.333 133.333 200C150 116.667 158.333 50 183.333 50C208.333 50 216.667 58.3333 216.667 83.3333L50 316.667Z" stroke="#F7DC69" stroke-width="32" stroke-linecap="round" stroke-linejoin="round"/>
</g>
</svg>
