<svg width="400" height="400" viewBox="0 0 400 400" fill="none" xmlns="http://www.w3.org/2000/svg">
<g opacity="0.2">
<path d="M199.4 116.167C199.4 116.167 148.15 121.267 121.317 98.9167C94.4834 76.55 100.6 33.8333 100.6 33.8333C100.6 33.8333 151.85 28.7333 178.7 51.0833C205.533 73.45 199.4 116.167 199.4 116.167V116.167Z" stroke="#F7DC69" stroke-width="32" stroke-linecap="round" stroke-linejoin="round"/>
<path d="M200.6 116.167C200.6 116.167 251.85 121.267 278.683 98.9167C305.517 76.55 299.4 33.8333 299.4 33.8333C299.4 33.8333 248.15 28.7333 221.317 51.0833C194.483 73.45 200.6 116.167 200.6 116.167V116.167ZM66.6667 183.333C66.6667 178.913 68.4227 174.674 71.5483 171.548C74.6739 168.423 78.9131 166.667 83.3334 166.667H316.667C321.087 166.667 325.326 168.423 328.452 171.548C331.577 174.674 333.333 178.913 333.333 183.333V216.667C333.333 221.087 331.577 225.326 328.452 228.452C325.326 231.577 321.087 233.333 316.667 233.333H83.3334C78.9131 233.333 74.6739 231.577 71.5483 228.452C68.4227 225.326 66.6667 221.087 66.6667 216.667V183.333ZM83.3334 233.333H316.667L283.333 366.667H116.667L83.3334 233.333Z" stroke="#F7DC69" stroke-width="32" stroke-linecap="round" stroke-linejoin="round"/>
</g>
</svg>
