<svg width="711" height="668" viewBox="0 0 711 668" fill="none" xmlns="http://www.w3.org/2000/svg">
<path opacity="0.5" d="M48.6838 354.094C35.2762 346.527 35.089 327.282 48.3468 319.455L481.85 63.5163C495.108 55.6889 511.868 65.1489 512.017 80.5442L516.915 583.939C517.065 599.334 500.493 609.118 487.085 601.55L48.6838 354.094Z" fill="#7CE7D7"/>
<g clip-path="url(#clip0_3_36)">
<path d="M453.089 532.56V656.792H141.84C106.378 656.792 77.5251 628.926 77.5251 594.676C77.5251 560.426 106.378 532.56 141.84 532.56H453.089Z" fill="#F2F2F2"/>
<path d="M460.734 655.837C460.733 657.104 460.229 658.319 459.333 659.215C458.438 660.111 457.222 660.614 455.955 660.615H136.296C118.935 660.615 102.285 653.718 90.0087 641.442C77.7325 629.166 70.8357 612.515 70.8357 595.154C70.8357 577.793 77.7325 561.143 90.0087 548.866C102.285 536.59 118.935 529.693 136.296 529.693H455.955C457.223 529.693 458.438 530.197 459.334 531.093C460.23 531.989 460.734 533.204 460.734 534.471C460.734 535.739 460.23 536.954 459.334 537.85C458.438 538.746 457.223 539.25 455.955 539.25H136.296C121.47 539.25 107.25 545.14 96.766 555.624C86.2819 566.108 80.392 580.327 80.392 595.154C80.392 609.981 86.2819 624.2 96.766 634.685C107.25 645.169 121.47 651.059 136.296 651.059H455.955C457.222 651.059 458.438 651.563 459.333 652.459C460.229 653.355 460.733 654.57 460.734 655.837Z" fill="#E683C3"/>
<path d="M453.089 561.229H118.617C118.364 561.229 118.121 561.128 117.942 560.949C117.762 560.77 117.662 560.527 117.662 560.274C117.662 560.02 117.762 559.777 117.942 559.598C118.121 559.419 118.364 559.318 118.617 559.318H453.089C453.342 559.318 453.585 559.419 453.764 559.598C453.943 559.777 454.044 560.02 454.044 560.274C454.044 560.527 453.943 560.77 453.764 560.949C453.585 561.128 453.342 561.229 453.089 561.229Z" fill="#CCCCCC"/>
<path d="M453.089 584.164H118.617C118.364 584.164 118.121 584.064 117.942 583.884C117.762 583.705 117.662 583.462 117.662 583.209C117.662 582.955 117.762 582.712 117.942 582.533C118.121 582.354 118.364 582.253 118.617 582.253H453.089C453.342 582.253 453.585 582.354 453.764 582.533C453.943 582.712 454.044 582.955 454.044 583.209C454.044 583.462 453.943 583.705 453.764 583.884C453.585 584.064 453.342 584.164 453.089 584.164Z" fill="#CCCCCC"/>
<path d="M453.089 607.099H118.617C118.364 607.099 118.121 606.999 117.942 606.82C117.762 606.64 117.662 606.397 117.662 606.144C117.662 605.89 117.762 605.647 117.942 605.468C118.121 605.289 118.364 605.188 118.617 605.188H453.089C453.342 605.188 453.585 605.289 453.764 605.468C453.943 605.647 454.044 605.89 454.044 606.144C454.044 606.397 453.943 606.64 453.764 606.82C453.585 606.999 453.342 607.099 453.089 607.099Z" fill="#CCCCCC"/>
<path d="M453.089 630.035H118.617C118.364 630.035 118.121 629.934 117.942 629.755C117.762 629.576 117.662 629.332 117.662 629.079C117.662 628.826 117.762 628.583 117.942 628.403C118.121 628.224 118.364 628.123 118.617 628.123H453.089C453.342 628.123 453.585 628.224 453.764 628.403C453.943 628.583 454.044 628.826 454.044 629.079C454.044 629.332 453.943 629.576 453.764 629.755C453.585 629.934 453.342 630.035 453.089 630.035Z" fill="#CCCCCC"/>
<path d="M693.638 555.945L615.692 652.683L373.329 457.399C345.715 435.149 340.732 395.347 362.221 368.678C383.71 342.008 423.661 338.412 451.275 360.662L693.638 555.945Z" fill="#F2F2F2"/>
<path d="M622.244 656.735C621.449 657.721 620.295 658.352 619.035 658.487C617.775 658.623 616.513 658.252 615.526 657.458L366.614 456.897C353.095 446.004 344.457 430.187 342.6 412.926C340.743 395.664 345.819 378.371 356.712 364.853C367.605 351.334 383.422 342.696 400.684 340.839C417.946 338.982 435.238 344.058 448.757 354.951L697.669 555.512C698.158 555.905 698.564 556.391 698.866 556.942C699.167 557.493 699.356 558.098 699.424 558.722C699.491 559.346 699.435 559.977 699.258 560.579C699.081 561.182 698.788 561.743 698.394 562.232C698 562.721 697.514 563.127 696.963 563.428C696.412 563.729 695.807 563.918 695.183 563.985C694.559 564.052 693.927 563.995 693.325 563.818C692.723 563.641 692.162 563.347 691.673 562.953L442.761 362.392C437.045 357.783 430.476 354.345 423.431 352.274C416.385 350.204 409.001 349.541 401.7 350.325C394.398 351.109 387.323 353.324 380.878 356.843C374.433 360.362 368.744 365.117 364.136 370.835C359.529 376.553 356.093 383.123 354.026 390.169C351.958 397.215 351.299 404.6 352.086 411.901C352.872 419.202 355.09 426.276 358.612 432.72C362.133 439.164 366.89 444.851 372.61 449.456L621.522 650.017C622.508 650.812 623.138 651.966 623.274 653.226C623.409 654.486 623.039 655.748 622.244 656.735Z" fill="#CCCCCC"/>
<path d="M675.65 578.269L415.204 368.415C415.106 368.336 415.025 368.239 414.965 368.129C414.905 368.019 414.867 367.898 414.853 367.773C414.84 367.648 414.851 367.522 414.887 367.402C414.922 367.281 414.981 367.169 415.06 367.071C415.138 366.974 415.235 366.892 415.346 366.832C415.456 366.772 415.577 366.734 415.701 366.721C415.826 366.707 415.952 366.719 416.073 366.754C416.193 366.789 416.306 366.848 416.403 366.927L676.849 576.781C676.947 576.86 677.029 576.957 677.089 577.067C677.149 577.177 677.187 577.298 677.201 577.423C677.214 577.548 677.203 577.674 677.168 577.795C677.132 577.915 677.074 578.028 676.995 578.126C676.916 578.223 676.819 578.305 676.708 578.365C676.598 578.425 676.477 578.463 676.352 578.476C676.227 578.49 676.101 578.478 675.981 578.443C675.86 578.407 675.748 578.348 675.65 578.269V578.269Z" fill="#CCCCCC"/>
<path d="M661.26 596.129L400.814 386.274C400.617 386.115 400.491 385.884 400.464 385.632C400.437 385.381 400.512 385.129 400.671 384.931C400.829 384.734 401.06 384.608 401.312 384.581C401.564 384.554 401.816 384.627 402.013 384.786L662.459 594.64C662.557 594.719 662.639 594.816 662.699 594.926C662.759 595.036 662.797 595.157 662.811 595.282C662.824 595.407 662.813 595.534 662.778 595.654C662.742 595.775 662.684 595.887 662.605 595.985C662.526 596.083 662.429 596.164 662.319 596.224C662.208 596.284 662.087 596.322 661.962 596.335C661.837 596.349 661.711 596.337 661.591 596.302C661.47 596.266 661.358 596.207 661.26 596.129Z" fill="#CCCCCC"/>
<path d="M646.87 613.988L386.424 404.133C386.227 403.974 386.101 403.744 386.073 403.492C386.046 403.24 386.12 402.987 386.279 402.79C386.439 402.592 386.669 402.466 386.921 402.439C387.173 402.412 387.426 402.486 387.623 402.645L648.069 612.499C648.167 612.578 648.248 612.675 648.308 612.786C648.369 612.896 648.406 613.017 648.42 613.141C648.433 613.266 648.422 613.392 648.387 613.513C648.351 613.633 648.293 613.745 648.214 613.843C648.135 613.941 648.038 614.022 647.928 614.082C647.818 614.142 647.697 614.18 647.572 614.194C647.447 614.207 647.321 614.196 647.201 614.16C647.08 614.125 646.968 614.066 646.87 613.988V613.988Z" fill="#CCCCCC"/>
<path d="M632.48 631.847L372.034 421.993C371.936 421.914 371.855 421.817 371.795 421.707C371.735 421.596 371.697 421.475 371.683 421.351C371.67 421.226 371.681 421.1 371.717 420.979C371.752 420.859 371.811 420.747 371.89 420.649C371.968 420.551 372.065 420.47 372.176 420.41C372.286 420.35 372.407 420.312 372.531 420.298C372.656 420.285 372.782 420.296 372.903 420.332C373.023 420.367 373.135 420.426 373.233 420.504L633.679 630.359C633.777 630.437 633.859 630.534 633.919 630.645C633.979 630.755 634.017 630.876 634.031 631.001C634.044 631.125 634.033 631.252 633.998 631.372C633.962 631.493 633.904 631.605 633.825 631.703C633.746 631.801 633.649 631.882 633.538 631.942C633.428 632.002 633.307 632.04 633.182 632.054C633.057 632.067 632.931 632.056 632.811 632.02C632.69 631.985 632.578 631.926 632.48 631.847Z" fill="#CCCCCC"/>
<path d="M710.044 661.571H0.965459C0.712009 661.571 0.46894 661.47 0.289724 661.291C0.110508 661.111 0.00982666 660.868 0.00982666 660.615C0.00982666 660.361 0.110508 660.118 0.289724 659.939C0.46894 659.76 0.712009 659.659 0.965459 659.659H710.044C710.298 659.659 710.541 659.76 710.72 659.939C710.899 660.118 711 660.361 711 660.615C711 660.868 710.899 661.111 710.72 661.291C710.541 661.47 710.298 661.571 710.044 661.571Z" fill="#CCCCCC"/>
<path d="M323.091 519.502L312.166 519.502L306.97 477.362L323.095 477.364L323.091 519.502Z" fill="#FFB8B8"/>
<path d="M304.362 516.38H325.431V529.646H291.096C291.096 527.904 291.439 526.179 292.106 524.569C292.772 522.96 293.749 521.497 294.981 520.266C296.213 519.034 297.676 518.057 299.285 517.39C300.895 516.723 302.62 516.38 304.362 516.38Z" fill="#2F2E41"/>
<path d="M211.478 519.502L200.553 519.502L195.357 477.362L211.482 477.364L211.478 519.502Z" fill="#FFB8B8"/>
<path d="M192.749 516.38H213.819V529.646H179.483C179.483 527.904 179.826 526.179 180.493 524.569C181.16 522.96 182.137 521.497 183.369 520.266C184.601 519.034 186.063 518.057 187.672 517.39C189.282 516.723 191.007 516.38 192.749 516.38Z" fill="#2F2E41"/>
<path d="M247.968 206.926V202.148C247.968 193.974 251.215 186.135 256.995 180.355C262.775 174.576 270.614 171.328 278.788 171.328H278.788C286.961 171.328 294.8 174.576 300.58 180.355C306.36 186.135 309.607 193.974 309.607 202.148V206.926C309.607 212.819 307.266 218.47 303.099 222.637C298.932 226.803 293.281 229.144 287.388 229.144H270.187C267.269 229.144 264.38 228.57 261.684 227.453C258.989 226.336 256.539 224.7 254.476 222.637C252.413 220.573 250.776 218.124 249.66 215.428C248.543 212.733 247.968 209.844 247.968 206.926Z" fill="#2F2E41"/>
<path d="M278.788 230.788C291.75 230.788 302.259 220.28 302.259 207.317C302.259 194.354 291.75 183.846 278.788 183.846C265.825 183.846 255.316 194.354 255.316 207.317C255.316 220.28 265.825 230.788 278.788 230.788Z" fill="#FFB8B8"/>
<path d="M151.119 287.985C152.071 287.086 153.209 286.406 154.453 285.994C155.696 285.582 157.015 285.448 158.316 285.6C159.617 285.753 160.869 286.19 161.983 286.878C163.098 287.567 164.047 288.492 164.765 289.588L184.886 285.782L190.181 297.445L161.691 302.421C159.771 303.505 157.519 303.847 155.363 303.383C153.207 302.918 151.296 301.678 149.993 299.899C148.69 298.119 148.085 295.924 148.292 293.728C148.5 291.532 149.505 289.489 151.119 287.985V287.985Z" fill="#FFB8B8"/>
<path d="M260.489 245.57L260.752 245.969L227.758 267.704L172.085 285.482C171.347 285.719 170.714 286.204 170.293 286.856C169.873 287.507 169.691 288.284 169.78 289.054L170.994 299.515C171.048 299.978 171.198 300.425 171.435 300.826C171.671 301.228 171.989 301.576 172.368 301.847C172.747 302.119 173.178 302.308 173.634 302.403C174.091 302.498 174.562 302.497 175.017 302.4L227.415 291.168C229.95 290.628 232.348 289.572 234.459 288.067L271.526 261.694C272.87 260.733 273.942 259.44 274.638 257.942C275.335 256.444 275.631 254.791 275.5 253.144C275.364 251.495 274.801 249.909 273.866 248.543C272.932 247.178 271.658 246.079 270.17 245.355C268.682 244.631 267.031 244.307 265.38 244.414C263.728 244.522 262.133 245.058 260.752 245.969L260.489 245.57Z" fill="#CCCCCC"/>
<path d="M312.361 507.544C311.523 507.544 310.702 507.3 310 506.842C309.298 506.384 308.744 505.731 308.407 504.963L258.322 381.208C258.206 380.939 258.009 380.713 257.76 380.56C257.511 380.406 257.22 380.333 256.928 380.349C256.636 380.366 256.355 380.471 256.125 380.652C255.894 380.832 255.725 381.079 255.639 381.359L214.777 501.839C214.605 502.4 214.319 502.919 213.939 503.365C213.558 503.812 213.09 504.176 212.564 504.434C212.037 504.693 211.463 504.841 210.877 504.87C210.292 504.899 209.706 504.808 209.157 504.602L195.454 499.463C194.711 499.187 194.058 498.71 193.569 498.085C193.081 497.46 192.775 496.712 192.686 495.923C186.522 442.224 240.277 306.68 240.82 305.317L240.971 304.94L289.973 315.779L290.075 315.89C309.625 337.218 325.695 471.737 328.717 498.486C328.83 499.453 328.61 500.428 328.094 501.253C327.578 502.077 326.796 502.702 325.878 503.022L313.783 507.3C313.327 507.462 312.846 507.544 312.361 507.544Z" fill="#2F2E41"/>
<path d="M270.141 320.142C258.268 320.142 245.032 317.775 240.958 308.005L240.864 307.78L240.991 307.572C244.207 302.296 248.457 293.295 246.172 291.605C241.672 288.278 239.488 282.804 239.682 275.335C240.103 259.122 251.15 244.727 267.172 239.516H267.172C271.644 238.085 276.195 236.913 280.802 236.006C284.161 235.329 287.628 235.403 290.955 236.225C294.281 237.046 297.384 238.594 300.042 240.757C302.732 242.935 304.907 245.681 306.41 248.799C307.913 251.917 308.706 255.33 308.734 258.791C308.902 276.117 306.234 300.249 292.572 316.817C291.932 317.586 291.041 318.104 290.056 318.28C283.483 319.469 276.82 320.092 270.141 320.142Z" fill="#CCCCCC"/>
<path d="M265.724 319.493C266.37 317.176 267.905 315.207 269.995 314.014C272.085 312.822 274.561 312.502 276.885 313.125C277.359 313.257 277.822 313.429 278.268 313.637L293.546 299.734L304.17 306.892L282.323 326.225C281.336 328.004 279.783 329.402 277.911 330.196C276.038 330.99 273.954 331.135 271.989 330.608C270.845 330.295 269.774 329.758 268.839 329.028C267.903 328.299 267.121 327.391 266.539 326.357C265.956 325.324 265.584 324.185 265.444 323.007C265.305 321.829 265.4 320.634 265.724 319.493Z" fill="#FFB8B8"/>
<path d="M291.126 319.67C290.134 319.67 289.173 319.328 288.406 318.7L282.382 313.776C281.879 313.366 281.477 312.847 281.203 312.259C280.93 311.671 280.793 311.029 280.803 310.38C280.813 309.732 280.97 309.094 281.261 308.514C281.553 307.935 281.971 307.429 282.486 307.034L307.754 287.654C308.054 287.423 308.25 287.084 308.301 286.709C308.352 286.334 308.253 285.955 308.025 285.652L292.429 265.034C290.617 262.646 289.708 259.694 289.863 256.701C290.019 253.708 291.228 250.866 293.277 248.679C295.435 246.348 298.391 244.913 301.558 244.66C304.724 244.407 307.87 245.353 310.371 247.311L310.47 247.416L326.756 270.735C328.517 272.116 329.935 273.885 330.899 275.905C331.863 277.924 332.348 280.139 332.315 282.377C332.281 284.614 331.731 286.814 330.707 288.804C329.683 290.794 328.213 292.52 326.412 293.848L293.685 318.827C292.944 319.374 292.047 319.67 291.126 319.67Z" fill="#CCCCCC"/>
<path d="M257.997 200.714V189.069L278.788 179.99L298.612 189.069V200.714C298.612 201.221 298.41 201.707 298.052 202.066C297.693 202.424 297.207 202.625 296.7 202.625H259.908C259.402 202.625 258.915 202.424 258.557 202.066C258.199 201.707 257.997 201.221 257.997 200.714Z" fill="#2F2E41"/>
<path d="M277.833 172.873C274.776 163.089 281.196 151.876 290.687 148.003C300.178 144.13 311.533 146.837 319.541 153.236C327.55 159.635 332.518 169.218 335.151 179.125C337.784 189.032 338.284 199.362 338.77 209.602C350.43 211.744 358.363 225.574 354.323 236.721C350.284 247.867 335.332 253.405 325.007 247.579C314.681 241.753 311.69 226.092 319.142 216.871C322.669 212.508 324.638 207.093 324.74 201.484C324.841 195.875 323.068 190.392 319.702 185.905C316.336 181.417 311.568 178.181 306.155 176.709C300.742 175.236 294.992 175.612 289.816 177.776C284.069 180.18 276.858 173.935 277.833 172.873Z" fill="#2F2E41"/>
<path d="M145.967 242.81C159.929 242.718 173.715 239.698 186.437 233.946C187.194 233.609 187.837 233.058 188.287 232.362C188.737 231.666 188.974 230.853 188.971 230.024V195.222C188.97 194.082 188.516 192.989 187.71 192.183C186.904 191.377 185.811 190.923 184.671 190.922H107.264C106.124 190.923 105.031 191.377 104.225 192.183C103.419 192.989 102.965 194.082 102.964 195.222V230.024C102.961 230.853 103.198 231.666 103.648 232.362C104.098 233.058 104.741 233.609 105.498 233.946C118.22 239.698 132.006 242.718 145.967 242.81Z" fill="#E683C3"/>
<path d="M145.978 214.616C146.552 214.616 147.12 214.502 147.649 214.28L209.031 188.382C209.823 188.048 210.496 187.485 210.965 186.765C211.433 186.045 211.675 185.201 211.659 184.342C211.643 183.483 211.371 182.648 210.876 181.946C210.382 181.243 209.688 180.705 208.885 180.4L147.502 157.113C146.513 156.737 145.42 156.739 144.433 157.12L83.8728 180.406C83.0741 180.714 82.3851 181.252 81.8942 181.953C81.4032 182.654 81.1325 183.485 81.1167 184.341C81.1009 185.196 81.3407 186.037 81.8054 186.756C82.2702 187.474 82.9387 188.038 83.7256 188.374L144.287 214.271C144.821 214.499 145.397 214.616 145.978 214.616Z" fill="#E683C3"/>
<path d="M181.804 236.314C178.637 236.314 176.07 233.747 176.07 230.58C176.07 227.414 178.637 224.847 181.804 224.847C184.97 224.847 187.537 227.414 187.537 230.58C187.537 233.747 184.97 236.314 181.804 236.314Z" fill="#3F3D56"/>
<path opacity="0.2" d="M83.5163 184.699L144.078 210.595C144.55 210.797 145.058 210.902 145.571 210.903C146.085 210.904 146.593 210.802 147.066 210.603L208.448 184.706C209.219 184.389 209.862 183.823 210.276 183.1C210.547 183.569 210.715 184.09 210.768 184.63C210.822 185.169 210.76 185.713 210.587 186.227C210.414 186.74 210.134 187.211 209.766 187.608C209.397 188.005 208.948 188.319 208.448 188.529L147.066 214.425C146.593 214.625 146.085 214.727 145.571 214.726C145.058 214.724 144.55 214.62 144.078 214.418L83.5163 188.521C83.0195 188.309 82.5732 187.994 82.207 187.597C81.8408 187.2 81.563 186.73 81.3919 186.217C81.2208 185.705 81.1603 185.162 81.2144 184.625C81.2685 184.087 81.436 183.567 81.7058 183.1C82.1166 183.817 82.7531 184.38 83.5163 184.699Z" fill="black"/>
<path d="M181.322 230.558C181.068 230.558 180.825 230.457 180.646 230.278C180.467 230.099 180.366 229.856 180.366 229.602V197.626L148.848 186.144C148.595 186.147 148.35 186.05 148.168 185.874C147.986 185.697 147.882 185.456 147.878 185.202C147.875 184.949 147.972 184.704 148.148 184.522C148.325 184.34 148.566 184.236 148.82 184.232L180.338 195.714C180.591 195.709 180.843 195.754 181.079 195.849C181.314 195.943 181.528 196.084 181.707 196.264C181.889 196.441 182.032 196.653 182.13 196.887C182.228 197.121 182.278 197.372 182.277 197.626V229.602C182.277 229.856 182.177 230.099 181.997 230.278C181.818 230.457 181.575 230.558 181.322 230.558Z" fill="#3F3D56"/>
</g>
<defs>
<clipPath id="clip0_3_36">
<rect width="710.99" height="515.359" fill="white" transform="translate(0.00982666 146.212)"/>
</clipPath>
</defs>
</svg>
