<svg width="400" height="400" viewBox="0 0 400 400" fill="none" xmlns="http://www.w3.org/2000/svg">
<path d="M182.679 30C190.377 16.6667 209.623 16.6667 217.321 30L355.885 270C363.583 283.333 353.96 300 338.564 300H61.4359C46.0399 300 36.4174 283.333 44.1154 270L182.679 30Z" fill="#7CE7D7"/>
<g clip-path="url(#clip0_102_49)">
<path d="M103.892 254.367C103.47 253.655 101.643 254.418 101.308 253.772C100.973 253.128 102.67 252.147 103.639 249.907C103.814 249.503 104.916 246.957 104.1 246.171C102.554 244.682 95.4804 250.827 93.0049 248.816C92.4616 248.375 92.082 247.494 90.4378 246.063C89.7836 245.494 89.3881 245.237 89.0053 245.333C88.4621 245.468 88.4191 246.195 87.8366 247.625C86.9631 249.768 86.4465 249.639 85.9375 251.349C85.5597 252.619 85.646 253.357 85.2014 253.501C84.5723 253.704 83.9933 252.358 83.196 252.478C82.3824 252.601 81.8905 254.169 81.7351 255.343C81.4436 257.546 82.2526 259 82.701 260.528C83.1883 262.19 83.4775 264.716 82.3522 268.292L71.2136 299.675C73.6727 293.236 80.7928 275.583 83.7847 269.023C84.6484 267.129 85.602 265.208 87.5601 264.45C89.4454 263.72 92.0345 264.156 95.3353 263.361C95.7207 263.268 96.7905 262.996 96.9251 262.367C97.0365 261.846 96.4072 261.556 96.5039 261.069C96.6336 260.415 97.871 260.407 99.3916 259.653C100.464 259.122 101.132 258.489 101.706 257.946C101.879 257.782 104.454 255.315 103.892 254.367H103.892V254.367Z" fill="#F2F2F2"/>
<path d="M60.0694 270.889C59.5982 270.89 59.4454 272.007 59.0315 271.985C58.619 271.964 58.6272 270.848 57.8073 269.725C57.6594 269.523 56.7277 268.248 56.1067 268.421C54.9298 268.75 55.905 273.995 54.2037 274.63C53.8303 274.77 53.2883 274.702 52.1118 275.096C51.6438 275.253 51.4035 275.373 51.34 275.588C51.2498 275.894 51.5942 276.125 52.1277 276.823C52.9278 277.87 52.7152 278.087 53.4078 278.83C53.9219 279.382 54.3091 279.552 54.2514 279.812C54.1697 280.179 53.3417 280.075 53.1708 280.501C52.9965 280.936 53.6241 281.63 54.1555 282.045C55.1526 282.824 56.0995 282.846 56.9792 283.067C57.9351 283.307 59.2584 283.894 60.689 285.478L72.8782 300C70.427 296.935 63.8172 288.347 61.4608 284.986C60.7806 284.016 60.113 282.993 60.3059 281.813C60.4916 280.678 61.4525 279.533 62.0147 277.683C62.0803 277.467 62.2554 276.864 61.9854 276.616C61.7622 276.411 61.4382 276.636 61.2269 276.448C60.9436 276.196 61.2967 275.586 61.3654 274.622C61.4138 273.943 61.2962 273.433 61.1951 272.994C61.1646 272.861 60.6966 270.886 60.0694 270.889V270.889H60.0694Z" fill="#F2F2F2"/>
<path d="M69.4692 272.999L69.1853 270.465L69.315 270.272C69.9152 269.384 70.2211 268.517 70.2247 267.693C70.2254 267.562 70.2192 267.431 70.2131 267.298C70.1886 266.769 70.1581 266.112 70.5007 265.346C70.6928 264.919 71.2324 263.931 72.0436 264.053C72.262 264.083 72.4272 264.184 72.5526 264.301C72.571 264.272 72.59 264.243 72.6102 264.211C72.8628 263.825 73.0629 263.66 73.2556 263.501C73.4037 263.379 73.5566 263.253 73.7964 262.954C73.9017 262.823 73.9836 262.708 74.0528 262.611C74.2626 262.319 74.5367 261.97 75.02 261.976C75.5364 262.001 75.8068 262.428 75.9861 262.711C76.306 263.215 76.451 263.578 76.5471 263.819C76.582 263.907 76.6217 264.006 76.6419 264.037C76.8083 264.282 78.161 264.053 78.6706 263.97C79.8153 263.779 80.8058 263.614 81.2139 264.336C81.5064 264.852 81.2892 265.535 80.5489 266.419C80.3182 266.695 80.0729 266.904 79.8551 267.068C80.0356 267.176 80.1971 267.341 80.2626 267.6C80.4167 268.214 79.8887 268.83 78.6939 269.432C78.3972 269.582 77.9977 269.783 77.4379 269.88C77.1742 269.925 76.9368 269.936 76.7337 269.942C76.7294 270.06 76.7019 270.187 76.6303 270.318C76.4204 270.703 75.9836 270.887 75.3253 270.843C74.601 270.805 74.0045 270.666 73.4783 270.545C73.0189 270.44 72.623 270.351 72.3122 270.372C71.7359 270.418 71.2917 270.879 70.7705 271.478L69.4692 272.999H69.4692H69.4692Z" fill="#F2F2F2"/>
<path d="M70.7859 257.911L68.4067 258.828L68.188 258.751C67.1765 258.396 66.2597 258.32 65.4623 258.526C65.3355 258.558 65.2104 258.597 65.0829 258.637C64.5778 258.795 63.95 258.991 63.1222 258.854C62.6604 258.776 61.5672 258.505 61.4797 257.69C61.4539 257.471 61.5091 257.285 61.5909 257.134C61.5578 257.124 61.5246 257.113 61.4887 257.102C61.0518 256.955 60.8413 256.803 60.6385 256.657C60.4826 256.545 60.3219 256.429 59.9723 256.273C59.8189 256.204 59.6869 256.154 59.5759 256.112C59.2397 255.983 58.8329 255.806 58.7162 255.337C58.6089 254.831 58.9534 254.462 59.1814 254.217C59.5878 253.779 59.9026 253.547 60.1114 253.393C60.1877 253.337 60.2735 253.273 60.298 253.246C60.4925 253.023 59.9281 251.772 59.7183 251.3C59.2433 250.242 58.8323 249.325 59.4271 248.747C59.8524 248.334 60.5679 248.371 61.6115 248.862C61.9363 249.015 62.2009 249.2 62.4147 249.369C62.4731 249.167 62.5919 248.969 62.8263 248.84C63.3813 248.535 64.1106 248.889 64.996 249.892C65.2168 250.141 65.5123 250.477 65.7478 250.994C65.8584 251.237 65.9293 251.464 65.9867 251.659C66.1015 251.633 66.2315 251.628 66.3763 251.664C66.8024 251.769 67.0907 252.145 67.2151 252.793C67.3621 253.503 67.3797 254.115 67.396 254.655C67.4107 255.126 67.4247 255.532 67.5237 255.827C67.7148 256.373 68.2737 256.685 68.9847 257.038L70.786 257.911L70.7859 257.911V257.911Z" fill="#F2F2F2"/>
<path d="M69.4692 250.445L69.1853 247.911L69.315 247.719C69.9152 246.831 70.2211 245.963 70.2247 245.14C70.2254 245.009 70.2192 244.878 70.2131 244.744C70.1886 244.216 70.1581 243.559 70.5007 242.793C70.6928 242.366 71.2324 241.377 72.0436 241.5C72.262 241.53 72.4272 241.63 72.5526 241.748C72.571 241.719 72.59 241.689 72.6102 241.657C72.8628 241.272 73.0629 241.107 73.2556 240.948C73.4037 240.825 73.5566 240.699 73.7964 240.401C73.9017 240.27 73.9836 240.155 74.0528 240.058C74.2626 239.766 74.5367 239.417 75.02 239.423C75.5364 239.448 75.8068 239.875 75.9861 240.157C76.306 240.661 76.451 241.025 76.5471 241.266C76.582 241.354 76.6217 241.453 76.6419 241.484C76.8083 241.728 78.161 241.499 78.6706 241.416C79.8153 241.225 80.8058 241.06 81.2139 241.782C81.5064 242.298 81.2892 242.981 80.5489 243.866C80.3182 244.141 80.0729 244.35 79.8551 244.514C80.0356 244.622 80.1971 244.787 80.2626 245.047C80.4167 245.661 79.8887 246.276 78.6939 246.878C78.3972 247.029 77.9977 247.23 77.4379 247.326C77.1742 247.372 76.9368 247.383 76.7337 247.389C76.7294 247.506 76.7019 247.633 76.6303 247.764C76.4204 248.15 75.9836 248.333 75.3253 248.289C74.601 248.251 74.0045 248.113 73.4783 247.992C73.0189 247.887 72.623 247.797 72.3122 247.818C71.7359 247.865 71.2917 248.326 70.7705 248.924L69.4692 250.445H69.4692H69.4692Z" fill="#F2F2F2"/>
<path d="M72.062 299.634L71.531 299.301L71.4025 298.688L71.531 299.301L70.9118 299.372C70.9021 299.315 70.8684 299.182 70.8176 298.976C70.5405 297.843 69.6956 294.394 68.9908 288.964C68.4989 285.173 68.2205 281.276 68.163 277.379C68.1055 273.476 68.2903 270.521 68.4383 268.146C68.5503 266.354 68.6861 264.649 68.8195 262.987C69.1743 258.548 69.509 254.355 69.26 249.712C69.2049 248.676 69.0893 246.519 67.829 244.223C67.0979 242.892 66.0909 241.71 64.8354 240.712L65.6161 239.73C67.0018 240.834 68.1159 242.143 68.9278 243.621C70.3251 246.166 70.4512 248.517 70.5117 249.646C70.765 254.371 70.4267 258.604 70.0682 263.086C69.936 264.742 69.8002 266.44 69.6889 268.224C69.542 270.577 69.3591 273.506 69.416 277.36C69.4723 281.21 69.7476 285.06 70.2327 288.803C70.929 294.164 71.7616 297.561 72.0351 298.677C72.1807 299.273 72.2113 299.398 72.062 299.634V299.634H72.062Z" fill="#F2F2F2"/>
<path d="M62.5375 242.702C62.4861 242.702 62.4341 242.701 62.3815 242.697C61.3146 242.64 60.3265 242.001 59.4443 240.8C59.0307 240.234 58.819 239.589 58.3969 238.303C58.3314 238.105 58.0133 237.099 57.82 235.716C57.6933 234.811 57.7092 234.433 57.8885 234.099C58.0873 233.727 58.4091 233.468 58.7713 233.293C58.7554 233.173 58.7682 233.049 58.8203 232.923C59.0338 232.401 59.6015 232.469 59.9086 232.502C60.064 232.522 60.258 232.548 60.4672 232.537C60.7964 232.521 60.9732 232.423 61.2411 232.276C61.4975 232.135 61.8162 231.96 62.2892 231.864C63.2215 231.669 64.0028 231.933 64.2604 232.02C65.6155 232.472 66.2836 233.525 67.0569 234.745C67.2111 234.99 67.7403 235.881 68.0896 237.102C68.3417 237.983 68.3062 238.374 68.2303 238.666C68.0762 239.264 67.7121 239.607 66.7877 240.363C65.8223 241.154 65.3377 241.551 64.9217 241.792C63.9532 242.351 63.3451 242.702 62.5375 242.702V242.702H62.5375Z" fill="#F2F2F2"/>
<path d="M342.519 299.064C342.519 299.296 342.331 299.484 342.099 299.484H51V298.644H342.099C342.331 298.644 342.519 298.832 342.519 299.064V299.064Z" fill="#E6E6E6"/>
<path d="M258.482 166.298C258.482 166.298 242.813 168.182 245.456 155.793C248.099 143.404 263.085 120.52 263.085 120.52L271.59 125.29L261.826 148.368L266.029 151.684L258.482 166.298H258.482Z" fill="#A0616A"/>
<path d="M309.832 151.215L307.624 169.375L252.295 169.104L263.407 149.791L309.832 151.215Z" fill="#F7DC69"/>
<path d="M276.952 121.485C280.338 116.757 280.609 111.152 277.558 108.968C274.508 106.783 269.29 108.846 265.904 113.575C262.518 118.303 262.246 123.908 265.297 126.092C268.348 128.277 273.566 126.214 276.952 121.485Z" fill="#A0616A"/>
<path d="M304.512 220.45V299.262H307.909V220.45H304.512Z" fill="#3F3D56"/>
<path d="M288.206 220.45V299.262H291.603V220.45H288.206Z" fill="#3F3D56"/>
<path d="M196.825 170.853V299.262H200.222V170.853H196.825Z" fill="#E6E6E6"/>
<path d="M251.518 220.45V299.262H254.915V220.45H251.518Z" fill="#3F3D56"/>
<path d="M238.518 220.45V299.262H241.915V220.45H238.518Z" fill="#3F3D56"/>
<path d="M301.454 218.752H235.854L223.27 236.601L288.546 240.493L301.454 218.752Z" fill="#3F3D56"/>
<path d="M181.333 157.681L181.631 144.736L142.038 147.781L141.836 156.553L181.333 157.681Z" fill="#A0616A"/>
<path d="M154.537 146.235L152.643 150.79L149.924 150.877C149.924 150.877 153.108 151.852 153.992 157.638L151.379 158.422C151.379 158.422 148.87 160.763 144.179 160.536L131.601 159.484L131.553 155.099L140.246 154.094C140.246 154.094 142.183 152.82 132.594 147.581C132.594 147.581 129.418 145.639 132.275 136.047C132.667 134.729 133.853 133.782 135.228 133.752C135.987 133.736 136.699 134.008 136.982 134.951C137.705 137.35 136.974 139.743 138.96 141.24C140.946 142.738 154.537 146.235 154.537 146.235L154.537 146.235Z" fill="#2F2E41"/>
<path d="M296.545 207.17C296.545 207.17 282.884 230.404 251.972 226.217C244.616 225.221 238.144 220.847 234.457 214.404C227.331 201.951 216.509 180.147 220.017 167.8L167.737 157.822L163.617 145.125L220.199 137.775C225.203 137.125 230.106 139.559 232.614 143.938L260.176 192.072L268.392 192.97L296.545 207.17V207.17Z" fill="#2F2E41"/>
<path d="M182.365 162.98L181.621 150.053L142.401 156.274L142.905 165.033L182.365 162.98Z" fill="#A0616A"/>
<path d="M154.735 153.727L153.214 158.42L150.51 158.725C150.51 158.725 153.763 159.441 155.11 165.137L152.568 166.128C152.568 166.128 150.255 168.664 145.561 168.815L132.94 168.778L132.539 164.411L141.123 162.711C141.123 162.711 142.951 161.285 132.972 156.834C132.972 156.834 129.65 155.153 131.725 145.363C132.011 144.017 133.117 142.978 134.485 142.838C135.24 142.76 135.971 142.975 136.33 143.892C137.243 146.225 136.707 148.669 138.807 150.002C140.907 151.335 154.735 153.727 154.735 153.727H154.735Z" fill="#2F2E41"/>
<path d="M301.185 203.039C301.185 203.039 289.438 227.298 258.29 225.611C250.877 225.21 244.074 221.371 239.881 215.246C231.776 203.406 219.235 182.543 221.738 169.954L168.824 164.214L163.697 151.89L219.503 140.012C224.44 138.961 229.522 140.993 232.374 145.156L263.719 190.917L271.982 191.15L301.185 203.039V203.039Z" fill="#2F2E41"/>
<path d="M265.376 100.603L262.658 102.641L276.926 122.344L279.644 121.665L265.376 100.603Z" fill="#3F3D56"/>
<path d="M302.474 144.356L318.1 143.677L324.894 174.25C324.894 174.25 310.626 227.924 293.641 225.886C293.641 225.886 283.11 218.072 283.11 215.355C283.11 212.637 268.843 205.843 268.843 205.843L265.446 194.293L275.637 178.666C275.637 178.666 279.713 166.437 293.301 159.643L302.474 144.356V144.356Z" fill="#F7DC69"/>
<path d="M213.131 168.135H74.1909V171.532H142.132V299.262H145.529V171.532H213.131V168.135Z" fill="#E6E6E6"/>
<path d="M310.627 141.638C320.758 141.638 328.971 133.425 328.971 123.294C328.971 113.163 320.758 104.95 310.627 104.95C300.495 104.95 292.282 113.163 292.282 123.294C292.282 133.425 300.495 141.638 310.627 141.638Z" fill="#A0616A"/>
<path d="M246.665 146.734L233.853 151.83L258.991 185.121L267.823 178.327L246.665 146.734Z" fill="#E6E6E6"/>
<path d="M296.699 210.599C296.699 210.599 291.943 225.647 281.752 218.123C271.56 210.599 256.91 187.499 256.91 187.499L264.766 181.724L281.752 200.148L286.507 197.69L296.699 210.599V210.599Z" fill="#A0616A"/>
<path d="M304.172 157.605L319.799 167.116L296.699 217.393L281.751 197.01L304.172 157.605Z" fill="#F7DC69"/>
<path d="M262.898 187.786C266.147 185.91 266.424 180.306 263.516 175.269C260.608 170.232 255.616 167.67 252.367 169.546C249.117 171.422 248.84 177.027 251.748 182.063C254.656 187.1 259.648 189.663 262.898 187.786Z" fill="#A0616A"/>
<path d="M312.633 178.835C317.341 163.401 322.393 158.516 327.705 161.574C331.748 163.902 332.965 169.2 330.595 173.219C324.556 183.463 312.11 206.933 314.703 222.488C314.703 222.488 318.78 244.23 286.168 244.23C253.556 244.23 222.303 236.756 222.303 236.756L239.288 234.038L277.915 236.798C286.74 237.428 294.178 229.877 292.999 221.108C292.96 220.818 292.914 220.526 292.86 220.23C290.924 209.58 312.633 178.835 312.633 178.835V178.835Z" fill="#3F3D56"/>
<path d="M303.751 115.69C302.253 119.886 305.545 124.243 309.991 123.946L310.097 123.939V123.939C313.085 127.675 313.168 132.959 310.297 136.786C310.062 141.719 310.834 146.647 312.568 151.271L317.44 164.263L324.94 160.763L328.499 170.263L349.44 159.475L336.749 130.919L332.876 115.427C330.12 104.405 318.877 97.771 307.897 100.688L299.472 102.925C292.817 104.693 288.986 111.661 291.06 118.228V118.228L303.751 115.69" fill="#2F2E41"/>
</g>
<defs>
<clipPath id="clip0_102_49">
<rect width="298.44" height="200" fill="white" transform="translate(51 100)"/>
</clipPath>
</defs>
</svg>
