<svg width="400" height="400" viewBox="0 0 400 400" fill="none" xmlns="http://www.w3.org/2000/svg">
<path d="M182.679 30C190.377 16.6667 209.623 16.6667 217.321 30L355.885 270C363.583 283.333 353.96 300 338.564 300H61.4359C46.0399 300 36.4174 283.333 44.1154 270L182.679 30Z" fill="#E683C3"/>
<g clip-path="url(#clip0_102_176)">
<g opacity="0.2">
<path d="M138.466 312.366C138.667 313.19 138.934 313.996 139.264 314.776C144.403 312.758 149.598 310.823 154.85 308.972C154.806 308.754 154.762 308.525 154.706 308.299C154.177 305.974 153.048 303.827 151.431 302.074C149.331 299.856 146.625 298.784 143.993 299.438C141.36 300.092 139.449 302.333 138.577 305.279C137.924 307.592 137.886 310.034 138.466 312.366V312.366Z" fill="#3F3D56"/>
<path d="M145.849 307.956C150.36 306.948 152.925 301.239 151.577 295.203C150.228 289.167 145.479 285.091 140.967 286.099C136.456 287.106 133.892 292.816 135.24 298.852C136.588 304.887 141.338 308.964 145.849 307.956Z" fill="#3F3D56"/>
<path d="M142.683 294.641C147.195 293.634 149.759 287.924 148.411 281.888C147.063 275.853 142.313 271.777 137.802 272.784C133.29 273.792 130.726 279.501 132.074 285.537C133.422 291.573 138.172 295.649 142.683 294.641Z" fill="#3F3D56"/>
<path d="M139.511 281.335C144.022 280.327 146.587 274.618 145.239 268.582C143.891 262.546 139.141 258.47 134.629 259.478C130.118 260.485 127.554 266.195 128.902 272.231C130.25 278.266 135 282.342 139.511 281.335Z" fill="#3F3D56"/>
<path d="M136.339 268.025C140.85 267.017 143.415 261.307 142.067 255.272C140.719 249.236 135.969 245.16 131.457 246.167C126.946 247.175 124.382 252.885 125.73 258.92C127.078 264.956 131.828 269.032 136.339 268.025Z" fill="#3F3D56"/>
<path d="M142.603 158.399C143.372 156.674 144.021 154.898 144.547 153.083L122.366 154.828L145.486 149.235C146.591 143.421 146.451 137.438 145.076 131.682C143.87 126.586 141.709 121.765 138.706 117.475L111.645 141.671L135.072 113.031C125.508 102.821 111.042 97.963 96.6654 101.571C75.1829 106.943 62.0184 129.139 67.2606 151.146C69.3443 160.035 74.3398 167.973 81.4528 173.697C80.2578 176.384 79.3495 179.189 78.743 182.067L109.952 189.882L78.0036 187.113C77.6215 191.573 77.956 196.067 78.9944 200.421C81.0818 209.31 86.0781 217.247 93.1903 222.972C89.4526 231.365 88.5897 240.756 90.7356 249.689C95.9777 271.697 117.641 285.179 139.124 279.811C160.606 274.444 173.771 252.248 168.529 230.24C166.441 221.352 161.445 213.415 154.333 207.689C158.07 199.297 158.933 189.905 156.787 180.972C154.709 172.076 149.716 164.131 142.603 158.399Z" fill="#7CE7D7"/>
<path opacity="0.1" d="M79.0017 200.407C81.0891 209.295 86.0854 217.232 93.1977 222.957C89.46 231.35 88.5971 240.742 90.743 249.675C95.9851 271.682 117.649 285.165 139.131 279.797C160.614 274.429 173.778 252.233 168.536 230.225C166.449 221.337 161.452 213.4 154.34 207.675C157.941 199.593 77.9371 195.945 79.0017 200.407Z" fill="black"/>
</g>
<g opacity="0.2">
<path d="M238.167 308.303C238.032 309.266 237.979 310.238 238.008 311.209C244.452 311.312 250.922 311.529 257.416 311.86C257.46 311.604 257.505 311.346 257.542 311.083C257.96 308.373 257.648 305.599 256.636 303.05C255.298 299.789 252.802 297.457 249.679 297.006C246.555 296.555 243.509 298.092 241.309 300.836C239.615 303 238.53 305.578 238.167 308.303Z" fill="#3F3D56"/>
<path d="M259.785 295.595C260.791 288.59 257.269 282.289 251.918 281.519C246.566 280.75 241.412 285.805 240.405 292.809C239.398 299.814 242.92 306.116 248.272 306.885C253.623 307.654 258.778 302.6 259.785 295.595Z" fill="#3F3D56"/>
<path d="M262.012 280.092C263.018 273.088 259.496 266.786 254.145 266.017C248.794 265.247 243.639 270.302 242.632 277.307C241.625 284.311 245.147 290.613 250.499 291.383C255.85 292.152 261.005 287.097 262.012 280.092Z" fill="#3F3D56"/>
<path d="M264.238 264.594C265.245 257.589 261.723 251.287 256.372 250.518C251.02 249.748 245.866 254.803 244.859 261.808C243.852 268.812 247.374 275.114 252.725 275.884C258.077 276.653 263.231 271.598 264.238 264.594Z" fill="#3F3D56"/>
<path d="M266.469 249.091C267.476 242.087 263.954 235.785 258.603 235.016C253.251 234.246 248.097 239.301 247.09 246.306C246.083 253.31 249.605 259.612 254.956 260.381C260.308 261.151 265.462 256.096 266.469 249.091Z" fill="#3F3D56"/>
<path d="M308.281 146.821C309.848 145.323 311.308 143.717 312.651 142.015L287.797 134.207L315.298 138.366C318.764 132.999 321.099 126.981 322.159 120.68C323.22 114.38 322.985 107.929 321.468 101.723L281.778 115.564L319.442 95.4159C317.043 89.4421 313.44 84.0263 308.856 79.5059C304.273 74.9855 298.808 71.4572 292.802 69.141C286.795 66.8249 280.376 65.7703 273.945 66.0431C267.513 66.3159 261.207 67.9102 255.418 70.7266C249.629 73.5431 244.483 77.5214 240.299 82.4137C236.115 87.306 232.983 93.0074 231.098 99.1629C229.214 105.318 228.617 111.796 229.345 118.192C230.074 124.588 232.111 130.766 235.331 136.34C232.896 138.667 230.718 141.248 228.835 144.041L259.412 165.956L225.878 149.068C222.35 156.026 220.613 163.753 220.824 171.55C221.034 179.348 223.185 186.97 227.083 193.726C220.715 199.798 216.184 207.539 214.008 216.064C211.832 224.589 212.098 233.554 214.778 241.935C217.457 250.316 222.44 257.773 229.158 263.455C235.875 269.137 244.056 272.814 252.765 274.066C261.474 275.318 270.36 274.093 278.406 270.533C286.452 266.973 293.334 261.221 298.264 253.933C303.195 246.646 305.976 238.119 306.289 229.326C306.602 220.533 304.434 211.83 300.033 204.211C307.644 196.955 312.594 187.351 314.09 176.943C315.586 166.535 313.54 155.926 308.281 146.821V146.821Z" fill="#7CE7D7"/>
<path opacity="0.1" d="M221.275 163.604C219.764 174.013 221.81 184.626 227.083 193.726C220.715 199.798 216.184 207.539 214.008 216.064C211.832 224.589 212.098 233.554 214.778 241.935C217.457 250.316 222.44 257.773 229.158 263.455C235.875 269.137 244.056 272.814 252.765 274.066C261.474 275.318 270.36 274.093 278.406 270.533C286.452 266.973 293.334 261.221 298.264 253.933C303.195 246.646 305.976 238.119 306.289 229.326C306.602 220.533 304.434 211.83 300.033 204.211C307.39 197.205 222.026 158.396 221.275 163.604Z" fill="black"/>
</g>
<path opacity="0.1" d="M200 334.022C310.457 334.022 400 328.891 400 322.562C400 316.233 310.457 311.102 200 311.102C89.5431 311.102 0 316.233 0 322.562C0 328.891 89.5431 334.022 200 334.022Z" fill="#7CE7D7"/>
<path d="M330.758 317.945C335.923 317.945 340.111 317.138 340.111 316.144C340.111 315.15 335.923 314.344 330.758 314.344C325.592 314.344 321.405 315.15 321.405 316.144C321.405 317.138 325.592 317.945 330.758 317.945Z" fill="#7CE7D7"/>
<path d="M330.603 316.81C331.205 316.81 331.693 316.171 331.693 315.383C331.693 314.595 331.205 313.956 330.603 313.956C330 313.956 329.512 314.595 329.512 315.383C329.512 316.171 330 316.81 330.603 316.81Z" fill="#3F3D56"/>
<path d="M330.603 315.065C331.205 315.065 331.693 314.426 331.693 313.638C331.693 312.85 331.205 312.211 330.603 312.211C330 312.211 329.512 312.85 329.512 313.638C329.512 314.426 330 315.065 330.603 315.065Z" fill="#3F3D56"/>
<path d="M330.603 313.323C331.205 313.323 331.693 312.685 331.693 311.896C331.693 311.108 331.205 310.469 330.603 310.469C330 310.469 329.512 311.108 329.512 311.896C329.512 312.685 330 313.323 330.603 313.323Z" fill="#3F3D56"/>
<path d="M330.603 311.582C331.205 311.582 331.693 310.943 331.693 310.155C331.693 309.367 331.205 308.728 330.603 308.728C330 308.728 329.512 309.367 329.512 310.155C329.512 310.943 330 311.582 330.603 311.582Z" fill="#3F3D56"/>
<path d="M330.603 309.837C331.205 309.837 331.693 309.198 331.693 308.41C331.693 307.622 331.205 306.983 330.603 306.983C330 306.983 329.512 307.622 329.512 308.41C329.512 309.198 330 309.837 330.603 309.837Z" fill="#3F3D56"/>
<path d="M330.603 308.096C331.205 308.096 331.693 307.457 331.693 306.669C331.693 305.881 331.205 305.242 330.603 305.242C330 305.242 329.512 305.881 329.512 306.669C329.512 307.457 330 308.096 330.603 308.096Z" fill="#3F3D56"/>
<path d="M330.603 306.355C331.205 306.355 331.693 305.716 331.693 304.928C331.693 304.14 331.205 303.501 330.603 303.501C330 303.501 329.512 304.14 329.512 304.928C329.512 305.716 330 306.355 330.603 306.355Z" fill="#3F3D56"/>
<path d="M334.677 293.006C334.826 292.816 334.962 292.616 335.083 292.407L332.222 291.937L335.316 291.959C335.613 291.313 335.774 290.614 335.791 289.903C335.809 289.192 335.681 288.486 335.416 287.826L331.264 289.982L335.094 287.165C334.737 286.541 334.255 285.998 333.678 285.57C333.101 285.141 332.442 284.837 331.742 284.675C331.042 284.513 330.316 284.497 329.61 284.629C328.903 284.76 328.232 285.036 327.637 285.44C327.042 285.843 326.537 286.364 326.153 286.972C325.769 287.579 325.515 288.259 325.406 288.969C325.297 289.68 325.336 290.405 325.52 291.099C325.705 291.794 326.03 292.443 326.477 293.006C326.246 293.3 326.046 293.619 325.882 293.956L329.579 295.885L325.619 294.555C325.342 295.378 325.275 296.258 325.425 297.115C325.575 297.971 325.936 298.776 326.477 299.457C325.872 300.226 325.495 301.15 325.391 302.123C325.286 303.097 325.457 304.08 325.885 304.961C326.312 305.841 326.979 306.584 327.809 307.103C328.639 307.622 329.598 307.898 330.577 307.898C331.556 307.898 332.515 307.622 333.345 307.103C334.174 306.584 334.841 305.841 335.269 304.961C335.697 304.08 335.868 303.097 335.763 302.123C335.658 301.15 335.282 300.226 334.677 299.457C335.4 298.538 335.793 297.402 335.793 296.233C335.793 295.064 335.4 293.928 334.677 293.009V293.006Z" fill="#7CE7D7"/>
<path opacity="0.1" d="M325.36 296.229C325.357 297.398 325.748 298.534 326.469 299.453C325.864 300.222 325.488 301.147 325.383 302.12C325.278 303.093 325.449 304.076 325.877 304.957C326.305 305.837 326.972 306.58 327.801 307.099C328.631 307.619 329.59 307.894 330.569 307.894C331.548 307.894 332.507 307.619 333.337 307.099C334.167 306.58 334.834 305.837 335.261 304.957C335.689 304.076 335.86 303.093 335.756 302.12C335.651 301.147 335.274 300.222 334.669 299.453C335.375 298.566 325.36 295.645 325.36 296.229Z" fill="black"/>
<path d="M115.97 332.425C122.871 332.425 128.466 331.349 128.466 330.022C128.466 328.695 122.871 327.619 115.97 327.619C109.069 327.619 103.475 328.695 103.475 330.022C103.475 331.349 109.069 332.425 115.97 332.425Z" fill="#7CE7D7"/>
<path d="M115.76 330.906C116.564 330.906 117.216 330.053 117.216 329.002C117.216 327.95 116.564 327.098 115.76 327.098C114.955 327.098 114.303 327.95 114.303 329.002C114.303 330.053 114.955 330.906 115.76 330.906Z" fill="#3F3D56"/>
<path d="M115.76 328.577C116.564 328.577 117.216 327.724 117.216 326.673C117.216 325.621 116.564 324.769 115.76 324.769C114.955 324.769 114.303 325.621 114.303 326.673C114.303 327.724 114.955 328.577 115.76 328.577Z" fill="#3F3D56"/>
<path d="M115.76 326.248C116.564 326.248 117.216 325.395 117.216 324.344C117.216 323.292 116.564 322.44 115.76 322.44C114.955 322.44 114.303 323.292 114.303 324.344C114.303 325.395 114.955 326.248 115.76 326.248Z" fill="#3F3D56"/>
<path d="M115.76 323.922C116.564 323.922 117.216 323.07 117.216 322.019C117.216 320.967 116.564 320.115 115.76 320.115C114.955 320.115 114.303 320.967 114.303 322.019C114.303 323.07 114.955 323.922 115.76 323.922Z" fill="#3F3D56"/>
<path d="M115.76 321.593C116.564 321.593 117.216 320.741 117.216 319.689C117.216 318.638 116.564 317.786 115.76 317.786C114.955 317.786 114.303 318.638 114.303 319.689C114.303 320.741 114.955 321.593 115.76 321.593Z" fill="#3F3D56"/>
<path d="M115.76 319.264C116.564 319.264 117.216 318.412 117.216 317.36C117.216 316.309 116.564 315.457 115.76 315.457C114.955 315.457 114.303 316.309 114.303 317.36C114.303 318.412 114.955 319.264 115.76 319.264Z" fill="#3F3D56"/>
<path d="M115.76 316.939C116.564 316.939 117.216 316.087 117.216 315.035C117.216 313.984 116.564 313.131 115.76 313.131C114.955 313.131 114.303 313.984 114.303 315.035C114.303 316.087 114.955 316.939 115.76 316.939Z" fill="#3F3D56"/>
<path d="M121.209 299.105C121.406 298.851 121.586 298.584 121.748 298.307L117.93 297.678L122.063 297.712C122.46 296.849 122.677 295.914 122.7 294.964C122.723 294.014 122.551 293.07 122.196 292.189L116.65 295.065L121.763 291.323C121.282 290.499 120.637 289.783 119.867 289.218C119.097 288.654 118.22 288.253 117.289 288.042C116.358 287.83 115.394 287.812 114.456 287.989C113.518 288.165 112.626 288.533 111.836 289.068C111.046 289.604 110.374 290.296 109.863 291.101C109.351 291.907 109.01 292.809 108.862 293.752C108.713 294.695 108.76 295.658 108.999 296.582C109.238 297.506 109.664 298.371 110.251 299.124C109.942 299.519 109.676 299.945 109.456 300.396L114.421 302.983L109.127 301.209C108.755 302.306 108.661 303.478 108.855 304.621C109.048 305.763 109.523 306.839 110.236 307.752C109.428 308.78 108.926 310.015 108.786 311.315C108.647 312.615 108.876 313.928 109.447 315.104C110.019 316.28 110.91 317.272 112.018 317.966C113.126 318.659 114.408 319.027 115.715 319.027C117.023 319.027 118.304 318.659 119.412 317.966C120.521 317.272 121.411 316.28 121.983 315.104C122.554 313.928 122.783 312.615 122.644 311.315C122.504 310.015 122.002 308.78 121.194 307.752C122.159 306.523 122.684 305.006 122.684 303.444C122.684 301.881 122.159 300.364 121.194 299.135L121.209 299.105Z" fill="#7CE7D7"/>
<path opacity="0.1" d="M108.762 303.412C108.757 304.974 109.278 306.492 110.24 307.723C109.432 308.751 108.93 309.985 108.79 311.285C108.651 312.586 108.88 313.899 109.451 315.075C110.023 316.251 110.914 317.242 112.022 317.936C113.13 318.63 114.412 318.998 115.719 318.998C117.027 318.998 118.308 318.63 119.416 317.936C120.525 317.242 121.415 316.251 121.987 315.075C122.558 313.899 122.787 312.586 122.648 311.285C122.508 309.985 122.006 308.751 121.198 307.723C122.141 306.536 108.762 302.632 108.762 303.412Z" fill="black"/>
<path d="M181.76 224.2C180.817 219.268 179.763 214.325 179.59 209.309C179.486 206.351 179.693 203.342 179.312 200.392C179.124 198.943 178.795 197.519 178.47 196.096L177.161 190.399C177.309 189.307 177.267 188.198 177.035 187.12C176.904 186.552 176.73 185.995 176.514 185.453C177.736 183.734 178.742 181.871 179.512 179.908C179.86 179.02 180.159 178.078 180.022 177.139C179.756 175.338 178.011 174.152 176.388 173.264C175.405 172.728 174.37 172.211 173.246 172.126C172.46 172.094 171.677 172.244 170.959 172.565C170.241 172.886 169.607 173.368 169.105 173.974C168.832 172.517 168.924 171.014 169.372 169.601C168.407 169.168 167.434 168.762 166.455 168.366C166.313 167.088 166.264 165.802 166.307 164.518C166.329 162.976 166.355 161.42 166.444 159.874C169.073 158.915 171.345 157.174 172.956 154.886C174.567 152.597 175.44 149.871 175.457 147.072C175.457 146.913 175.457 146.758 175.457 146.603C176.173 145.315 176.626 143.897 176.79 142.432C176.954 140.967 176.825 139.485 176.41 138.07C175.327 134.373 172.495 131.327 169.083 129.445C165.671 127.564 161.715 126.769 157.8 126.628C156.487 126.552 155.168 126.635 153.874 126.876C152.49 127.217 151.148 127.713 149.874 128.355C147.919 129.257 145.948 130.244 144.484 131.8C141.945 134.51 141.375 138.492 141.653 142.152C142.022 146.957 143.627 151.608 145.483 156.081C146.1 157.56 146.758 159.061 147.775 160.322C148.562 161.294 149.93 161.353 151.017 160.673C150.93 161.854 150.903 163.038 150.935 164.222C148.928 164.152 146.972 164.481 145.361 165.612C144.621 166.14 143.919 166.972 144.081 167.867C144.575 167.88 145.048 168.067 145.418 168.395C145.787 168.723 146.029 169.171 146.1 169.66C146.181 170.447 145.786 171.198 145.401 171.878C145.235 172.181 145.068 172.488 144.898 172.791C143.309 174.492 141.678 176.621 141.534 178.732C141.275 178.757 141.017 178.795 140.762 178.847C139.32 179.113 137.885 179.604 136.47 179.974L126.222 182.673L123.69 183.375L119.623 184.447C117.035 185.128 114.399 185.826 112.104 187.194C109.808 188.562 107.86 190.71 107.398 193.298C107.168 194.584 107.309 195.922 107.028 197.198C107.028 197.257 107.006 197.312 106.991 197.368C106.756 198.175 106.44 198.957 106.048 199.701C103.752 204.54 102.118 209.815 102.425 215.142C102.614 218.414 103.534 221.604 104.429 224.754C105.368 227.975 106.295 231.197 107.209 234.418C107.812 236.724 108.577 238.984 109.497 241.183C111.075 244.705 113.414 247.833 116.348 250.34C117.171 251.078 118.091 251.7 119.083 252.189C120.596 252.843 122.247 253.111 123.889 252.969C124.333 252.939 124.769 252.891 125.202 252.821C128.377 252.318 131.338 250.787 134.056 249.065C135.192 248.345 136.301 247.587 137.383 246.791C137.52 248.033 137.768 249.26 138.122 250.458C138.362 251.283 138.658 252.129 138.562 252.983C138.429 254.174 137.564 255.15 137.117 256.266C136.166 258.625 137.142 261.253 137.301 263.782C137.453 266.152 136.876 268.503 136.414 270.836C135.642 274.726 135.186 278.672 135.05 282.636C135.046 284.137 134.947 285.636 134.754 287.124C134.41 289.224 133.605 291.25 133.464 293.372C133.25 296.677 134.677 299.911 134.547 303.22C134.396 307.105 132.115 310.88 132.91 314.68C133.009 315.157 133.279 315.708 133.715 315.83L133.501 316.026C132.847 316.632 132.211 317.752 132.954 318.244C133.125 318.346 133.315 318.411 133.512 318.436C134.662 318.677 135.819 318.895 136.976 319.098C136.951 320.167 137.085 321.233 137.375 322.262C137.586 322.414 137.8 322.551 138.015 322.68C137.852 323.116 137.863 323.538 138.248 323.789C138.419 323.891 138.609 323.956 138.806 323.982C148.329 325.946 158.054 326.753 167.771 326.384C169.508 326.318 171.324 326.192 172.806 325.305C174.288 324.418 175.29 322.529 174.584 320.972C173.959 319.597 172.325 319.002 170.858 318.543L169.135 318.011C169.356 317.62 169.484 317.183 169.511 316.735C169.538 316.287 169.463 315.838 169.29 315.423C168.666 314.048 167.032 313.453 165.564 312.994L161.597 311.763C161.075 311.64 160.584 311.409 160.155 311.087C159.871 310.804 159.609 310.5 159.372 310.177C158.799 309.523 158.047 309.051 157.209 308.821C157.164 307.98 157.183 307.137 157.264 306.299L158.373 292.913C158.621 289.882 158.865 286.791 158.159 283.83C157.874 282.628 157.42 281.397 157.697 280.192C158.129 278.226 160.2 277.131 161.612 275.671C163.741 273.453 164.403 270.299 164.891 267.298C166.912 254.91 167.547 242.336 166.784 229.808C171.222 228.557 175.789 227.822 180.396 227.619C181.179 227.586 181.564 227.216 181.808 226.484C182.052 225.752 181.904 224.957 181.76 224.2ZM159.634 224.854C159.66 224.725 159.69 224.595 159.712 224.466L160.019 224.858L159.634 224.854Z" fill="url(#paint0_linear_102_176)"/>
<path d="M152.425 156.998C152.329 158.285 151.874 159.519 151.708 160.802C151.519 162.214 151.686 163.652 151.593 165.076C151.501 166.499 151.091 167.996 150.007 168.924C156.303 169.469 162.504 170.811 168.462 172.917C166.662 170.699 166.614 167.601 166.658 164.754C166.717 160.543 166.791 156.251 168.166 152.277C164.065 151.36 159.817 151.305 155.693 152.115C154.798 152.292 152.089 152.181 151.686 153.017C151.394 153.63 152.492 156.067 152.425 156.998Z" fill="#A1616A"/>
<path opacity="0.1" d="M152.425 156.998C152.329 158.285 151.874 159.519 151.708 160.802C151.519 162.214 151.686 163.652 151.593 165.076C151.501 166.499 151.091 167.996 150.007 168.924C156.303 169.469 162.504 170.811 168.462 172.917C166.662 170.699 166.614 167.601 166.658 164.754C166.717 160.543 166.791 156.251 168.166 152.277C164.065 151.36 159.817 151.305 155.693 152.115C154.798 152.292 152.089 152.181 151.686 153.017C151.394 153.63 152.492 156.067 152.425 156.998Z" fill="black"/>
<path d="M159.878 310.196C160.1 310.524 160.348 310.834 160.618 311.124C161.034 311.447 161.514 311.677 162.026 311.8L165.9 313.031C167.338 313.49 168.935 314.081 169.545 315.457C170.233 317.009 169.253 318.898 167.804 319.782C166.355 320.665 164.581 320.795 162.884 320.861C153.383 321.227 143.873 320.422 134.569 318.462C134.377 318.434 134.193 318.369 134.026 318.27C133.287 317.771 133.919 316.654 134.558 316.052C137.054 313.686 139.767 311.205 143.165 310.658C144.95 310.366 146.743 310.484 148.518 310.059C149.793 309.752 150.998 309.224 152.27 308.909C154.64 308.329 158.185 308.122 159.878 310.196Z" fill="#46455B"/>
<path opacity="0.1" d="M159.878 310.196C160.1 310.524 160.348 310.834 160.618 311.124C161.034 311.447 161.514 311.677 162.026 311.8L165.9 313.031C167.338 313.49 168.935 314.081 169.545 315.457C170.233 317.009 169.253 318.898 167.804 319.782C166.355 320.665 164.581 320.795 162.884 320.861C153.383 321.227 143.873 320.422 134.569 318.462C134.377 318.434 134.193 318.369 134.026 318.27C133.287 317.771 133.919 316.654 134.558 316.052C137.054 313.686 139.767 311.205 143.165 310.658C144.95 310.366 146.743 310.484 148.518 310.059C149.793 309.752 150.998 309.224 152.27 308.909C154.64 308.329 158.185 308.122 159.878 310.196Z" fill="black"/>
<path d="M140.425 226.58C138.513 231.625 138.396 237.174 140.092 242.296C138.802 242.155 138.244 243.9 138.277 245.201C138.323 247.013 138.598 248.812 139.094 250.555C139.331 251.383 139.619 252.225 139.527 253.076C139.394 254.266 138.551 255.242 138.111 256.355C137.187 258.71 138.137 261.335 138.296 263.86C138.443 266.229 137.878 268.577 137.423 270.906C136.67 274.792 136.225 278.731 136.092 282.688C136.09 284.187 135.992 285.685 135.8 287.172C135.467 289.272 134.691 291.294 134.543 293.412C134.333 296.71 135.726 299.945 135.601 303.25C135.453 307.128 133.22 310.898 134 314.71C134.111 315.246 134.41 315.878 134.961 315.885C140.536 315.956 145.745 314.407 151.26 315.216C151.822 302.455 152.37 289.634 154.883 277.105C157.101 265.952 160.861 254.924 160.51 243.553C160.307 237.05 158.761 230.673 157.822 224.233C151.929 222.924 145.761 223.756 140.425 226.58V226.58Z" fill="#BBBDC8"/>
<path opacity="0.1" d="M140.425 226.58C138.513 231.625 138.396 237.174 140.092 242.296C138.802 242.155 138.244 243.9 138.277 245.201C138.323 247.013 138.598 248.812 139.094 250.555C139.331 251.383 139.619 252.225 139.527 253.076C139.394 254.266 138.551 255.242 138.111 256.355C137.187 258.71 138.137 261.335 138.296 263.86C138.443 266.229 137.878 268.577 137.423 270.906C136.67 274.792 136.225 278.731 136.092 282.688C136.09 284.187 135.992 285.685 135.8 287.172C135.467 289.272 134.691 291.294 134.543 293.412C134.333 296.71 135.726 299.945 135.601 303.25C135.453 307.128 133.22 310.898 134 314.71C134.111 315.246 134.41 315.878 134.961 315.885C140.536 315.956 145.745 314.407 151.26 315.216C151.822 302.455 152.37 289.634 154.883 277.105C157.101 265.952 160.861 254.924 160.51 243.553C160.307 237.05 158.761 230.673 157.822 224.233C151.929 222.924 145.761 223.756 140.425 226.58V226.58Z" fill="black"/>
<path d="M165.053 315.741C165.276 316.069 165.523 316.379 165.793 316.669C166.209 316.992 166.689 317.222 167.201 317.346L171.076 318.577C172.514 319.035 174.111 319.627 174.721 321.002C175.408 322.555 174.429 324.444 172.98 325.327C171.53 326.211 169.756 326.34 168.059 326.407C158.558 326.773 149.048 325.967 139.745 324.007C139.553 323.98 139.368 323.914 139.201 323.815C138.462 323.316 139.094 322.2 139.734 321.597C142.229 319.231 144.943 316.75 148.34 316.203C150.126 315.911 151.919 316.03 153.693 315.604C154.968 315.298 156.174 314.769 157.445 314.455C159.815 313.874 163.36 313.667 165.053 315.741Z" fill="#46455B"/>
<path d="M142.348 226.946C140.921 228.795 140.499 231.235 140.691 233.549C140.884 235.863 141.664 238.085 142.429 240.277C141.412 241.213 141.623 242.824 141.756 244.2C142.24 249.309 140.466 254.407 140.725 259.53C140.832 261.686 141.301 263.811 141.412 265.967C141.534 268.322 141.235 270.677 140.954 273.017C139.159 287.998 138.172 303.064 137.996 318.152C137.996 319.542 137.974 320.954 138.366 322.285C141.054 324.262 144.429 324.529 147.682 323.789C150.935 323.05 153.904 321.401 156.821 319.774C158.419 318.947 159.934 317.97 161.346 316.854C161.778 316.548 162.097 316.109 162.255 315.604C162.566 314.126 160.51 313.457 159.331 312.499C157.616 311.105 157.641 308.525 157.819 306.322L158.891 292.954C159.135 289.926 159.372 286.839 158.684 283.882C158.403 282.684 157.97 281.453 158.229 280.248C158.651 278.288 160.677 277.194 162.055 275.734C164.14 273.516 164.784 270.37 165.264 267.375C167.529 253.169 168.011 238.736 166.699 224.41C163.982 225.353 160.762 224.839 157.897 225.061C155.031 225.283 152.185 226.24 149.283 226.318C146.865 226.373 143.834 225.039 142.348 226.946Z" fill="#BBBDC8"/>
<path d="M161.923 161.009C169.477 161.009 175.601 154.885 175.601 147.331C175.601 139.777 169.477 133.652 161.923 133.652C154.368 133.652 148.244 139.777 148.244 147.331C148.244 154.885 154.368 161.009 161.923 161.009Z" fill="#A1616A"/>
<path d="M169.653 169.83C165.27 167.817 160.699 166.239 156.008 165.12C152.703 164.333 148.928 163.86 146.167 165.837C145.427 166.366 144.758 167.198 144.917 168.092C145.404 168.109 145.87 168.297 146.231 168.625C146.592 168.953 146.825 169.398 146.887 169.882C146.969 170.665 146.584 171.416 146.207 172.1L143.017 178.015C142.405 179.08 141.88 180.193 141.446 181.342C140.802 183.22 140.662 185.231 140.525 187.213L140.155 192.58C139.926 195.963 139.693 199.36 140 202.736C140.229 205.283 140.762 207.841 140.399 210.373C140.107 212.41 139.246 214.322 138.762 216.325C137.852 220.096 138.266 224.229 136.503 227.689C137.219 227.359 138.027 227.286 138.791 227.482C144.144 228.469 148.355 232.695 153.553 234.311C154.865 232.396 156.643 230.983 158.111 229.201C159.203 227.866 159.925 226.267 160.207 224.566C161.316 226.044 162.259 227.198 162.921 228.913C163.038 229.312 163.24 229.681 163.512 229.996C164.211 230.677 165.361 230.414 166.296 230.129C170.881 228.746 175.622 227.943 180.407 227.738C181.176 227.704 181.549 227.335 181.789 226.603C182.03 225.871 181.897 225.079 181.752 224.325C180.832 219.397 179.804 214.462 179.634 209.453C179.531 206.495 179.734 203.497 179.361 200.547C179.176 199.102 178.854 197.678 178.536 196.259L175.897 184.529C175.749 183.874 175.046 183.445 174.747 182.843C173.534 180.388 171.216 178.614 170.019 176.152C169.114 174.163 168.983 171.909 169.653 169.83V169.83Z" fill="#46455B"/>
<path d="M150.462 152.806C150.446 152.614 150.491 152.423 150.591 152.259C150.738 152.105 150.921 151.992 151.124 151.93C151.675 151.668 152.126 151.234 152.408 150.693C152.69 150.152 152.788 149.533 152.687 148.932L153.981 148.662L154.022 144.155C155.944 143.091 158.565 143.896 160.373 142.643C161.39 141.933 161.911 140.728 162.532 139.656C163.153 138.584 164.077 137.505 165.312 137.416C164.888 138.496 164.706 139.656 164.779 140.814C164.853 141.973 165.18 143.101 165.737 144.118C167.032 143.463 168.113 142.453 168.854 141.205L169.497 144.902C169.51 145.13 169.608 145.345 169.771 145.505C170.107 145.752 170.562 145.442 170.857 145.135L172.532 143.49C173.237 145.258 173.72 147.107 173.97 148.994C176.721 146.325 177.575 142.037 176.517 138.355C175.46 134.673 172.691 131.623 169.357 129.741C166.022 127.86 162.155 127.068 158.329 126.928C157.044 126.853 155.756 126.936 154.491 127.176C153.135 127.517 151.823 128.013 150.58 128.654C148.669 129.553 146.739 130.54 145.312 132.092C142.828 134.799 142.27 138.776 142.543 142.444C142.913 147.25 144.473 151.889 146.288 156.355C146.891 157.834 147.534 159.331 148.528 160.591C150.026 162.488 153.704 160.913 153.235 157.165C152.909 154.488 150.462 155.519 150.462 152.806Z" fill="#3F3D56"/>
<path d="M155.638 226.037C151.024 235.464 143.94 243.462 135.139 249.179C132.481 250.898 129.594 252.429 126.484 252.932C126.059 253.002 125.634 253.05 125.202 253.079C123.598 253.212 121.987 252.939 120.518 252.285C119.545 251.795 118.644 251.173 117.841 250.436C114.964 247.918 112.678 244.797 111.146 241.294C110.246 239.096 109.498 236.838 108.91 234.536C108.003 231.317 107.098 228.097 106.196 224.876C105.313 221.726 104.422 218.54 104.237 215.264C103.937 209.945 105.534 204.677 107.778 199.845C108.161 199.101 108.469 198.32 108.699 197.516C108.699 197.46 108.725 197.405 108.736 197.346C109.002 196.07 108.865 194.736 109.106 193.449C109.557 190.861 111.464 188.717 113.704 187.353C115.945 185.989 118.51 185.29 121.057 184.61L125.024 183.542L127.486 182.88L137.501 180.185C138.887 179.815 140.289 179.323 141.697 179.076C143.268 178.78 143.257 178.935 143.379 180.473C143.605 183.261 143.531 186 144.118 188.762C144.677 191.397 145.66 193.937 146.399 196.525C148.266 203.057 148.577 209.933 150.048 216.569C150.385 218.081 150.85 219.693 152.067 220.636C153.46 221.745 155.808 222.018 156.178 223.756C156.314 224.529 155.971 225.32 155.638 226.037Z" fill="#7CE7D7"/>
<path opacity="0.1" d="M126.484 252.917C126.059 252.987 125.634 253.035 125.202 253.065C123.6 253.202 121.989 252.934 120.518 252.285C119.545 251.795 118.644 251.173 117.841 250.436C114.964 247.918 112.678 244.797 111.146 241.294C110.246 239.096 109.498 236.838 108.91 234.536C108.003 231.317 107.098 228.097 106.196 224.876C105.313 221.726 104.422 218.54 104.237 215.264C103.937 209.945 105.534 204.677 107.778 199.845C108.161 199.101 108.469 198.32 108.699 197.516C108.699 197.46 108.725 197.405 108.736 197.346C114.769 198.407 122.008 209.948 125.741 225.072C128.492 236.381 128.61 246.795 126.484 252.917Z" fill="black"/>
<path opacity="0.1" d="M137.39 213.124L136.381 213.298C135.342 210.569 134.307 207.837 133.091 205.183C132.459 203.797 131.775 202.429 131.242 200.998C129.246 195.505 129.586 188.987 125.886 184.462C125.621 184.126 125.32 183.821 124.987 183.553L127.449 182.891C129.605 186.3 131.126 190.071 131.937 194.022C132.337 195.952 132.562 197.926 133.213 199.782C133.766 201.19 134.399 202.565 135.109 203.9C136.514 206.78 137.571 209.926 137.39 213.124Z" fill="black"/>
<path d="M147.216 171.471C149.875 169.194 153.501 167.945 156.943 168.514C158.969 168.843 160.85 169.756 162.666 170.732C166.204 172.61 169.69 174.773 172.24 177.86C173.77 179.806 175.04 181.944 176.019 184.218C176.499 185.212 176.87 186.254 177.128 187.327C178.03 191.505 175.815 195.656 173.682 199.36L169.579 206.481C167.693 209.752 165.793 213.046 163.338 215.919C162.207 217.242 160.965 218.466 159.727 219.689L154.289 225.057C154.191 225.173 154.063 225.258 153.919 225.305C153.8 225.311 153.681 225.292 153.571 225.248C153.461 225.204 153.361 225.136 153.279 225.05L151.483 223.619C153.138 222.476 154.675 221.172 156.074 219.726C158.425 217.294 160.359 214.495 162.281 211.708L168.263 203.035C170.011 200.495 171.838 197.701 171.642 194.625C171.549 193.146 170.995 191.756 170.414 190.399C169.387 187.986 168.27 185.612 167.065 183.275C165.712 180.654 164.233 178.067 162.285 175.852C160.337 173.638 157.875 171.786 155.039 170.983C154.193 170.707 153.297 170.621 152.414 170.732C150.47 171.054 149.087 172.725 147.856 174.277L144.107 179.083C143.253 180.174 142.47 181.438 142.418 179.368C142.329 176.414 145.316 173.372 147.216 171.471Z" fill="#7CE7D7"/>
<path d="M148.377 203.893C149.117 206.739 150.207 209.97 152.947 211.05C154.887 211.815 157.161 211.194 158.839 209.941C160.518 208.688 161.708 206.921 162.802 205.135C163.729 203.53 164.75 201.982 165.86 200.499C168.052 197.749 171.035 195.567 172.514 192.366C172.95 191.412 173.253 190.392 173.749 189.475C174.278 188.63 174.877 187.83 175.538 187.083C177.24 184.974 178.601 182.612 179.571 180.081C179.911 179.198 180.204 178.251 180.07 177.316C179.808 175.516 178.104 174.333 176.518 173.449C175.553 172.913 174.544 172.392 173.446 172.311C171.841 172.185 170.263 173.05 169.276 174.318C168.325 175.629 167.794 177.198 167.753 178.817C167.642 180.787 168.026 182.835 167.383 184.699C167.043 185.568 166.573 186.381 165.989 187.109C163.913 189.887 161.342 192.26 158.407 194.107C158.326 192.709 158.023 191.332 157.509 190.03C157.228 189.312 151.719 190.03 151.002 190.148C149.582 190.355 146.832 190.518 145.937 191.871C145.043 193.224 146.152 195.497 146.514 196.861L148.377 203.893Z" fill="#A1616A"/>
<path d="M148.244 172.828C147.425 173.504 146.664 174.246 145.967 175.046C144.325 177.024 143.523 179.597 143.316 182.159C143.109 184.721 143.46 187.294 143.9 189.826C144.299 192.099 144.771 194.355 145.316 196.595C145.467 194.906 146.835 193.508 148.421 192.898C150.007 192.288 151.748 192.355 153.438 192.603C155.612 192.925 157.734 193.538 159.745 194.425L160.525 183.494C160.689 182.019 160.68 180.53 160.499 179.057C160.253 177.691 159.719 176.392 158.933 175.248C158.146 174.104 157.125 173.14 155.937 172.421C152.972 170.617 150.906 170.503 148.244 172.828Z" fill="#46455B"/>
<path d="M287.904 226.022C287.553 223.056 286.69 220.172 285.353 217.501C284.536 215.874 283.541 214.318 283.028 212.577C282.61 211.161 282.528 209.671 282.196 208.233C281.863 206.795 281.275 205.42 280.802 204.015C277.456 194.033 279.97 183.113 278.891 172.651C278.488 168.791 277.305 164.558 273.959 162.547C271.97 161.353 269.582 161.168 267.242 161.068L266.174 161.02L264.458 160.935C261.974 160.813 259.482 160.721 257.065 161.242C254.107 161.889 250.602 163.97 249.671 166.991C249.161 166.728 248.647 166.495 248.174 166.277C246.269 165.432 244.273 164.812 242.225 164.429C243.982 163.986 245.678 163.331 247.275 162.477C250.972 160.325 251.83 154.041 252.584 149.837C253.338 145.634 252.65 141.29 251.397 137.205C250.983 135.756 250.42 134.353 249.715 133.02C248.742 131.265 247.417 129.729 245.824 128.508C244.231 127.288 242.403 126.409 240.454 125.927C238.506 125.444 236.479 125.369 234.5 125.706C232.521 126.042 230.633 126.783 228.954 127.882C225.504 130.14 222.299 133.427 219.667 136.603C219.297 137.039 217.752 138.584 218.266 139.235C218.554 139.604 219.504 139.309 220.503 138.865C219.735 140.6 219.339 142.476 219.342 144.373C219.344 146.756 219.967 149.097 221.148 151.166C222.33 153.235 224.03 154.961 226.081 156.174L226.451 159.575V159.601C226.491 160.736 226.51 161.871 226.525 163.002C226.525 163.797 226.525 164.61 226.503 165.423C224.969 167.159 223.09 168.556 220.987 169.527C222.724 169.815 224.381 169.408 225.992 168.713C225.73 169.622 225.291 170.468 224.699 171.205C225.142 171.05 225.586 170.909 226.029 170.762C225.798 171.134 225.591 171.522 225.412 171.922C225.139 172.555 224.939 173.218 224.817 173.896C223.876 175.272 223.06 176.729 222.381 178.251V178.251C222.07 178.943 221.793 179.645 221.541 180.359V180.407C221.295 181.116 221.077 181.836 220.887 182.566C220.798 182.916 220.717 183.267 220.643 183.619C220.643 183.645 220.643 183.671 220.643 183.697C220.495 184.41 220.373 185.128 220.273 185.852C220.273 185.9 220.273 185.948 220.273 186C220.233 186.336 220.196 186.677 220.17 187.017C220.17 187.017 220.17 187.05 220.17 187.068C220.14 187.438 220.118 187.789 220.107 188.152C220.107 188.2 220.107 188.244 220.107 188.292C220.107 188.599 220.107 188.909 220.107 189.216V189.427C220.107 190.122 220.151 190.821 220.218 191.519C220.218 191.604 220.218 191.693 220.244 191.778C220.273 192.063 220.307 192.347 220.347 192.636C220.347 192.702 220.347 192.769 220.373 192.832C220.421 193.176 220.477 193.516 220.54 193.856C220.54 193.93 220.573 194.007 220.588 194.081C220.639 194.355 220.695 194.625 220.758 194.898L220.824 195.179C220.906 195.519 220.991 195.856 221.087 196.196C221.142 196.388 221.198 196.566 221.257 196.769C221.433 197.47 221.557 198.183 221.626 198.902L219.604 198.969C215.276 199.092 210.952 199.288 206.632 199.556C206.092 197.475 204.251 196.274 201.933 195.989C201.565 195.945 201.195 195.922 200.824 195.922V195.922C201.224 195.586 201.579 195.199 201.882 194.773C202.284 194.219 202.57 193.591 202.724 192.924C202.129 193.263 201.608 193.72 201.194 194.266C201.057 194.451 200.935 194.636 200.824 194.806V193.697C200.825 193.673 200.82 193.65 200.812 193.628C200.803 193.607 200.79 193.587 200.773 193.57C200.757 193.554 200.737 193.541 200.715 193.532C200.694 193.523 200.67 193.519 200.647 193.519H200.277C200.254 193.519 200.23 193.523 200.209 193.532C200.187 193.541 200.167 193.554 200.15 193.57C200.134 193.587 200.121 193.607 200.112 193.628C200.103 193.65 200.099 193.673 200.1 193.697V195.956H200.026H199.9C199.656 195.978 199.419 196.007 199.187 196.052C196.669 196.521 194.824 198.137 194.824 200.858C194.825 201.714 195.012 202.561 195.372 203.338C195.732 204.116 196.256 204.806 196.909 205.36C197.018 206.208 197.21 207.042 197.482 207.852C197.737 208.654 198.07 209.527 198.817 209.926C199.273 210.133 199.773 210.224 200.273 210.192C204.384 210.192 208.273 208.296 212.366 207.974C214.894 207.771 217.434 208.163 219.97 208.085C220.34 208.085 220.71 208.048 221.079 208.018C217.612 225.19 213.416 242.58 215.608 259.926C215.752 261.079 215.978 262.329 216.839 263.113C217.981 264.155 219.741 263.985 221.275 263.852C225.485 263.468 229.73 263.807 233.826 264.854C234.402 265.013 235.007 265.035 235.593 264.917C235.718 264.888 235.842 264.853 235.963 264.81L236.066 264.769C236.144 264.739 236.218 264.71 236.288 264.677L236.395 264.621L236.577 264.51C236.606 264.488 236.639 264.469 236.665 264.447C236.73 264.403 236.79 264.354 236.846 264.299L236.898 264.255C236.967 264.187 237.033 264.116 237.094 264.041L237.138 263.974C237.181 263.919 237.221 263.861 237.257 263.8C237.275 263.771 237.294 263.741 237.309 263.712C237.323 263.682 237.368 263.601 237.394 263.545C237.419 263.49 237.423 263.479 237.434 263.445C237.445 263.412 237.482 263.323 237.504 263.261C237.527 263.198 237.504 263.201 237.534 263.168C237.564 263.135 237.586 262.983 237.604 262.891V262.832C237.604 262.754 237.634 262.673 237.645 262.595C237.656 262.518 237.645 262.514 237.645 262.473C237.645 262.433 237.645 262.351 237.645 262.292V262.159C237.645 262.1 237.645 262.041 237.645 261.982V261.652C237.645 261.616 237.645 261.575 237.645 261.534C237.645 261.205 237.608 260.872 237.575 260.555C237.839 260.631 238.108 260.689 238.381 260.728V260.728C238.635 260.769 238.892 260.787 239.15 260.784H239.187C239.309 260.784 239.431 260.784 239.556 260.754C239.663 260.738 239.769 260.715 239.874 260.688H239.922C240.019 260.659 240.113 260.622 240.203 260.577L240.248 260.551C240.324 260.508 240.397 260.459 240.466 260.403L240.499 260.377C240.568 260.313 240.63 260.241 240.684 260.163L240.717 260.107C240.772 260.018 240.815 259.922 240.846 259.823C241.057 259.109 240.577 258.303 241.345 257.649C242.085 260.018 242.824 262.392 242.946 264.843C242.987 265.738 242.946 266.691 243.471 267.431C243.813 267.834 244.183 268.212 244.58 268.562C245.711 269.786 245.737 271.63 245.66 273.287C245.626 273.956 245.589 274.625 245.541 275.294C244.931 284.223 243.115 293.029 240.144 301.471C239.854 302.37 239.475 303.237 239.013 304.059C238.262 305.223 237.324 306.255 236.236 307.113C234.695 308.422 233.044 309.595 231.301 310.621C230.411 311.092 229.57 311.65 228.791 312.288C228.761 312.203 228.728 312.122 228.706 312.033C228.665 311.863 228.61 311.664 228.443 311.601C228.317 311.572 228.185 311.593 228.074 311.66C226.34 312.421 224.606 313.183 222.939 314.074C222.097 314.457 221.356 315.031 220.772 315.749C220.24 316.488 220.081 317.597 220.632 318.336C221.116 318.983 221.985 319.198 222.787 319.342C223.815 319.523 224.846 319.652 225.878 319.749C225.348 320.059 224.884 320.471 224.514 320.961C223.981 321.701 223.822 322.81 224.373 323.549C224.857 324.196 225.726 324.41 226.528 324.555C233.083 325.712 239.804 324.924 246.458 324.728C248.621 324.658 250.832 324.643 252.88 323.941C253.284 323.821 253.66 323.624 253.989 323.36C254.92 322.54 254.828 321.098 254.665 319.874L253.989 314.876C253.889 314.876 253.793 314.909 253.697 314.932C254.263 310.236 255.28 305.606 256.732 301.105C258.987 294.1 262.344 287.198 262.299 279.867C262.299 279.689 262.299 279.497 262.299 279.335C262.236 277.039 261.826 274.769 261.56 272.484C261.142 268.662 261.19 264.806 261.216 260.965C261.184 259.459 261.289 257.953 261.53 256.466C261.53 256.414 261.553 256.366 261.564 256.314L267.704 256.152C268.384 256.186 269.063 256.059 269.686 255.782C269.98 255.653 270.216 255.419 270.348 255.126C270.481 254.834 270.5 254.502 270.403 254.196C273.02 255.383 276.521 253.767 277.294 251.017C277.347 250.823 277.391 250.627 277.423 250.429C277.421 250.414 277.421 250.399 277.423 250.384C277.449 250.2 277.467 250.015 277.475 249.834C277.475 249.804 277.475 249.771 277.475 249.741C277.513 248.471 277.316 247.206 276.894 246.007C275.638 242.447 273.641 239.205 271.763 235.926C270.795 234.229 269.856 232.51 268.943 230.784L269.745 231.815C270.026 232.236 270.396 232.59 270.828 232.854C272.325 233.627 273.893 232.07 275.416 231.353C277.438 230.399 279.804 230.961 282.037 231.12C284.27 231.279 286.961 230.702 287.76 228.632C288.018 227.787 288.068 226.891 287.904 226.022V226.022ZM249.408 170.462C249.408 171.253 249.46 172.055 249.523 172.861C248.773 171.635 247.906 170.484 246.935 169.423L249.408 170.462Z" fill="url(#paint1_linear_102_176)"/>
<path d="M201.109 194.932C201.518 194.39 202.033 193.936 202.621 193.597C202.471 194.263 202.188 194.892 201.789 195.445C201.146 196.322 200.469 196.924 200.281 196.78C200.092 196.636 200.458 195.808 201.109 194.932Z" fill="#99D55C"/>
<path opacity="0.1" d="M201.19 194.998C201.489 194.595 201.866 194.257 202.299 194.004C202.187 194.496 201.977 194.961 201.682 195.372C201.201 196.022 200.698 196.481 200.573 196.366C200.447 196.251 200.71 195.649 201.19 194.998Z" fill="black"/>
<path d="M200.211 194.196H200.581C200.604 194.196 200.627 194.201 200.649 194.209C200.67 194.218 200.69 194.231 200.706 194.248C200.723 194.264 200.736 194.284 200.745 194.305C200.753 194.327 200.758 194.35 200.758 194.373V198.562H200.056V194.373C200.055 194.33 200.071 194.288 200.1 194.255C200.128 194.222 200.168 194.201 200.211 194.196V194.196Z" fill="#F6987E"/>
<path d="M206.654 201.519C206.654 203.088 206.031 204.593 204.922 205.702C203.812 206.811 202.308 207.434 200.739 207.434C199.17 207.434 197.666 206.811 196.557 205.702C195.447 204.593 194.824 203.088 194.824 201.519C194.824 198.81 196.647 197.205 199.135 196.736C199.664 196.638 200.201 196.59 200.739 196.592C201.11 196.591 201.48 196.613 201.848 196.658C204.584 196.998 206.654 198.632 206.654 201.519Z" fill="#FC4A4A"/>
<path opacity="0.1" d="M201.848 196.658C201.741 196.861 201.161 197.028 200.458 197.028C200 197.061 199.541 196.965 199.135 196.75C199.664 196.653 200.201 196.605 200.739 196.606C201.11 196.601 201.48 196.618 201.848 196.658Z" fill="black"/>
<path opacity="0.1" d="M201.726 207.294C200.157 207.294 198.653 206.671 197.544 205.561C196.434 204.452 195.811 202.948 195.811 201.379C195.811 198.717 197.567 197.124 199.985 196.625C199.7 196.646 199.416 196.683 199.135 196.736C196.647 197.205 194.824 198.81 194.824 201.519C194.824 203.088 195.447 204.593 196.557 205.702C197.666 206.811 199.17 207.434 200.739 207.434C201.186 207.435 201.631 207.384 202.066 207.283C201.952 207.29 201.848 207.294 201.726 207.294Z" fill="black"/>
<path d="M227.8 316.776C228.617 317.516 229.867 317.497 230.976 317.416L236.03 317.046C240.044 316.75 244.196 316.418 247.738 314.506C248.112 314.335 248.444 314.083 248.71 313.767C248.991 313.284 249.138 312.733 249.135 312.174C249.613 306.698 250.702 301.293 252.381 296.059C254.599 289.091 257.926 282.222 257.882 274.928C257.882 274.75 257.882 274.558 257.882 274.399C257.819 272.115 257.416 269.856 257.168 267.582C256.758 263.778 256.799 259.945 256.828 256.122C256.796 254.623 256.9 253.125 257.139 251.645C257.372 250.444 258.248 249.238 257.712 248.181C256.673 246.129 252.906 245.375 250.88 245.301C248.152 245.205 245.468 245.919 242.832 246.628C242.03 246.847 241.19 247.079 240.584 247.645C239.771 248.407 239.538 249.601 239.508 250.714C239.368 255.649 242.211 260.24 242.436 265.168C242.477 266.055 242.436 267.017 242.954 267.756C243.295 268.159 243.666 268.536 244.063 268.884C245.172 270.1 245.205 271.933 245.128 273.582C245.094 274.248 245.057 274.913 245.013 275.579C244.409 284.46 242.615 293.22 239.678 301.623C239.395 302.52 239.024 303.387 238.569 304.211C237.828 305.367 236.901 306.394 235.826 307.25C234.304 308.55 232.672 309.718 230.95 310.739C229.8 311.42 228.573 312.07 227.786 313.15C226.998 314.229 226.824 315.867 227.8 316.776Z" fill="#FDA8A8"/>
<path opacity="0.1" d="M227.8 316.776C228.617 317.516 229.867 317.497 230.976 317.416L236.03 317.046C240.044 316.75 244.196 316.418 247.738 314.506C248.112 314.335 248.444 314.083 248.71 313.767C248.991 313.284 249.138 312.733 249.135 312.174C249.613 306.698 250.702 301.293 252.381 296.059C254.599 289.091 257.926 282.222 257.882 274.928C257.882 274.75 257.882 274.558 257.882 274.399C257.819 272.115 257.416 269.856 257.168 267.582C256.758 263.778 256.799 259.945 256.828 256.122C256.796 254.623 256.9 253.125 257.139 251.645C257.372 250.444 258.248 249.238 257.712 248.181C256.673 246.129 252.906 245.375 250.88 245.301C248.152 245.205 245.468 245.919 242.832 246.628C242.03 246.847 241.19 247.079 240.584 247.645C239.771 248.407 239.538 249.601 239.508 250.714C239.368 255.649 242.211 260.24 242.436 265.168C242.477 266.055 242.436 267.017 242.954 267.756C243.295 268.159 243.666 268.536 244.063 268.884C245.172 270.1 245.205 271.933 245.128 273.582C245.094 274.248 245.057 274.913 245.013 275.579C244.409 284.46 242.615 293.22 239.678 301.623C239.395 302.52 239.024 303.387 238.569 304.211C237.828 305.367 236.901 306.394 235.826 307.25C234.304 308.55 232.672 309.718 230.95 310.739C229.8 311.42 228.573 312.07 227.786 313.15C226.998 314.229 226.824 315.867 227.8 316.776Z" fill="black"/>
<path d="M227.8 316.776C228.617 317.516 229.867 317.497 230.976 317.416L236.03 317.046C240.044 316.75 244.196 316.418 247.738 314.506C248.112 314.335 248.444 314.083 248.71 313.767C248.991 313.284 249.138 312.733 249.135 312.174C249.613 306.698 250.702 301.293 252.381 296.059C254.599 289.091 257.926 282.222 257.882 274.928C253.609 275.4 249.311 275.613 245.013 275.564C244.409 284.445 242.615 293.205 239.678 301.608C239.395 302.505 239.024 303.372 238.569 304.196C237.828 305.352 236.901 306.379 235.826 307.235C234.304 308.535 232.672 309.703 230.95 310.725C229.8 311.405 228.573 312.055 227.786 313.135C226.998 314.214 226.824 315.867 227.8 316.776Z" fill="#EEEFF3"/>
<path opacity="0.1" d="M227.8 316.776C228.617 317.516 229.867 317.497 230.976 317.416L236.03 317.046C240.044 316.75 244.196 316.418 247.738 314.506C248.112 314.335 248.444 314.083 248.71 313.767C248.991 313.284 249.138 312.733 249.135 312.174C249.613 306.698 250.702 301.293 252.381 296.059C254.599 289.091 257.926 282.222 257.882 274.928C253.609 275.4 249.311 275.613 245.013 275.564C244.409 284.445 242.615 293.205 239.678 301.608C239.395 302.505 239.024 303.372 238.569 304.196C237.828 305.352 236.901 306.379 235.826 307.235C234.304 308.535 232.672 309.703 230.95 310.725C229.8 311.405 228.573 312.055 227.786 313.135C226.998 314.214 226.824 315.867 227.8 316.776Z" fill="black"/>
<path d="M238.965 315.216C240.179 314.781 241.346 314.224 242.447 313.553L248.019 310.41C248.522 310.084 249.083 309.857 249.671 309.741L250.337 314.713C250.503 315.933 250.592 317.368 249.671 318.185C249.342 318.447 248.966 318.643 248.562 318.762C246.54 319.46 244.359 319.475 242.218 319.542C235.645 319.752 229.006 320.521 222.529 319.368C221.738 319.227 220.88 318.998 220.403 318.37C219.86 317.63 220.015 316.558 220.54 315.808C221.115 315.094 221.848 314.524 222.68 314.14C224.329 313.253 226.041 312.499 227.752 311.741C227.858 311.679 227.983 311.658 228.104 311.682C228.27 311.738 228.322 311.941 228.366 312.111C228.666 313.323 229.642 314.281 230.754 314.854C230.769 314.854 236.503 316 238.965 315.216Z" fill="#BBBDC8"/>
<path opacity="0.1" d="M238.965 315.216C240.179 314.781 241.346 314.224 242.447 313.553L248.019 310.41C248.522 310.084 249.083 309.857 249.671 309.741L250.337 314.713C250.503 315.933 250.592 317.368 249.671 318.185C249.342 318.447 248.966 318.643 248.562 318.762C246.54 319.46 244.359 319.475 242.218 319.542C235.645 319.752 229.006 320.521 222.529 319.368C221.738 319.227 220.88 318.998 220.403 318.37C219.86 317.63 220.015 316.558 220.54 315.808C221.115 315.094 221.848 314.524 222.68 314.14C224.329 313.253 226.041 312.499 227.752 311.741C227.858 311.679 227.983 311.658 228.104 311.682C228.27 311.738 228.322 311.941 228.366 312.111C228.666 313.323 229.642 314.281 230.754 314.854C230.769 314.854 236.503 316 238.965 315.216Z" fill="black"/>
<path d="M231.497 321.952C232.314 322.691 233.564 322.673 234.673 322.592L239.726 322.222C243.741 321.926 247.893 321.593 251.434 319.682C251.809 319.511 252.141 319.258 252.407 318.943C252.688 318.459 252.835 317.909 252.832 317.349C253.31 311.874 254.399 306.469 256.078 301.235C258.296 294.266 261.623 287.397 261.578 280.104C261.578 279.926 261.578 279.734 261.578 279.575C261.516 277.29 261.113 275.031 260.865 272.758C260.455 268.954 260.495 265.12 260.525 261.298C260.493 259.799 260.597 258.301 260.835 256.821C261.068 255.619 261.944 254.414 261.408 253.357C260.37 251.305 256.603 250.551 254.577 250.477C251.848 250.381 249.164 251.094 246.529 251.804C245.726 252.022 244.887 252.255 244.281 252.821C243.468 253.582 243.235 254.776 243.205 255.889C243.065 260.824 245.908 265.416 246.133 270.344C246.174 271.231 246.133 272.192 246.651 272.932C246.992 273.334 247.363 273.711 247.76 274.059C248.869 275.275 248.902 277.109 248.824 278.758C248.791 279.423 248.754 280.089 248.71 280.754C248.106 289.635 246.312 298.395 243.375 306.799C243.092 307.696 242.721 308.563 242.266 309.386C241.524 310.543 240.598 311.569 239.523 312.425C238 313.726 236.369 314.893 234.647 315.915C233.497 316.595 232.27 317.246 231.482 318.325C230.695 319.405 230.521 321.043 231.497 321.952Z" fill="#FDA8A8"/>
<path d="M231.497 321.952C232.314 322.691 233.564 322.673 234.673 322.591L239.726 322.222C243.741 321.926 247.893 321.593 251.434 319.682C251.809 319.511 252.141 319.258 252.407 318.943C252.688 318.459 252.835 317.909 252.832 317.349C253.31 311.874 254.399 306.469 256.078 301.235C258.296 294.266 261.623 287.397 261.578 280.104C257.306 280.576 253.008 280.788 248.71 280.739C248.106 289.621 246.312 298.38 243.375 306.784C243.092 307.681 242.721 308.548 242.266 309.372C241.524 310.528 240.598 311.554 239.523 312.41C238 313.711 236.369 314.878 234.647 315.9C233.497 316.58 232.27 317.231 231.482 318.311C230.695 319.39 230.521 321.042 231.497 321.952Z" fill="#EEEFF3"/>
<path d="M242.662 320.392C243.876 319.957 245.043 319.399 246.144 318.728L251.715 315.586C252.219 315.26 252.78 315.033 253.368 314.917L254.033 319.889C254.2 321.109 254.288 322.543 253.368 323.36C253.039 323.623 252.662 323.819 252.259 323.937C250.237 324.636 248.056 324.651 245.915 324.717C239.342 324.928 232.702 325.697 226.226 324.543C225.434 324.403 224.577 324.174 224.1 323.545C223.556 322.806 223.712 321.734 224.237 320.983C224.812 320.27 225.545 319.699 226.377 319.316C228.026 318.429 229.738 317.675 231.449 316.917C231.555 316.854 231.68 316.833 231.8 316.858C231.967 316.913 232.019 317.116 232.063 317.286C232.362 318.499 233.338 319.457 234.451 320.03C234.466 320.03 240.2 321.176 242.662 320.392Z" fill="#BBBDC8"/>
<path d="M224.329 171.993C226.129 169.774 226.178 166.677 226.133 163.83C226.133 162.721 226.1 161.575 226.059 160.447V160.421C226.009 158.349 225.79 156.284 225.405 154.248V154.248C225.21 153.27 224.951 152.307 224.629 151.364C224.873 151.309 225.117 151.257 225.368 151.213C229.243 150.447 233.23 150.447 237.105 151.213C237.775 151.346 239.468 151.316 240.433 151.645C240.707 151.711 240.947 151.879 241.102 152.115C241.29 152.51 240.902 153.656 240.621 154.673C240.467 155.131 240.38 155.609 240.362 156.092C240.4 156.546 240.469 156.997 240.569 157.442C240.743 158.259 240.972 159.068 241.08 159.896C241.268 161.309 241.102 162.747 241.194 164.17C241.287 165.593 241.697 167.091 242.78 168.018C236.487 168.558 230.287 169.893 224.329 171.993V171.993Z" fill="#FDA8A8"/>
<path opacity="0.1" d="M242.044 157.279C241.553 157.32 241.065 157.368 240.566 157.423C235.641 157.949 230.782 158.965 226.059 160.455V160.429L225.405 154.255C225.405 153.885 225.405 153.516 225.405 153.128C225.405 152.495 225.386 151.856 225.372 151.22C229.247 150.455 233.234 150.455 237.109 151.22C237.778 151.353 239.471 151.323 240.436 151.653C240.436 152.255 240.436 152.858 240.458 153.46C240.483 153.871 240.538 154.278 240.625 154.68V154.68C240.802 155.678 241.3 156.591 242.044 157.279V157.279Z" fill="black"/>
<path d="M232.717 158.976C240.272 158.976 246.396 152.852 246.396 145.298C246.396 137.743 240.272 131.619 232.717 131.619C225.163 131.619 219.039 137.743 219.039 145.298C219.039 152.852 225.163 158.976 232.717 158.976Z" fill="#FDA8A8"/>
<path d="M220.702 196.872C218.273 188.277 220.491 179.046 226.292 172.259C227.582 170.747 228.88 169.194 230.573 168.288C232.588 167.216 234.972 167.179 237.253 167.157C239.268 167.157 241.345 167.157 243.198 167.959C245.7 169.028 247.427 171.349 248.883 173.652C250.436 176.107 251.841 178.765 252.077 181.664C252.203 183.383 251.9 185.128 252.155 186.839C252.48 189.009 253.689 190.954 254.185 193.091C254.454 194.244 254.51 195.438 254.684 196.614C254.945 198.222 255.326 199.808 255.822 201.36C259.495 213.557 264.525 225.302 270.817 236.377C272.665 239.641 274.643 242.869 275.885 246.407C276.447 248.007 276.854 249.734 276.395 251.383C275.63 254.118 272.174 255.726 269.589 254.547C269.685 254.851 269.666 255.179 269.535 255.47C269.404 255.76 269.171 255.992 268.88 256.122C268.265 256.399 267.594 256.526 266.92 256.492L244.088 257.098C243.489 257.113 242.893 257.194 242.31 257.338C239.626 258.026 240.636 259.187 240.347 260.155C239.996 261.338 238.299 261.242 237.116 260.895C237.297 262.621 237.338 264.732 235.109 265.235C234.531 265.352 233.933 265.332 233.364 265.176C229.319 264.134 225.124 263.796 220.965 264.177C219.442 264.318 217.7 264.488 216.573 263.438C215.723 262.658 215.501 261.416 215.357 260.27C213.083 242.155 217.759 224.015 221.271 206.118C221.745 203.704 221.575 199.793 220.865 197.434L220.702 196.872Z" fill="#F75842"/>
<path d="M251.017 184.388C251.553 185.933 252.222 187.453 252.403 189.079C252.547 190.381 252.373 191.697 252.451 193.002C252.593 194.451 252.891 195.88 253.342 197.264C254.054 199.957 254.931 202.603 255.97 205.187C256.466 206.351 257.039 207.634 256.64 208.835C256.24 210.037 255.002 210.78 254.647 211.974C254.277 213.235 255.017 214.562 255.959 215.482C256.902 216.403 258.081 217.057 258.954 218.037C259.904 219.105 260.432 220.469 261.102 221.734C262.052 223.406 263.141 224.995 264.359 226.484L268.828 232.285C269.107 232.703 269.472 233.056 269.9 233.32C271.379 234.089 272.928 232.54 274.432 231.841C276.429 230.891 278.765 231.449 280.972 231.608C283.179 231.767 285.837 231.194 286.625 229.131C286.885 228.294 286.94 227.406 286.784 226.543C286.438 223.594 285.585 220.726 284.262 218.067C283.456 216.447 282.473 214.898 281.967 213.164C281.553 211.756 281.471 210.274 281.142 208.843C280.813 207.412 280.233 206.044 279.767 204.647C276.462 194.717 278.946 183.852 277.878 173.442C277.482 169.601 276.31 165.39 273.005 163.39C271.042 162.203 268.684 162.018 266.351 161.911L265.298 161.863L263.601 161.778C261.146 161.656 258.684 161.564 256.292 162.085C252.928 162.824 248.88 165.438 248.747 169.194C248.602 174.353 249.37 179.497 251.017 184.388Z" fill="#7CE7D7"/>
<path opacity="0.1" d="M263.619 161.763C264.073 164.279 264.299 166.83 264.296 169.386C264.362 176.684 265.15 183.952 265.941 191.198L266.462 196.004C266.558 196.891 266.673 197.823 267.201 198.536C267.73 199.25 268.839 199.623 269.538 199.072C269.967 197.375 269.882 195.593 269.797 193.845C269.612 190.126 269.428 186.405 269.246 182.684C269.068 179.061 268.876 175.434 268.436 171.834C268.091 169.045 267.582 166.278 266.913 163.549C266.786 162.984 266.609 162.431 266.384 161.896L265.331 161.848L263.619 161.763Z" fill="black"/>
<path d="M239.464 164.891C237.198 164.566 234.824 164.399 232.673 165.187C230.617 165.945 228.976 167.501 227.497 169.139C226.489 170.194 225.655 171.403 225.028 172.721C223.767 175.619 224.259 178.961 225.028 182.03C227.124 190.481 231.287 198.632 237.967 204.211C240 205.863 242.165 207.347 244.44 208.647C247.398 210.381 250.451 211.974 253.723 212.976C254.636 213.257 255.608 213.494 256.544 213.294C257.479 213.094 258.362 212.336 258.392 211.379C253.032 208.366 248.226 204.473 243.453 200.599C242.145 199.59 240.92 198.477 239.789 197.272C238.096 195.368 236.902 193.068 235.261 191.12C233.782 189.372 231.934 187.897 230.824 185.897C230.128 184.531 229.663 183.059 229.446 181.542C228.898 178.447 228.795 175.161 230.022 172.266C231.25 169.372 234.063 166.994 237.205 167.046C238.817 167.072 240.351 167.712 241.837 168.336L251.19 172.285C251.076 172.233 251.727 170.61 251.697 170.384C251.608 169.678 251.483 169.667 250.958 169.131C250.063 168.237 248.673 167.608 247.538 167.087C244.966 165.972 242.247 165.232 239.464 164.891V164.891Z" fill="#7CE7D7"/>
<path d="M220.847 142.71C223.515 142.117 225.985 140.843 228.015 139.013L226.059 149.275C228.007 148.381 229.897 147.364 231.715 146.229C231.978 150.924 231.597 155.726 229.867 160.096C228.137 164.466 224.946 168.377 220.666 170.318C224.466 170.954 227.878 168.226 231.261 166.381C233.619 165.098 237.649 166.418 240.229 165.641C242.418 164.998 244.665 164.436 246.64 163.287C250.307 161.146 251.139 154.895 251.882 150.717C252.625 146.54 251.948 142.214 250.714 138.148C250.303 136.708 249.746 135.313 249.054 133.985C248.101 132.242 246.798 130.714 245.225 129.5C243.653 128.286 241.845 127.411 239.917 126.931C237.99 126.451 235.983 126.376 234.025 126.711C232.066 127.045 230.199 127.783 228.54 128.876C225.131 131.12 221.971 134.421 219.368 137.553C218.998 137.985 217.471 139.523 217.978 140.17C218.595 140.954 222.218 138.721 222.832 138.418C222.654 139.087 221.553 142.536 220.847 142.71Z" fill="#FFD566"/>
<g opacity="0.1">
<path d="M236.229 262.277C235.651 262.394 235.053 262.374 234.484 262.218C230.439 261.176 226.245 260.838 222.085 261.22C220.562 261.36 218.821 261.53 217.693 260.481C216.843 259.701 216.621 258.458 216.477 257.312C214.203 239.198 218.88 221.057 222.392 203.161C222.865 200.747 222.695 196.835 221.985 194.477L221.819 193.904C220.45 189.016 220.531 183.837 222.052 178.994C219.529 184.614 219.052 190.938 220.702 196.872L220.869 197.445C221.578 199.804 221.748 203.73 221.275 206.129C217.774 224.026 213.098 242.177 215.36 260.281C215.504 261.427 215.73 262.669 216.577 263.449C217.686 264.488 219.445 264.318 220.968 264.189C225.128 263.807 229.323 264.145 233.368 265.187C233.937 265.343 234.534 265.363 235.113 265.246C236.931 264.835 237.238 263.353 237.194 261.885C236.899 262.073 236.572 262.206 236.229 262.277Z" fill="black"/>
<path d="M270.706 251.59C270.802 251.894 270.782 252.222 270.651 252.512C270.52 252.803 270.287 253.035 269.996 253.165C269.382 253.442 268.71 253.569 268.037 253.534L245.205 254.14C244.605 254.156 244.009 254.236 243.427 254.381C240.743 255.068 241.752 256.229 241.464 257.198C241.113 258.381 239.416 258.285 238.233 257.937C238.344 258.991 238.399 260.185 237.922 261.072C238.961 261.227 240.078 261.091 240.355 260.155C240.632 259.22 239.634 258.026 242.318 257.338C242.9 257.194 243.496 257.113 244.096 257.098L266.913 256.492C267.586 256.526 268.258 256.399 268.872 256.122C269.163 255.992 269.397 255.76 269.527 255.47C269.658 255.179 269.678 254.851 269.582 254.547C272.17 255.726 275.623 254.118 276.388 251.383C276.503 250.968 276.568 250.541 276.58 250.111C275.198 251.767 272.695 252.506 270.706 251.59Z" fill="black"/>
</g>
<path d="M240.078 174.34C242.042 178.515 243.778 182.794 245.279 187.157C246.492 190.673 247.56 194.366 247.157 198.063C246.754 201.76 244.57 205.494 241.021 206.658C239.512 207.153 237.897 207.157 236.311 207.194C232.512 207.283 228.722 207.589 224.958 208.111C223.206 208.401 221.44 208.597 219.668 208.699C217.161 208.78 214.655 208.388 212.156 208.592C208.111 208.921 204.27 210.81 200.211 210.81C199.716 210.84 199.221 210.749 198.769 210.543C198.03 210.144 197.701 209.279 197.449 208.481C196.884 206.677 196.44 204.606 197.398 202.976C198.577 200.969 201.257 200.566 203.582 200.388C208.817 200.018 214.058 199.76 219.305 199.612C223.782 199.486 228.632 199.316 232.104 196.484C232.338 196.317 232.529 196.096 232.662 195.841C232.793 195.408 232.777 194.944 232.618 194.521C231.242 189.145 230.651 183.597 230.865 178.052C230.842 177.554 230.971 177.062 231.235 176.64C231.549 176.301 231.957 176.064 232.407 175.959C235.506 174.965 238.825 174.873 241.974 175.693" fill="#FDA8A8"/>
<path d="M230.773 178.048C230.236 178.233 229.769 178.577 229.434 179.035C229.582 177.494 229.383 175.937 229.412 174.384C229.442 172.832 229.73 171.213 230.71 170.007C231.956 168.469 234.074 167.919 236.055 167.867C238.932 167.789 241.908 168.625 244.015 170.584C245.371 171.854 246.252 173.55 246.51 175.39C246.577 175.896 246.799 177.797 246.27 178.122C245.808 178.41 244.052 177.416 243.486 177.257C239.287 176.023 234.787 176.303 230.773 178.048Z" fill="#F75842"/>
<path opacity="0.1" d="M174.861 90.769C176.29 90.769 177.449 89.6104 177.449 88.1812C177.449 86.752 176.29 85.5934 174.861 85.5934C173.432 85.5934 172.273 86.752 172.273 88.1812C172.273 89.6104 173.432 90.769 174.861 90.769Z" fill="#7CE7D7"/>
<path opacity="0.1" d="M192.237 140.677C193.666 140.677 194.825 139.518 194.825 138.089C194.825 136.66 193.666 135.501 192.237 135.501C190.808 135.501 189.649 136.66 189.649 138.089C189.649 139.518 190.808 140.677 192.237 140.677Z" fill="#7CE7D7"/>
<path opacity="0.1" d="M143.068 93.3568C144.497 93.3568 145.656 92.1982 145.656 90.769C145.656 89.3398 144.497 88.1812 143.068 88.1812C141.639 88.1812 140.48 89.3398 140.48 90.769C140.48 92.1982 141.639 93.3568 143.068 93.3568Z" fill="#7CE7D7"/>
<path opacity="0.1" d="M63.586 215.353C67.2611 215.353 70.2403 212.374 70.2403 208.699C70.2403 205.024 67.2611 202.044 63.586 202.044C59.9109 202.044 56.9316 205.024 56.9316 208.699C56.9316 212.374 59.9109 215.353 63.586 215.353Z" fill="#7CE7D7"/>
<path opacity="0.1" d="M331.608 105.556C333.038 105.556 334.196 104.398 334.196 102.969C334.196 101.539 333.038 100.381 331.608 100.381C330.179 100.381 329.021 101.539 329.021 102.969C329.021 104.398 330.179 105.556 331.608 105.556Z" fill="#7CE7D7"/>
<path opacity="0.1" d="M334.566 146.591C339.262 146.591 343.069 142.785 343.069 138.089C343.069 133.393 339.262 129.586 334.566 129.586C329.87 129.586 326.063 133.393 326.063 138.089C326.063 142.785 329.87 146.591 334.566 146.591Z" fill="#7CE7D7"/>
<path opacity="0.1" d="M348.244 116.647C349.673 116.647 350.832 115.488 350.832 114.059C350.832 112.63 349.673 111.471 348.244 111.471C346.815 111.471 345.656 112.63 345.656 114.059C345.656 115.488 346.815 116.647 348.244 116.647Z" fill="#7CE7D7"/>
<path opacity="0.1" d="M325.324 163.967C326.753 163.967 327.911 162.808 327.911 161.379C327.911 159.95 326.753 158.791 325.324 158.791C323.894 158.791 322.736 159.95 322.736 161.379C322.736 162.808 323.894 163.967 325.324 163.967Z" fill="#7CE7D7"/>
<path opacity="0.1" d="M169.686 111.471C171.115 111.471 172.274 110.313 172.274 108.884C172.274 107.454 171.115 106.296 169.686 106.296C168.257 106.296 167.098 107.454 167.098 108.884C167.098 110.313 168.257 111.471 169.686 111.471Z" fill="#7CE7D7"/>
<path opacity="0.1" d="M72.828 242.34C74.2572 242.34 75.4158 241.182 75.4158 239.752C75.4158 238.323 74.2572 237.165 72.828 237.165C71.3988 237.165 70.2402 238.323 70.2402 239.752C70.2402 241.182 71.3988 242.34 72.828 242.34Z" fill="#7CE7D7"/>
<path opacity="0.1" d="M68.7616 183.19C70.1908 183.19 71.3494 182.032 71.3494 180.603C71.3494 179.173 70.1908 178.015 68.7616 178.015C67.3324 178.015 66.1738 179.173 66.1738 180.603C66.1738 182.032 67.3324 183.19 68.7616 183.19Z" fill="#7CE7D7"/>
<path opacity="0.1" d="M210.721 88.1812C212.15 88.1812 213.309 87.0226 213.309 85.5934C213.309 84.1642 212.15 83.0056 210.721 83.0056C209.292 83.0056 208.133 84.1642 208.133 85.5934C208.133 87.0226 209.292 88.1812 210.721 88.1812Z" fill="#7CE7D7"/>
<path opacity="0.1" d="M219.224 111.471C220.653 111.471 221.811 110.313 221.811 108.884C221.811 107.454 220.653 106.296 219.224 106.296C217.794 106.296 216.636 107.454 216.636 108.884C216.636 110.313 217.794 111.471 219.224 111.471Z" fill="#7CE7D7"/>
</g>
<defs>
<linearGradient id="paint0_linear_102_176" x1="142.166" y1="326.492" x2="142.166" y2="126.628" gradientUnits="userSpaceOnUse">
<stop stop-color="#808080" stop-opacity="0.25"/>
<stop offset="0.54" stop-color="#808080" stop-opacity="0.12"/>
<stop offset="1" stop-color="#808080" stop-opacity="0.1"/>
</linearGradient>
<linearGradient id="paint1_linear_102_176" x1="241.405" y1="325.165" x2="241.405" y2="125.519" gradientUnits="userSpaceOnUse">
<stop stop-color="#808080" stop-opacity="0.25"/>
<stop offset="0.54" stop-color="#808080" stop-opacity="0.12"/>
<stop offset="1" stop-color="#808080" stop-opacity="0.1"/>
</linearGradient>
<clipPath id="clip0_102_176">
<rect width="400" height="268.022" fill="white" transform="translate(0 66)"/>
</clipPath>
</defs>
</svg>
