<svg width="400" height="400" viewBox="0 0 400 400" fill="none" xmlns="http://www.w3.org/2000/svg">
<path d="M182.679 30C190.377 16.6667 209.623 16.6667 217.321 30L355.885 270C363.583 283.333 353.96 300 338.564 300H61.4359C46.0399 300 36.4174 283.333 44.1154 270L182.679 30Z" fill="#F7DC69"/>
<path d="M120.182 121.886C117.725 122.823 115.215 123.616 112.666 124.263C109.299 125.084 107.398 125.464 104.148 124.203C104.034 124.159 103.925 124.115 103.823 124.072C97.6628 121.453 92.3974 117.1 88.667 111.542C84.9367 105.985 82.9024 99.4627 82.8117 92.77C82.7955 92.5404 82.7955 92.299 82.7955 92.0635C82.7923 90.9292 82.8465 89.7955 82.9579 88.6667C83.1004 87.129 83.3463 85.6028 83.6942 84.0982L83.6617 84.0924C81.0306 81.4019 80.0183 77.7166 80.3539 74.0136C80.5839 71.5031 81.3806 69.0776 82.6841 66.9198C83.9876 64.7619 85.7639 62.9281 87.879 61.5565C91.1939 59.4723 94.9316 58.153 98.8202 57.6945C99.8644 57.5741 100.915 57.5132 101.966 57.512H111.84C113.88 57.0345 115.952 56.7079 118.039 56.5347H118.055C137.929 54.8863 153.602 68.0617 152.14 84.0923C152.129 84.11 152.113 84.1277 152.102 84.1453C151.68 84.8341 151.307 85.4876 150.976 86.1116C150.657 86.6944 150.386 87.2537 150.153 87.7836C148.34 91.881 156.959 155.453 153.867 156.418C152.108 156.966 145.016 109.66 146.288 118.656C147.891 129.941 129.338 118.502 120.182 121.886Z" fill="#2F2E41"/>
<path d="M150.121 236.806L177.67 295.496L71.6948 284.763L93.8166 228.421L150.121 236.806Z" fill="#FFB6B6"/>
<path d="M205.423 354.478C186.995 360.612 167.574 363.213 148.181 362.145L139.748 348.469C139.748 348.469 139.395 353.562 138.868 361.349C129.637 360.279 120.525 358.347 111.654 355.579C94.8295 350.318 79.0586 342.166 63.0722 334.649C59.8342 315.347 58.6192 285.582 76.5208 268.255L172.876 285.912C172.876 285.912 188.336 297.475 184.2 301.617C180.064 305.752 179.424 305.112 182.141 307.829C184.858 310.547 190.73 314.18 190.79 316.556C190.814 317.483 197.403 334.308 205.423 354.478Z" fill="#2F2E41"/>
<path d="M133.295 123.394L110.016 125.018L94.9696 139.558L89.7001 140.498C84.9635 141.343 80.7014 143.896 77.7221 147.674C74.7429 151.452 73.2535 156.192 73.5365 160.995C74.6204 179.359 77.0473 206.798 82.1197 215.7C89.9849 229.504 96.4814 225.173 89.9849 229.504C83.4884 233.835 79.1268 230.432 82.1197 237.276C85.1125 244.121 78.0746 252.9 78.0746 252.9L75.273 255.702L78.2445 256.92L172.928 269.24C172.928 269.24 164.741 232.43 169.861 223.388C174.981 214.345 187.395 187.012 176.315 176.317L165.482 138.195L146.848 132.699L133.295 123.394Z" fill="#E683C3"/>
<path d="M274.214 274.473C272.656 274.424 271.128 274.036 269.734 273.338C268.341 272.64 267.115 271.647 266.143 270.429C265.171 269.211 264.475 267.796 264.104 266.282C263.732 264.768 263.694 263.192 263.991 261.662L219.578 231.583L224.877 217.252L277.367 253.363C279.905 254.056 282.101 255.655 283.538 257.859C284.976 260.062 285.555 262.716 285.167 265.318C284.778 267.92 283.449 270.29 281.43 271.977C279.411 273.664 276.844 274.552 274.214 274.473V274.473Z" fill="#FFB6B6"/>
<path d="M148.767 136.394L142.313 138.95L176.741 206.189L248.012 254.77L258.285 237.406L204.033 190.546L182.313 148.89C179.256 143.028 174.136 138.506 167.94 136.198C161.745 133.89 154.914 133.96 148.767 136.394Z" fill="#E683C3"/>
<path d="M120.444 117.481C133.354 117.481 143.819 107.015 143.819 94.1052C143.819 81.1952 133.354 70.7296 120.444 70.7296C107.534 70.7296 97.0684 81.1952 97.0684 94.1052C97.0684 107.015 107.534 117.481 120.444 117.481Z" fill="#FFB6B6"/>
<path d="M140.771 84.2203C140.382 84.426 139.997 84.6155 139.607 84.8049C139.201 84.9998 138.795 85.1947 138.384 85.3788C130.561 88.9248 124.189 89.32 120.324 84.2203C120.218 81.5373 119.614 78.8974 118.542 76.4353C118.732 79.1867 118.007 81.9236 116.48 84.2203H108.695C100.677 89.542 96.5627 94.4306 102.128 111.901C102.491 113.049 104.976 153.825 105.685 156.959C93.5472 152.304 83.077 102.871 82.8117 89.8451C82.7954 89.634 82.7955 89.412 82.7955 89.1955C82.7923 88.1521 82.8465 87.1092 82.9579 86.0717C83.1007 84.6553 83.3468 83.2512 83.6942 81.8707L83.6617 81.8653C82.4267 80.6846 81.4846 79.2319 80.9103 77.6228C80.3361 76.0137 80.1455 74.2927 80.3539 72.5969C82.39 69.9309 84.9098 67.6719 87.7815 65.938C90.3929 64.6735 93.1148 63.6514 95.913 62.8846C95.9834 62.8684 96.0429 62.8522 96.1133 62.8359C96.9687 62.6031 97.8457 62.392 98.7227 62.2079C100.53 61.8289 102.357 61.5524 104.196 61.3796C104.331 61.3742 104.461 61.3634 104.58 61.3634C105.316 61.3639 106.038 61.5621 106.67 61.9372C106.676 61.9372 106.676 61.9427 106.686 61.9427C107.294 62.3058 107.798 62.8193 108.15 63.4337C108.502 64.0481 108.689 64.7428 108.695 65.4508H117.368C117.687 65.4508 118.007 65.4616 118.326 65.4778C130.404 65.9596 140.111 71.1244 140.733 82.9968C140.761 83.4082 140.771 83.8088 140.771 84.2203Z" fill="#2F2E41"/>
<path d="M89.4959 85.16C98.0011 85.16 104.896 78.2652 104.896 69.76C104.896 61.2549 98.0011 54.3601 89.4959 54.3601C80.9907 54.3601 74.0959 61.2549 74.0959 69.76C74.0959 78.2652 80.9907 85.16 89.4959 85.16Z" fill="#2F2E41"/>
<path d="M110.638 62.6371C108.889 70.9604 100.257 75.9384 91.9993 73.9021C88.0338 72.9242 84.6191 70.4111 82.5065 66.9156C80.3939 63.42 79.7564 59.2285 80.7343 55.2629C82.7706 47.0052 92.7925 49.3858 99.3734 43.998C108.683 36.3761 112.998 51.4125 110.638 62.6371Z" fill="#2F2E41"/>
<path d="M76.422 294.324C89.5471 240.801 115.553 194.796 158.623 158.752C160.29 156.01 162.976 154.041 166.093 153.277C169.21 152.513 172.502 153.017 175.248 154.677L277.635 216.757C280.377 218.424 282.346 221.111 283.11 224.227C283.874 227.344 283.37 230.636 281.71 233.382C265.271 288.304 240.649 335.961 199.509 368.955C197.842 371.697 195.156 373.666 192.039 374.43C188.922 375.194 185.63 374.69 182.884 373.029L80.4966 310.95C77.7545 309.283 75.7856 306.596 75.0217 303.48C74.2578 300.363 74.7614 297.07 76.422 294.324V294.324Z" fill="#F2F2F2"/>
<path opacity="0.2" d="M94.6203 312.363C91.8783 310.696 89.9093 308.009 89.1455 304.893C88.3816 301.776 88.8853 298.484 90.5459 295.738C103.671 242.214 129.677 196.209 172.747 160.165C173.85 158.37 175.408 156.898 177.263 155.899L175.248 154.677C172.502 153.017 169.21 152.513 166.093 153.277C162.976 154.041 160.29 156.01 158.623 158.752C115.553 194.796 89.5472 240.8 76.4221 294.324C74.7615 297.07 74.2578 300.363 75.0217 303.479C75.7855 306.596 77.7545 309.282 80.4966 310.949L182.884 373.029C184.706 374.126 186.786 374.721 188.912 374.755C191.039 374.788 193.137 374.259 194.993 373.221L94.6203 312.363Z" fill="black"/>
<path d="M214.695 282.459L145.968 241.048C144.876 240.388 144.09 239.322 143.784 238.084C143.478 236.845 143.675 235.536 144.334 234.443C144.992 233.35 146.057 232.564 147.295 232.256C148.533 231.948 149.843 232.144 150.937 232.801L219.664 274.212C220.753 274.873 221.536 275.939 221.841 277.176C222.145 278.413 221.947 279.72 221.29 280.812C220.632 281.903 219.569 282.689 218.332 282.998C217.096 283.307 215.788 283.113 214.695 282.459L214.695 282.459Z" fill="white"/>
<path d="M174.713 227.544L159.593 218.434C158.498 217.778 157.707 216.715 157.396 215.476C157.085 214.238 157.278 212.927 157.934 211.831C158.589 210.735 159.653 209.945 160.891 209.633C162.13 209.322 163.441 209.516 164.537 210.171L164.563 210.187L179.683 219.297C180.772 219.958 181.555 221.024 181.86 222.261C182.165 223.499 181.967 224.806 181.309 225.898C180.652 226.989 179.588 227.776 178.352 228.084C177.115 228.393 175.807 228.199 174.713 227.544V227.544Z" fill="white"/>
<path d="M203.771 300.587L135.044 259.177C133.951 258.518 133.164 257.453 132.856 256.215C132.548 254.977 132.744 253.667 133.401 252.573C134.059 251.479 135.123 250.691 136.361 250.382C137.599 250.072 138.909 250.267 140.004 250.923L140.013 250.929L208.741 292.34C209.83 293.001 210.613 294.067 210.917 295.304C211.222 296.541 211.024 297.849 210.366 298.94C209.709 300.032 208.645 300.818 207.409 301.127C206.173 301.435 204.865 301.241 203.771 300.587L203.771 300.587Z" fill="white"/>
<path d="M223.422 204.378C234.509 204.378 243.496 195.391 243.496 184.304C243.496 173.218 234.509 164.23 223.422 164.23C212.336 164.23 203.349 173.218 203.349 184.304C203.349 195.391 212.336 204.378 223.422 204.378Z" fill="#3F3D56"/>
<path d="M188.82 399.401C212.516 399.401 231.725 380.192 231.725 356.497C231.725 332.801 212.516 313.592 188.82 313.592C165.125 313.592 145.916 332.801 145.916 356.497C145.916 380.192 165.125 399.401 188.82 399.401Z" fill="white"/>
<path d="M188.82 400C180.216 400 171.805 397.449 164.651 392.668C157.497 387.888 151.921 381.094 148.629 373.145C145.336 365.196 144.474 356.449 146.153 348.01C147.832 339.571 151.975 331.819 158.059 325.735C164.143 319.651 171.894 315.508 180.333 313.829C188.772 312.151 197.519 313.012 205.468 316.305C213.417 319.598 220.212 325.173 224.992 332.327C229.772 339.481 232.324 347.892 232.324 356.496C232.311 368.03 227.723 379.088 219.567 387.244C211.412 395.399 200.354 399.987 188.82 400V400ZM188.82 314.191C180.453 314.191 172.274 316.672 165.316 321.32C158.359 325.969 152.937 332.576 149.735 340.307C146.532 348.037 145.695 356.544 147.327 364.75C148.96 372.957 152.989 380.495 158.905 386.412C164.822 392.328 172.36 396.358 180.567 397.99C188.774 399.622 197.28 398.785 205.01 395.583C212.741 392.38 219.348 386.958 223.997 380.001C228.645 373.043 231.127 364.864 231.127 356.496C231.114 345.28 226.653 334.527 218.721 326.596C210.79 318.664 200.037 314.203 188.82 314.191V314.191Z" fill="#3F3D56"/>
<path d="M182.967 378.827C182.227 378.827 181.496 378.654 180.833 378.323C180.17 377.991 179.594 377.51 179.15 376.917L167.445 361.31C167.068 360.809 166.794 360.238 166.638 359.631C166.482 359.023 166.447 358.391 166.535 357.77C166.624 357.15 166.834 356.552 167.153 356.013C167.473 355.473 167.895 355.002 168.397 354.625C168.899 354.249 169.469 353.975 170.077 353.82C170.684 353.665 171.317 353.63 171.937 353.719C172.558 353.808 173.155 354.019 173.695 354.339C174.234 354.658 174.705 355.081 175.081 355.583L182.739 365.793L202.407 336.291C202.754 335.77 203.201 335.322 203.722 334.973C204.243 334.624 204.827 334.382 205.442 334.259C206.056 334.136 206.689 334.135 207.304 334.257C207.919 334.378 208.504 334.62 209.025 334.968C209.547 335.315 209.995 335.762 210.343 336.283C210.692 336.804 210.935 337.388 211.058 338.003C211.181 338.617 211.181 339.25 211.06 339.865C210.938 340.48 210.697 341.065 210.349 341.586L186.939 376.701C186.515 377.336 185.946 377.861 185.278 378.23C184.61 378.6 183.863 378.804 183.1 378.825C183.056 378.826 183.012 378.827 182.967 378.827Z" fill="#E683C3"/>
<path d="M327.382 139.075C329.087 138.929 330.387 137.85 330.285 136.664C330.184 135.478 328.719 134.634 327.014 134.78C325.31 134.926 324.01 136.006 324.111 137.192C324.213 138.378 325.677 139.221 327.382 139.075Z" fill="white"/>
<path d="M346.565 132.568C348.27 132.422 349.569 131.342 349.468 130.156C349.367 128.97 347.902 128.127 346.197 128.273C344.492 128.419 343.193 129.498 343.294 130.684C343.395 131.87 344.86 132.714 346.565 132.568Z" fill="#3F3D56"/>
<path d="M318.289 124.44C319.994 124.294 321.294 123.215 321.192 122.028C321.091 120.842 319.626 119.999 317.922 120.145C316.217 120.291 314.917 121.37 315.018 122.556C315.12 123.742 316.584 124.586 318.289 124.44Z" fill="#FF6584"/>
<path d="M310.242 119.724C310.976 119.558 311.378 118.569 311.139 117.514C310.901 116.459 310.113 115.738 309.379 115.904C308.645 116.07 308.244 117.059 308.482 118.114C308.72 119.169 309.509 119.89 310.242 119.724Z" fill="#E6E6E6"/>
<path d="M304.513 108.275C305.247 108.11 305.649 107.12 305.41 106.065C305.172 105.01 304.384 104.29 303.65 104.455C302.916 104.621 302.515 105.611 302.753 106.666C302.991 107.72 303.779 108.441 304.513 108.275Z" fill="#3F3D56"/>
<path d="M332 124.353C332.733 124.187 333.135 123.198 332.897 122.143C332.658 121.088 331.87 120.367 331.137 120.533C330.403 120.699 330.001 121.689 330.239 122.743C330.478 123.798 331.266 124.519 332 124.353Z" fill="#E6E6E6"/>
<path d="M323.621 131.309C324.355 131.143 324.757 130.153 324.518 129.099C324.28 128.044 323.492 127.323 322.758 127.489C322.024 127.655 321.623 128.644 321.861 129.699C322.099 130.754 322.887 131.475 323.621 131.309Z" fill="#FF6584"/>
<path d="M338.874 136.974C339.608 136.808 340.01 135.819 339.772 134.764C339.533 133.709 338.745 132.988 338.011 133.154C337.277 133.32 336.876 134.309 337.114 135.364C337.353 136.419 338.141 137.14 338.874 136.974Z" fill="#3F3D56"/>
<path d="M248.183 50.3909C248.475 49.2371 247.367 47.9609 245.709 47.5405C244.05 47.1202 242.468 47.7148 242.176 48.8687C241.884 50.0226 242.991 51.2988 244.65 51.7191C246.309 52.1395 247.89 51.5448 248.183 50.3909Z" fill="white"/>
<path d="M227.927 50.2603C228.219 49.1064 227.111 47.8303 225.453 47.4099C223.794 46.9896 222.212 47.5842 221.92 48.7381C221.627 49.892 222.735 51.1682 224.394 51.5885C226.052 52.0089 227.634 51.4142 227.927 50.2603Z" fill="#3F3D56"/>
<path d="M251.984 67.1964C252.276 66.0425 251.169 64.7663 249.51 64.346C247.851 63.9256 246.27 64.5202 245.977 65.6741C245.685 66.828 246.792 68.1042 248.451 68.5245C250.11 68.9449 251.692 68.3503 251.984 67.1964Z" fill="#FF6584"/>
<path d="M256.706 73.5333C256.826 72.4585 256.317 71.5196 255.569 71.436C254.822 71.3525 254.118 72.156 253.998 73.2308C253.878 74.3055 254.387 75.2445 255.135 75.328C255.882 75.4116 256.586 74.608 256.706 73.5333Z" fill="#E6E6E6"/>
<path d="M258.371 86.2265C258.491 85.1518 257.983 84.2128 257.235 84.1293C256.487 84.0457 255.784 84.8492 255.664 85.924C255.544 86.9987 256.052 87.9377 256.8 88.0213C257.548 88.1048 258.251 87.3013 258.371 86.2265Z" fill="#3F3D56"/>
<path d="M237.662 62.0369C237.783 60.9621 237.274 60.0232 236.526 59.9396C235.779 59.8561 235.075 60.6596 234.955 61.7344C234.835 62.8091 235.344 63.7481 236.091 63.8316C236.839 63.9152 237.542 63.1116 237.662 62.0369Z" fill="#E6E6E6"/>
<path d="M247.856 58.2073C247.976 57.1326 247.468 56.1936 246.72 56.11C245.972 56.0265 245.269 56.83 245.149 57.9048C245.029 58.9795 245.537 59.9185 246.285 60.002C247.033 60.0856 247.736 59.2821 247.856 58.2073Z" fill="#FF6584"/>
<path d="M235.298 47.861C235.418 46.7863 234.909 45.8473 234.162 45.7638C233.414 45.6802 232.711 46.4838 232.59 47.5585C232.47 48.6333 232.979 49.5722 233.727 49.6558C234.474 49.7393 235.178 48.9358 235.298 47.861Z" fill="#3F3D56"/>
<path d="M82.8062 294.891C81.2764 294.265 79.901 293.313 78.7751 292.102C77.6492 290.892 76.7998 289.451 76.2855 287.879C75.7712 286.308 75.6044 284.644 75.7966 283.002C75.9888 281.36 76.5353 279.779 77.3985 278.369L44.417 232.007L54.9977 219.732L93.7677 275.083C96.0331 276.712 97.6222 279.116 98.2336 281.839C98.8451 284.562 98.4366 287.414 97.0854 289.856C95.7343 292.297 93.5344 294.159 90.9027 295.087C88.271 296.015 85.3902 295.945 82.8063 294.891H82.8062Z" fill="#FFB6B6"/>
<path d="M83.564 147.973C81.8954 146.991 79.9315 146.636 78.0249 146.972C76.1182 147.307 74.3937 148.312 73.1607 149.804L28.5984 212.127L69.8961 270.782L86.056 253.425L60.9183 213.922L94.3265 182.114C97.0719 176.1 97.4912 169.281 95.5035 162.976C93.5158 156.67 89.2621 151.325 83.564 147.973V147.973Z" fill="#E683C3"/>
</svg>
