<svg width="615" height="335" viewBox="0 0 615 335" fill="none" xmlns="http://www.w3.org/2000/svg">
<g clip-path="url(#clip0_107_2)">
<path d="M79.5965 290.018L78.2953 288.5C89.3045 279.065 103.006 267.323 108.135 251.803C113.19 236.504 109.387 218.034 98.2098 203.601C88.6975 191.317 74.0092 181.644 55.7331 175.628C52.1282 174.441 48.3854 173.387 44.7657 172.367C36.0164 169.902 26.9692 167.354 18.957 162.696C7.92165 156.281 -2.10177 143.68 0.382051 129.99C1.22526 125.61 3.27976 121.553 6.3123 118.282C9.34485 115.01 13.2339 112.655 17.5379 111.482L18.0699 113.411C14.1268 114.484 10.5635 116.641 7.78438 119.637C5.00527 122.634 3.12166 126.349 2.34729 130.361C0.039201 143.083 9.53067 154.903 19.9622 160.967C27.7553 165.497 36.6785 168.011 45.3079 170.442C48.9481 171.467 52.7125 172.528 56.3588 173.728C75.0151 179.87 90.0338 189.776 99.791 202.376C111.37 217.329 115.295 236.509 110.034 252.431C104.73 268.479 90.7944 280.422 79.5965 290.018Z" fill="#F1F1F1"/>
<path d="M32.1539 119.109C41.6009 117.068 48.4556 111.693 47.4642 107.105C46.4728 102.516 38.0108 100.451 28.5638 102.492C19.1168 104.533 12.2622 109.908 13.2536 114.496C14.2449 119.085 22.7069 121.15 32.1539 119.109Z" fill="#F1F1F1"/>
<path d="M57.6644 170.889C67.1114 168.848 73.966 163.474 72.9747 158.885C71.9833 154.297 63.5213 152.232 54.0743 154.273C44.6273 156.314 37.7727 161.688 38.7641 166.277C39.7554 170.865 48.2174 172.93 57.6644 170.889Z" fill="#F1F1F1"/>
<path d="M28.2867 186.444C37.7337 184.403 44.5884 179.029 43.597 174.44C42.6056 169.852 34.1436 167.787 24.6966 169.828C15.2496 171.869 8.39498 177.243 9.38637 181.832C10.3778 186.42 18.8397 188.485 28.2867 186.444Z" fill="#F1F1F1"/>
<path d="M274.226 178.204H272.226V184.204H274.226V178.204Z" fill="#E5E5E5"/>
<path d="M274.226 312.044H272.226V299.26H274.226V312.044ZM274.226 286.476H272.226V273.692H274.226V286.476ZM274.226 260.908H272.226V248.124H274.226V260.908ZM274.226 235.34H272.226V222.556H274.226V235.34ZM274.226 209.772H272.226V196.988H274.226V209.772Z" fill="#E5E5E5"/>
<path d="M274.226 324.828H272.226V330.828H274.226V324.828Z" fill="#E5E5E5"/>
<path d="M493.226 178.204H491.226V184.204H493.226V178.204Z" fill="#E5E5E5"/>
<path d="M493.226 312.044H491.226V299.26H493.226V312.044ZM493.226 286.476H491.226V273.692H493.226V286.476ZM493.226 260.908H491.226V248.124H493.226V260.908ZM493.226 235.34H491.226V222.556H493.226V235.34ZM493.226 209.772H491.226V196.988H493.226V209.772Z" fill="#E5E5E5"/>
<path d="M493.226 324.828H491.226V330.828H493.226V324.828Z" fill="#E5E5E5"/>
<path d="M603.695 60.828H601.695V66.828H603.695V60.828Z" fill="#E5E5E5"/>
<path d="M603.695 312.542H601.695V300.257H603.695V312.542ZM603.695 287.971H601.695V275.685H603.695V287.971ZM603.695 263.399H601.695V251.114H603.695V263.399ZM603.695 238.828H601.695V226.542H603.695V238.828ZM603.695 214.257H601.695V201.971H603.695V214.257ZM603.695 189.685H601.695V177.399H603.695V189.685ZM603.695 165.114H601.695V152.828H603.695V165.114ZM603.695 140.542H601.695V128.257H603.695V140.542ZM603.695 115.971H601.695V103.685H603.695V115.971ZM603.695 91.3993H601.695V79.1136H603.695V91.3993Z" fill="#E5E5E5"/>
<path d="M603.695 324.828H601.695V330.828H603.695V324.828Z" fill="#E5E5E5"/>
<path d="M384.226 97.828H382.226V103.828H384.226V97.828Z" fill="#E5E5E5"/>
<path d="M384.226 313.197H382.226V301.565H384.226V313.197ZM384.226 289.933H382.226V278.302H384.226V289.933ZM384.226 266.67H382.226V255.039H384.226V266.67ZM384.226 243.407H382.226V231.776H384.226V243.407ZM384.226 220.144H382.226V208.513H384.226V220.144ZM384.226 196.881H382.226V185.249H384.226V196.881ZM384.226 173.618H382.226V161.986H384.226V173.618ZM384.226 150.354H382.226V138.723H384.226V150.354ZM384.226 127.091H382.226V115.46H384.226V127.091Z" fill="#E5E5E5"/>
<path d="M384.226 324.828H382.226V330.828H384.226V324.828Z" fill="#E5E5E5"/>
<path d="M613.582 334H161.415C161.04 334 160.68 333.781 160.414 333.392C160.149 333.003 160 332.475 160 331.925V14.0708C160.001 13.5212 160.15 12.9945 160.416 12.6062C160.681 12.218 161.04 12 161.415 12C161.79 12 162.149 12.218 162.415 12.6062C162.68 12.9945 162.829 13.5212 162.83 14.0708V329.849H613.582C613.768 329.849 613.952 329.902 614.124 330.006C614.296 330.11 614.453 330.263 614.584 330.455C614.716 330.648 614.821 330.877 614.892 331.129C614.963 331.381 615 331.652 615 331.925C615 332.198 614.963 332.468 614.892 332.72C614.821 332.972 614.716 333.201 614.584 333.394C614.453 333.587 614.296 333.739 614.124 333.843C613.952 333.947 613.768 334.001 613.582 334Z" fill="#3F3D56"/>
<path d="M492.957 180.99L383.045 98.3049L274.294 179.406L271.816 176.083L383.055 93.1259L492.445 175.418L601.568 56.5017L603.109 60.35L603.983 59.9978L492.957 180.99Z" fill="#3F3D56"/>
<path d="M273.226 190.637C280.092 190.637 285.659 185.07 285.659 178.204C285.659 171.337 280.092 165.771 273.226 165.771C266.359 165.771 260.793 171.337 260.793 178.204C260.793 185.07 266.359 190.637 273.226 190.637Z" fill="#7CE7D7"/>
<path d="M383.049 109.823C389.915 109.823 395.482 104.257 395.482 97.3904C395.482 90.5239 389.915 84.9576 383.049 84.9576C376.182 84.9576 370.616 90.5239 370.616 97.3904C370.616 104.257 376.182 109.823 383.049 109.823Z" fill="#7CE7D7"/>
<path d="M492.872 190.637C499.738 190.637 505.305 185.07 505.305 178.204C505.305 171.337 499.738 165.771 492.872 165.771C486.006 165.771 480.439 171.337 480.439 178.204C480.439 185.07 486.006 190.637 492.872 190.637Z" fill="#E5E5E5"/>
<path d="M489.872 234.637C496.738 234.637 502.305 229.07 502.305 222.204C502.305 215.337 496.738 209.771 489.872 209.771C483.006 209.771 477.439 215.337 477.439 222.204C477.439 229.07 483.006 234.637 489.872 234.637Z" fill="#7CE7D7"/>
<path d="M602.695 70.4526C609.562 70.4526 615.128 64.8863 615.128 58.0198C615.128 51.1533 609.562 45.587 602.695 45.587C595.829 45.587 590.262 51.1533 590.262 58.0198C590.262 64.8863 595.829 70.4526 602.695 70.4526Z" fill="#7CE7D7"/>
<path d="M158.423 243.299C162.669 232.19 163.284 222.104 159.797 220.771C156.309 219.438 150.04 227.363 145.794 238.472C141.548 249.581 140.933 259.667 144.42 261C147.908 262.333 154.177 254.408 158.423 243.299Z" fill="#2F2E41"/>
<path d="M112.301 316.475C136.087 316.475 155.369 297.193 155.369 273.407C155.369 249.622 136.087 230.34 112.301 230.34C88.5158 230.34 69.2339 249.622 69.2339 273.407C69.2339 297.193 88.5158 316.475 112.301 316.475Z" fill="#2F2E41"/>
<path d="M105.759 307.207H92.6755V330.649H105.759V307.207Z" fill="#2F2E41"/>
<path d="M131.927 307.207H118.843V330.649H131.927V307.207Z" fill="#2F2E41"/>
<path d="M103.579 335.01C109.6 335.01 114.482 333.179 114.482 330.921C114.482 328.663 109.6 326.833 103.579 326.833C97.557 326.833 92.6755 328.663 92.6755 330.921C92.6755 333.179 97.557 335.01 103.579 335.01Z" fill="#2F2E41"/>
<path d="M129.746 334.465C135.768 334.465 140.649 332.634 140.649 330.376C140.649 328.118 135.768 326.287 129.746 326.287C123.725 326.287 118.843 328.118 118.843 330.376C118.843 332.634 123.725 334.465 129.746 334.465Z" fill="#2F2E41"/>
<path d="M113.392 277.223C121.521 277.223 128.111 270.633 128.111 262.504C128.111 254.375 121.521 247.785 113.392 247.785C105.262 247.785 98.6724 254.375 98.6724 262.504C98.6724 270.633 105.262 277.223 113.392 277.223Z" fill="white"/>
<path d="M113.392 267.411C116.101 267.411 118.298 265.214 118.298 262.504C118.298 259.794 116.101 257.598 113.392 257.598C110.682 257.598 108.485 259.794 108.485 262.504C108.485 265.214 110.682 267.411 113.392 267.411Z" fill="#3F3D56"/>
<path d="M70.5244 233.356C67.0469 217.782 78.1631 202.046 95.353 198.207C112.543 194.369 129.297 203.882 132.775 219.456C136.252 235.03 124.86 240.774 107.67 244.612C90.4799 248.45 74.0019 248.93 70.5244 233.356Z" fill="#E6E6E6"/>
<path d="M83.2492 262.652C84.8491 259.278 77.4352 252.412 66.6898 247.316C55.9444 242.22 45.9365 240.823 44.3366 244.196C42.7367 247.569 50.1506 254.436 60.896 259.532C71.6414 264.628 81.6493 266.025 83.2492 262.652Z" fill="#2F2E41"/>
<path d="M91.1467 288.944C91.1467 293.16 102 301.483 114.043 301.483C126.087 301.483 137.378 289.616 137.378 285.401C137.378 281.186 126.087 286.219 114.043 286.219C102 286.219 91.1467 284.729 91.1467 288.944Z" fill="white"/>
<path d="M437.431 309.621C461.216 309.621 480.498 290.339 480.498 266.554C480.498 242.768 461.216 223.486 437.431 223.486C413.645 223.486 394.363 242.768 394.363 266.554C394.363 290.339 413.645 309.621 437.431 309.621Z" fill="#2F2E41"/>
<path d="M430.889 300.354H417.805V323.795H430.889V300.354Z" fill="#2F2E41"/>
<path d="M457.056 300.354H443.972V323.795H457.056V300.354Z" fill="#2F2E41"/>
<path d="M437.642 331.561C438.573 329.503 434.88 325.824 429.393 323.342C423.906 320.861 418.704 320.517 417.774 322.575C416.843 324.632 420.537 328.312 426.023 330.793C431.51 333.274 436.712 333.618 437.642 331.561Z" fill="#2F2E41"/>
<path d="M462.684 330.285C463.67 328.253 460.078 324.475 454.662 321.845C449.245 319.215 444.054 318.729 443.068 320.761C442.081 322.792 445.673 326.571 451.09 329.201C456.507 331.831 461.698 332.316 462.684 330.285Z" fill="#2F2E41"/>
<path d="M395.654 226.502C392.176 210.929 403.292 195.192 420.482 191.354C437.672 187.515 454.427 197.029 457.904 212.603C461.382 228.176 449.989 233.92 432.799 237.759C415.609 241.597 399.131 242.076 395.654 226.502Z" fill="#7CE7D7"/>
<path d="M483.84 247.734C493.167 238.4 498.353 228.459 495.422 225.531C492.492 222.603 482.556 227.797 473.229 237.131C463.902 246.465 458.716 256.405 461.646 259.334C464.577 262.262 474.513 257.068 483.84 247.734Z" fill="#2F2E41"/>
<path d="M402.078 284.357C405.463 271.603 404.961 260.402 400.958 259.34C396.954 258.277 390.964 267.755 387.579 280.509C384.194 293.262 384.696 304.463 388.7 305.526C392.704 306.588 398.694 297.11 402.078 284.357Z" fill="#2F2E41"/>
</g>
<defs>
<clipPath id="clip0_107_2">
<rect width="615" height="335" fill="white"/>
</clipPath>
</defs>
</svg>
