<svg width="371" height="276" viewBox="0 0 371 276" fill="none" xmlns="http://www.w3.org/2000/svg">
<path d="M201.536 85C203.075 82.3334 206.925 82.3334 208.464 85L244.837 148C246.377 150.667 244.452 154 241.373 154H168.627C165.548 154 163.623 150.667 165.163 148L201.536 85Z" fill="#7CE7D7"/>
<path d="M333.634 148.279C335.812 150.457 334.816 154.174 331.841 154.971L261.574 173.799C258.6 174.596 255.878 171.875 256.675 168.9L275.503 98.6331C276.3 95.6588 280.018 94.6626 282.195 96.8399L333.634 148.279Z" fill="#E683C3"/>
<path d="M236.301 108.138C233.635 109.678 230.301 107.753 230.301 104.674L230.301 31.9281C230.301 28.8489 233.635 26.9244 236.301 28.464L299.301 64.8371C301.968 66.3767 301.968 70.2257 299.301 71.7653L236.301 108.138Z" fill="#F7DC69"/>
<path d="M36.5767 201.818C36.5767 205.784 35.825 209.157 34.3217 211.939C32.8303 214.721 30.7943 216.845 28.2138 218.313C25.6451 219.769 22.7569 220.497 19.549 220.497C16.3175 220.497 13.4174 219.763 10.8487 218.295C8.28007 216.828 6.25 214.703 4.75852 211.921C3.26705 209.139 2.52131 205.772 2.52131 201.818C2.52131 197.853 3.26705 194.479 4.75852 191.697C6.25 188.916 8.28007 186.797 10.8487 185.341C13.4174 183.873 16.3175 183.139 19.549 183.139C22.7569 183.139 25.6451 183.873 28.2138 185.341C30.7943 186.797 32.8303 188.916 34.3217 191.697C35.825 194.479 36.5767 197.853 36.5767 201.818ZM28.782 201.818C28.782 199.249 28.3973 197.083 27.6278 195.32C26.8703 193.556 25.799 192.218 24.4141 191.307C23.0291 190.395 21.4074 189.94 19.549 189.94C17.6906 189.94 16.0689 190.395 14.6839 191.307C13.299 192.218 12.2218 193.556 11.4524 195.32C10.6948 197.083 10.3161 199.249 10.3161 201.818C10.3161 204.387 10.6948 206.553 11.4524 208.317C12.2218 210.08 13.299 211.418 14.6839 212.33C16.0689 213.241 17.6906 213.697 19.549 213.697C21.4074 213.697 23.0291 213.241 24.4141 212.33C25.799 211.418 26.8703 210.08 27.6278 208.317C28.3973 206.553 28.782 204.387 28.782 201.818ZM61.1106 203.345V209.293H46.8706V203.345H61.1106ZM49.3564 192.727V220H42.1298V192.727H49.3564ZM65.8514 192.727V220H58.6781V192.727H65.8514ZM70.1216 220L70.0861 213.999H70.9917C71.6309 213.999 72.1813 213.845 72.6429 213.537C73.1164 213.217 73.507 212.702 73.8148 211.992C74.1226 211.282 74.3652 210.341 74.5428 209.169C74.7203 207.985 74.8387 206.529 74.8979 204.801L75.3418 192.727H96.0804V220H88.8716V198.675H82.1422L81.7161 207.003C81.6096 209.287 81.3314 211.252 80.8816 212.898C80.4436 214.543 79.834 215.892 79.0527 216.946C78.2715 217.988 77.3304 218.757 76.2296 219.254C75.1287 219.751 73.8503 220 72.3944 220H70.1216ZM109.721 220.515C107.981 220.515 106.431 220.213 105.069 219.609C103.708 218.994 102.631 218.088 101.838 216.893C101.056 215.685 100.666 214.182 100.666 212.383C100.666 210.868 100.944 209.595 101.5 208.565C102.057 207.535 102.814 206.707 103.773 206.08C104.732 205.452 105.821 204.979 107.04 204.659C108.271 204.339 109.561 204.115 110.911 203.984C112.497 203.819 113.775 203.665 114.746 203.523C115.717 203.369 116.421 203.144 116.859 202.848C117.297 202.552 117.516 202.114 117.516 201.534V201.428C117.516 200.303 117.161 199.433 116.451 198.817C115.752 198.202 114.758 197.894 113.468 197.894C112.106 197.894 111.023 198.196 110.218 198.8C109.413 199.392 108.881 200.137 108.62 201.037L101.625 200.469C101.98 198.812 102.678 197.379 103.72 196.172C104.761 194.953 106.105 194.017 107.75 193.366C109.408 192.704 111.325 192.372 113.503 192.372C115.018 192.372 116.468 192.55 117.853 192.905C119.25 193.26 120.487 193.81 121.564 194.556C122.653 195.302 123.511 196.261 124.139 197.432C124.766 198.593 125.08 199.983 125.08 201.605V220H117.907V216.218H117.694C117.256 217.07 116.67 217.822 115.936 218.473C115.202 219.112 114.32 219.615 113.29 219.982C112.26 220.337 111.071 220.515 109.721 220.515ZM111.887 215.295C113 215.295 113.983 215.076 114.835 214.638C115.687 214.188 116.356 213.584 116.841 212.827C117.327 212.069 117.569 211.211 117.569 210.252V207.358C117.333 207.512 117.007 207.654 116.593 207.784C116.19 207.902 115.734 208.015 115.225 208.121C114.717 208.216 114.208 208.305 113.699 208.388C113.19 208.459 112.728 208.524 112.314 208.583C111.426 208.713 110.65 208.92 109.988 209.205C109.325 209.489 108.81 209.873 108.443 210.359C108.076 210.832 107.892 211.424 107.892 212.134C107.892 213.164 108.265 213.951 109.011 214.496C109.769 215.028 110.727 215.295 111.887 215.295ZM138.175 210.021L147.994 192.727H155.451V220H148.242V202.653L138.459 220H130.948V192.727H138.175V210.021ZM146.697 183.21H151.971C151.959 185.365 151.16 187.099 149.574 188.413C148 189.727 145.869 190.383 143.182 190.383C140.483 190.383 138.346 189.727 136.772 188.413C135.198 187.099 134.411 185.365 134.411 183.21H139.648C139.637 184.027 139.897 184.761 140.43 185.412C140.974 186.063 141.892 186.388 143.182 186.388C144.437 186.388 145.336 186.069 145.881 185.43C146.425 184.79 146.697 184.051 146.697 183.21ZM180.495 203.345V209.293H166.255V203.345H180.495ZM168.741 192.727V220H161.515V192.727H168.741ZM185.236 192.727V220H178.063V192.727H185.236ZM204.275 183.636H211.785V213.821H222.226V183.636H229.701V213.821H240.017V183.636H247.492V220H204.275V183.636ZM255.118 220V192.727H262.682V203.31H264.813L272.235 192.727H281.112L271.471 206.257L281.219 220H272.235L265.505 210.323H262.682V220H255.118ZM295.614 220.533C292.856 220.533 290.471 219.947 288.459 218.775C286.458 217.591 284.914 215.946 283.825 213.839C282.736 211.72 282.191 209.264 282.191 206.47C282.191 203.653 282.736 201.191 283.825 199.084C284.914 196.965 286.458 195.32 288.459 194.148C290.471 192.964 292.856 192.372 295.614 192.372C298.372 192.372 300.752 192.964 302.752 194.148C304.764 195.32 306.315 196.965 307.404 199.084C308.493 201.191 309.038 203.653 309.038 206.47C309.038 209.264 308.493 211.72 307.404 213.839C306.315 215.946 304.764 217.591 302.752 218.775C300.752 219.947 298.372 220.533 295.614 220.533ZM295.65 214.673C296.905 214.673 297.952 214.318 298.793 213.608C299.633 212.886 300.266 211.903 300.692 210.66C301.13 209.418 301.349 208.003 301.349 206.417C301.349 204.831 301.13 203.416 300.692 202.173C300.266 200.93 299.633 199.948 298.793 199.226C297.952 198.504 296.905 198.143 295.65 198.143C294.383 198.143 293.318 198.504 292.454 199.226C291.602 199.948 290.956 200.93 290.518 202.173C290.092 203.416 289.879 204.831 289.879 206.417C289.879 208.003 290.092 209.418 290.518 210.66C290.956 211.903 291.602 212.886 292.454 213.608C293.318 214.318 294.383 214.673 295.65 214.673ZM312.358 220L312.322 213.999H313.228C313.867 213.999 314.418 213.845 314.879 213.537C315.353 213.217 315.743 212.702 316.051 211.992C316.359 211.282 316.602 210.341 316.779 209.169C316.957 207.985 317.075 206.529 317.134 204.801L317.578 192.727H338.317V220H331.108V198.675H324.379L323.952 207.003C323.846 209.287 323.568 211.252 323.118 212.898C322.68 214.543 322.07 215.892 321.289 216.946C320.508 217.988 319.567 218.757 318.466 219.254C317.365 219.751 316.087 220 314.631 220H312.358ZM351.958 220.515C350.218 220.515 348.667 220.213 347.306 219.609C345.944 218.994 344.867 218.088 344.074 216.893C343.293 215.685 342.902 214.182 342.902 212.383C342.902 210.868 343.18 209.595 343.737 208.565C344.293 207.535 345.051 206.707 346.009 206.08C346.968 205.452 348.057 204.979 349.276 204.659C350.508 204.339 351.798 204.115 353.147 203.984C354.733 203.819 356.012 203.665 356.982 203.523C357.953 203.369 358.657 203.144 359.095 202.848C359.533 202.552 359.752 202.114 359.752 201.534V201.428C359.752 200.303 359.397 199.433 358.687 198.817C357.989 198.202 356.994 197.894 355.704 197.894C354.343 197.894 353.26 198.196 352.455 198.8C351.65 199.392 351.117 200.137 350.857 201.037L343.861 200.469C344.216 198.812 344.914 197.379 345.956 196.172C346.998 194.953 348.341 194.017 349.987 193.366C351.644 192.704 353.561 192.372 355.74 192.372C357.255 192.372 358.705 192.55 360.09 192.905C361.486 193.26 362.723 193.81 363.801 194.556C364.89 195.302 365.748 196.261 366.375 197.432C367.003 198.593 367.316 199.983 367.316 201.605V220H360.143V216.218H359.93C359.492 217.07 358.906 217.822 358.172 218.473C357.438 219.112 356.556 219.615 355.526 219.982C354.497 220.337 353.307 220.515 351.958 220.515ZM354.124 215.295C355.236 215.295 356.219 215.076 357.071 214.638C357.923 214.188 358.592 213.584 359.078 212.827C359.563 212.069 359.806 211.211 359.806 210.252V207.358C359.569 207.512 359.243 207.654 358.829 207.784C358.427 207.902 357.971 208.015 357.462 208.121C356.953 208.216 356.444 208.305 355.935 208.388C355.426 208.459 354.964 208.524 354.55 208.583C353.662 208.713 352.887 208.92 352.224 209.205C351.561 209.489 351.046 209.873 350.679 210.359C350.312 210.832 350.129 211.424 350.129 212.134C350.129 213.164 350.502 213.951 351.247 214.496C352.005 215.028 352.964 215.295 354.124 215.295Z" fill="white"/>
<path d="M3.81818 244.727H7.18182L15.0909 264.045H15.3636L23.2727 244.727H26.6364V268H24V250.318H23.7727L16.5 268H13.9545L6.68182 250.318H6.45455V268H3.81818V244.727ZM37.0597 268.409C35.9536 268.409 34.9498 268.201 34.0483 267.784C33.1468 267.36 32.4309 266.75 31.9006 265.955C31.3703 265.151 31.1051 264.182 31.1051 263.045C31.1051 262.045 31.3021 261.235 31.696 260.614C32.09 259.985 32.6165 259.492 33.2756 259.136C33.9347 258.78 34.6619 258.515 35.4574 258.341C36.2604 258.159 37.0672 258.015 37.8778 257.909C38.9384 257.773 39.7983 257.67 40.4574 257.602C41.1241 257.526 41.6089 257.401 41.9119 257.227C42.2225 257.053 42.3778 256.75 42.3778 256.318V256.227C42.3778 255.106 42.071 254.235 41.4574 253.614C40.8513 252.992 39.9309 252.682 38.696 252.682C37.4157 252.682 36.4119 252.962 35.6847 253.523C34.9574 254.083 34.446 254.682 34.1506 255.318L31.6051 254.409C32.0597 253.348 32.6657 252.523 33.4233 251.932C34.1884 251.333 35.0218 250.917 35.9233 250.682C36.8324 250.439 37.7263 250.318 38.6051 250.318C39.1657 250.318 39.8097 250.386 40.5369 250.523C41.2718 250.651 41.9801 250.92 42.6619 251.33C43.3513 251.739 43.9233 252.356 44.3778 253.182C44.8324 254.008 45.0597 255.114 45.0597 256.5V268H42.3778V265.636H42.2415C42.0597 266.015 41.7566 266.42 41.3324 266.852C40.9081 267.284 40.3438 267.651 39.6392 267.955C38.9347 268.258 38.0748 268.409 37.0597 268.409ZM37.4688 266C38.5294 266 39.4233 265.792 40.1506 265.375C40.8854 264.958 41.4384 264.42 41.8097 263.761C42.1884 263.102 42.3778 262.409 42.3778 261.682V259.227C42.2642 259.364 42.0142 259.489 41.6278 259.602C41.2491 259.708 40.8097 259.803 40.3097 259.886C39.8172 259.962 39.3362 260.03 38.8665 260.091C38.4044 260.144 38.0294 260.189 37.7415 260.227C37.0445 260.318 36.393 260.466 35.7869 260.67C35.1884 260.867 34.7036 261.167 34.3324 261.568C33.9688 261.962 33.7869 262.5 33.7869 263.182C33.7869 264.114 34.1316 264.818 34.821 265.295C35.518 265.765 36.4006 266 37.4688 266ZM60.4545 268V253H55.8182C54.7727 253 53.9508 253.242 53.3523 253.727C52.7538 254.212 52.4545 254.879 52.4545 255.727C52.4545 256.561 52.7235 257.216 53.2614 257.693C53.8068 258.17 54.553 258.409 55.5 258.409H61.1364V260.909H55.5C54.3182 260.909 53.2992 260.701 52.4432 260.284C51.5871 259.867 50.928 259.273 50.4659 258.5C50.0038 257.72 49.7727 256.795 49.7727 255.727C49.7727 254.651 50.0152 253.727 50.5 252.955C50.9848 252.182 51.678 251.587 52.5795 251.17C53.4886 250.754 54.5682 250.545 55.8182 250.545H63V268H60.4545ZM48.8182 268L53.7727 259.318H56.6818L51.7273 268H48.8182ZM67.9233 268V250.545H70.6051V258.136H72.3778L78.6506 250.545H82.1051L75.0597 258.955L82.196 268H78.7415L73.0142 260.636H70.6051V268H67.9233ZM91.483 268.364C89.9072 268.364 88.5246 267.989 87.3352 267.239C86.1534 266.489 85.2292 265.439 84.5625 264.091C83.9034 262.742 83.5739 261.167 83.5739 259.364C83.5739 257.545 83.9034 255.958 84.5625 254.602C85.2292 253.246 86.1534 252.193 87.3352 251.443C88.5246 250.693 89.9072 250.318 91.483 250.318C93.0587 250.318 94.4375 250.693 95.6193 251.443C96.8087 252.193 97.733 253.246 98.392 254.602C99.0587 255.958 99.392 257.545 99.392 259.364C99.392 261.167 99.0587 262.742 98.392 264.091C97.733 265.439 96.8087 266.489 95.6193 267.239C94.4375 267.989 93.0587 268.364 91.483 268.364ZM91.483 265.955C92.6799 265.955 93.6648 265.648 94.4375 265.034C95.2102 264.42 95.7822 263.614 96.1534 262.614C96.5246 261.614 96.7102 260.53 96.7102 259.364C96.7102 258.197 96.5246 257.11 96.1534 256.102C95.7822 255.095 95.2102 254.28 94.4375 253.659C93.6648 253.038 92.6799 252.727 91.483 252.727C90.286 252.727 89.3011 253.038 88.5284 253.659C87.7557 254.28 87.1837 255.095 86.8125 256.102C86.4413 257.11 86.2557 258.197 86.2557 259.364C86.2557 260.53 86.4413 261.614 86.8125 262.614C87.1837 263.614 87.7557 264.42 88.5284 265.034C89.3011 265.648 90.286 265.955 91.483 265.955ZM103.486 268V250.545H110.622C112.501 250.545 113.993 250.97 115.099 251.818C116.205 252.667 116.759 253.788 116.759 255.182C116.759 256.242 116.444 257.064 115.815 257.648C115.187 258.223 114.38 258.614 113.395 258.818C114.039 258.909 114.664 259.136 115.27 259.5C115.884 259.864 116.391 260.364 116.793 261C117.194 261.629 117.395 262.401 117.395 263.318C117.395 264.212 117.168 265.011 116.713 265.716C116.259 266.42 115.607 266.977 114.759 267.386C113.91 267.795 112.895 268 111.713 268H103.486ZM106.031 265.545H111.713C112.637 265.545 113.361 265.326 113.884 264.886C114.406 264.447 114.668 263.848 114.668 263.091C114.668 262.189 114.406 261.481 113.884 260.966C113.361 260.443 112.637 260.182 111.713 260.182H106.031V265.545ZM106.031 257.864H110.622C111.342 257.864 111.959 257.765 112.474 257.568C112.99 257.364 113.384 257.076 113.656 256.705C113.937 256.326 114.077 255.879 114.077 255.364C114.077 254.629 113.77 254.053 113.156 253.636C112.543 253.212 111.698 253 110.622 253H106.031V257.864ZM128.545 268.364C126.909 268.364 125.5 267.977 124.318 267.205C123.136 266.432 122.227 265.367 121.591 264.011C120.955 262.655 120.636 261.106 120.636 259.364C120.636 257.591 120.962 256.026 121.614 254.67C122.273 253.307 123.189 252.242 124.364 251.477C125.545 250.705 126.924 250.318 128.5 250.318C129.727 250.318 130.833 250.545 131.818 251C132.803 251.455 133.61 252.091 134.239 252.909C134.867 253.727 135.258 254.682 135.409 255.773H132.727C132.523 254.977 132.068 254.273 131.364 253.659C130.667 253.038 129.727 252.727 128.545 252.727C127.5 252.727 126.583 253 125.795 253.545C125.015 254.083 124.405 254.845 123.966 255.83C123.534 256.807 123.318 257.955 123.318 259.273C123.318 260.621 123.53 261.795 123.955 262.795C124.386 263.795 124.992 264.572 125.773 265.125C126.561 265.678 127.485 265.955 128.545 265.955C129.242 265.955 129.875 265.833 130.443 265.591C131.011 265.348 131.492 265 131.886 264.545C132.28 264.091 132.561 263.545 132.727 262.909H135.409C135.258 263.939 134.883 264.867 134.284 265.693C133.693 266.511 132.909 267.163 131.932 267.648C130.962 268.125 129.833 268.364 128.545 268.364ZM139.33 268V250.545H142.011V258.136H143.784L150.057 250.545H153.511L146.466 258.955L153.602 268H150.148L144.42 260.636H142.011V268H139.33ZM162.889 268.364C161.313 268.364 159.931 267.989 158.741 267.239C157.56 266.489 156.635 265.439 155.969 264.091C155.31 262.742 154.98 261.167 154.98 259.364C154.98 257.545 155.31 255.958 155.969 254.602C156.635 253.246 157.56 252.193 158.741 251.443C159.931 250.693 161.313 250.318 162.889 250.318C164.465 250.318 165.844 250.693 167.026 251.443C168.215 252.193 169.139 253.246 169.798 254.602C170.465 255.958 170.798 257.545 170.798 259.364C170.798 261.167 170.465 262.742 169.798 264.091C169.139 265.439 168.215 266.489 167.026 267.239C165.844 267.989 164.465 268.364 162.889 268.364ZM162.889 265.955C164.086 265.955 165.071 265.648 165.844 265.034C166.616 264.42 167.188 263.614 167.56 262.614C167.931 261.614 168.116 260.53 168.116 259.364C168.116 258.197 167.931 257.11 167.56 256.102C167.188 255.095 166.616 254.28 165.844 253.659C165.071 253.038 164.086 252.727 162.889 252.727C161.692 252.727 160.707 253.038 159.935 253.659C159.162 254.28 158.59 255.095 158.219 256.102C157.848 257.11 157.662 258.197 157.662 259.364C157.662 260.53 157.848 261.614 158.219 262.614C158.59 263.614 159.162 264.42 159.935 265.034C160.707 265.648 161.692 265.955 162.889 265.955ZM177.574 264.045L185.983 250.545H189.074V268H186.392V254.5L178.028 268H174.892V250.545H177.574V264.045ZM184.21 244.727H186.71C186.71 245.955 186.286 246.958 185.438 247.739C184.589 248.519 183.438 248.909 181.983 248.909C180.551 248.909 179.411 248.519 178.562 247.739C177.722 246.958 177.301 245.955 177.301 244.727H179.801C179.801 245.318 179.964 245.837 180.29 246.284C180.623 246.731 181.188 246.955 181.983 246.955C182.778 246.955 183.347 246.731 183.688 246.284C184.036 245.837 184.21 245.318 184.21 244.727ZM204.304 268H201.349L209.895 244.727H212.804L221.349 268H218.395L211.44 248.409H211.259L204.304 268ZM205.395 258.909H217.304V261.409H205.395V258.909ZM236.293 258.045V260.545H226.656V258.045H236.293ZM227.293 250.545V268H224.611V250.545H227.293ZM238.338 250.545V268H235.656V250.545H238.338ZM248.372 268.409C247.266 268.409 246.262 268.201 245.361 267.784C244.459 267.36 243.743 266.75 243.213 265.955C242.683 265.151 242.418 264.182 242.418 263.045C242.418 262.045 242.615 261.235 243.009 260.614C243.402 259.985 243.929 259.492 244.588 259.136C245.247 258.78 245.974 258.515 246.77 258.341C247.573 258.159 248.38 258.015 249.19 257.909C250.251 257.773 251.111 257.67 251.77 257.602C252.437 257.526 252.921 257.401 253.224 257.227C253.535 257.053 253.69 256.75 253.69 256.318V256.227C253.69 255.106 253.384 254.235 252.77 253.614C252.164 252.992 251.243 252.682 250.009 252.682C248.728 252.682 247.724 252.962 246.997 253.523C246.27 254.083 245.759 254.682 245.463 255.318L242.918 254.409C243.372 253.348 243.978 252.523 244.736 251.932C245.501 251.333 246.334 250.917 247.236 250.682C248.145 250.439 249.039 250.318 249.918 250.318C250.478 250.318 251.122 250.386 251.849 250.523C252.584 250.651 253.293 250.92 253.974 251.33C254.664 251.739 255.236 252.356 255.69 253.182C256.145 254.008 256.372 255.114 256.372 256.5V268H253.69V265.636H253.554C253.372 266.015 253.069 266.42 252.645 266.852C252.221 267.284 251.656 267.651 250.952 267.955C250.247 268.258 249.387 268.409 248.372 268.409ZM248.781 266C249.842 266 250.736 265.792 251.463 265.375C252.198 264.958 252.751 264.42 253.122 263.761C253.501 263.102 253.69 262.409 253.69 261.682V259.227C253.577 259.364 253.327 259.489 252.94 259.602C252.562 259.708 252.122 259.803 251.622 259.886C251.13 259.962 250.649 260.03 250.179 260.091C249.717 260.144 249.342 260.189 249.054 260.227C248.357 260.318 247.705 260.466 247.099 260.67C246.501 260.867 246.016 261.167 245.645 261.568C245.281 261.962 245.099 262.5 245.099 263.182C245.099 264.114 245.444 264.818 246.134 265.295C246.83 265.765 247.713 266 248.781 266ZM268.358 268.364C266.722 268.364 265.313 267.977 264.131 267.205C262.949 266.432 262.04 265.367 261.403 264.011C260.767 262.655 260.449 261.106 260.449 259.364C260.449 257.591 260.775 256.026 261.426 254.67C262.085 253.307 263.002 252.242 264.176 251.477C265.358 250.705 266.737 250.318 268.312 250.318C269.54 250.318 270.646 250.545 271.631 251C272.616 251.455 273.422 252.091 274.051 252.909C274.68 253.727 275.07 254.682 275.222 255.773H272.54C272.335 254.977 271.881 254.273 271.176 253.659C270.479 253.038 269.54 252.727 268.358 252.727C267.313 252.727 266.396 253 265.608 253.545C264.828 254.083 264.218 254.845 263.778 255.83C263.347 256.807 263.131 257.955 263.131 259.273C263.131 260.621 263.343 261.795 263.767 262.795C264.199 263.795 264.805 264.572 265.585 265.125C266.373 265.678 267.297 265.955 268.358 265.955C269.055 265.955 269.688 265.833 270.256 265.591C270.824 265.348 271.305 265 271.699 264.545C272.093 264.091 272.373 263.545 272.54 262.909H275.222C275.07 263.939 274.695 264.867 274.097 265.693C273.506 266.511 272.722 267.163 271.744 267.648C270.775 268.125 269.646 268.364 268.358 268.364ZM277.767 253.045V250.545H291.949V253.045H286.222V268H283.54V253.045H277.767ZM300.091 268.409C298.985 268.409 297.981 268.201 297.08 267.784C296.178 267.36 295.462 266.75 294.932 265.955C294.402 265.151 294.136 264.182 294.136 263.045C294.136 262.045 294.333 261.235 294.727 260.614C295.121 259.985 295.648 259.492 296.307 259.136C296.966 258.78 297.693 258.515 298.489 258.341C299.292 258.159 300.098 258.015 300.909 257.909C301.97 257.773 302.83 257.67 303.489 257.602C304.155 257.526 304.64 257.401 304.943 257.227C305.254 257.053 305.409 256.75 305.409 256.318V256.227C305.409 255.106 305.102 254.235 304.489 253.614C303.883 252.992 302.962 252.682 301.727 252.682C300.447 252.682 299.443 252.962 298.716 253.523C297.989 254.083 297.477 254.682 297.182 255.318L294.636 254.409C295.091 253.348 295.697 252.523 296.455 251.932C297.22 251.333 298.053 250.917 298.955 250.682C299.864 250.439 300.758 250.318 301.636 250.318C302.197 250.318 302.841 250.386 303.568 250.523C304.303 250.651 305.011 250.92 305.693 251.33C306.383 251.739 306.955 252.356 307.409 253.182C307.864 254.008 308.091 255.114 308.091 256.5V268H305.409V265.636H305.273C305.091 266.015 304.788 266.42 304.364 266.852C303.939 267.284 303.375 267.651 302.67 267.955C301.966 268.258 301.106 268.409 300.091 268.409ZM300.5 266C301.561 266 302.455 265.792 303.182 265.375C303.917 264.958 304.47 264.42 304.841 263.761C305.22 263.102 305.409 262.409 305.409 261.682V259.227C305.295 259.364 305.045 259.489 304.659 259.602C304.28 259.708 303.841 259.803 303.341 259.886C302.848 259.962 302.367 260.03 301.898 260.091C301.436 260.144 301.061 260.189 300.773 260.227C300.076 260.318 299.424 260.466 298.818 260.67C298.22 260.867 297.735 261.167 297.364 261.568C297 261.962 296.818 262.5 296.818 263.182C296.818 264.114 297.163 264.818 297.852 265.295C298.549 265.765 299.432 266 300.5 266ZM320.077 268.364C318.44 268.364 317.031 267.977 315.849 267.205C314.668 266.432 313.759 265.367 313.122 264.011C312.486 262.655 312.168 261.106 312.168 259.364C312.168 257.591 312.493 256.026 313.145 254.67C313.804 253.307 314.721 252.242 315.895 251.477C317.077 250.705 318.455 250.318 320.031 250.318C321.259 250.318 322.365 250.545 323.349 251C324.334 251.455 325.141 252.091 325.77 252.909C326.399 253.727 326.789 254.682 326.94 255.773H324.259C324.054 254.977 323.599 254.273 322.895 253.659C322.198 253.038 321.259 252.727 320.077 252.727C319.031 252.727 318.115 253 317.327 253.545C316.546 254.083 315.937 254.845 315.497 255.83C315.065 256.807 314.849 257.955 314.849 259.273C314.849 260.621 315.062 261.795 315.486 262.795C315.918 263.795 316.524 264.572 317.304 265.125C318.092 265.678 319.016 265.955 320.077 265.955C320.774 265.955 321.406 265.833 321.974 265.591C322.543 265.348 323.024 265 323.418 264.545C323.812 264.091 324.092 263.545 324.259 262.909H326.94C326.789 263.939 326.414 264.867 325.815 265.693C325.224 266.511 324.44 267.163 323.463 267.648C322.493 268.125 321.365 268.364 320.077 268.364ZM333.543 264.045L341.952 250.545H345.043V268H342.361V254.5L333.997 268H330.861V250.545H333.543V264.045ZM352.636 264.045L361.045 250.545H364.136V268H361.455V254.5L353.091 268H349.955V250.545H352.636V264.045Z" fill="white"/>
</svg>
