<svg width="371" height="276" viewBox="0 0 371 276" fill="none" xmlns="http://www.w3.org/2000/svg">
<path d="M201.536 85C203.075 82.3334 206.925 82.3334 208.464 85L244.837 148C246.377 150.667 244.452 154 241.373 154H168.627C165.548 154 163.623 150.667 165.163 148L201.536 85Z" fill="#7CE7D7"/>
<path d="M333.635 148.279C335.812 150.457 334.816 154.174 331.842 154.971L261.574 173.799C258.6 174.596 255.878 171.875 256.675 168.9L275.503 98.6331C276.3 95.6588 280.018 94.6626 282.195 96.8399L333.635 148.279Z" fill="#E683C3"/>
<path d="M236.301 108.138C233.635 109.678 230.301 107.753 230.301 104.674L230.301 31.9281C230.301 28.8489 233.635 26.9244 236.301 28.464L299.301 64.8371C301.968 66.3767 301.968 70.2257 299.301 71.7653L236.301 108.138Z" fill="#F7DC69"/>
<path d="M36.5767 201.818C36.5767 205.784 35.825 209.157 34.3217 211.939C32.8303 214.721 30.7943 216.845 28.2138 218.313C25.6451 219.769 22.7569 220.497 19.549 220.497C16.3175 220.497 13.4174 219.763 10.8487 218.295C8.28007 216.828 6.25 214.703 4.75852 211.921C3.26705 209.139 2.52131 205.772 2.52131 201.818C2.52131 197.853 3.26705 194.479 4.75852 191.697C6.25 188.916 8.28007 186.797 10.8487 185.341C13.4174 183.873 16.3175 183.139 19.549 183.139C22.7569 183.139 25.6451 183.873 28.2138 185.341C30.7943 186.797 32.8303 188.916 34.3217 191.697C35.825 194.479 36.5767 197.853 36.5767 201.818ZM28.782 201.818C28.782 199.249 28.3973 197.083 27.6278 195.32C26.8703 193.556 25.799 192.218 24.4141 191.307C23.0291 190.395 21.4074 189.94 19.549 189.94C17.6906 189.94 16.0689 190.395 14.6839 191.307C13.299 192.218 12.2218 193.556 11.4524 195.32C10.6948 197.083 10.3161 199.249 10.3161 201.818C10.3161 204.387 10.6948 206.553 11.4524 208.317C12.2218 210.08 13.299 211.418 14.6839 212.33C16.0689 213.241 17.6906 213.697 19.549 213.697C21.4074 213.697 23.0291 213.241 24.4141 212.33C25.799 211.418 26.8703 210.08 27.6278 208.317C28.3973 206.553 28.782 204.387 28.782 201.818ZM61.1106 203.345V209.293H46.8706V203.345H61.1106ZM49.3564 192.727V220H42.1298V192.727H49.3564ZM65.8514 192.727V220H58.6781V192.727H65.8514ZM70.1216 220L70.0861 213.999H70.9917C71.6309 213.999 72.1813 213.845 72.6429 213.537C73.1164 213.217 73.507 212.702 73.8148 211.992C74.1226 211.282 74.3652 210.341 74.5428 209.169C74.7203 207.985 74.8387 206.529 74.8979 204.801L75.3418 192.727H96.0804V220H88.8716V198.675H82.1422L81.7161 207.003C81.6096 209.287 81.3314 211.252 80.8816 212.898C80.4436 214.543 79.834 215.892 79.0527 216.946C78.2715 217.988 77.3304 218.757 76.2296 219.254C75.1287 219.751 73.8503 220 72.3944 220H70.1216ZM109.721 220.515C107.981 220.515 106.431 220.213 105.069 219.609C103.708 218.994 102.631 218.088 101.838 216.893C101.056 215.685 100.666 214.182 100.666 212.383C100.666 210.868 100.944 209.595 101.5 208.565C102.057 207.535 102.814 206.707 103.773 206.08C104.732 205.452 105.821 204.979 107.04 204.659C108.271 204.339 109.561 204.115 110.911 203.984C112.497 203.819 113.775 203.665 114.746 203.523C115.717 203.369 116.421 203.144 116.859 202.848C117.297 202.552 117.516 202.114 117.516 201.534V201.428C117.516 200.303 117.161 199.433 116.451 198.817C115.752 198.202 114.758 197.894 113.468 197.894C112.106 197.894 111.023 198.196 110.218 198.8C109.413 199.392 108.881 200.137 108.62 201.037L101.625 200.469C101.98 198.812 102.678 197.379 103.72 196.172C104.761 194.953 106.105 194.017 107.75 193.366C109.408 192.704 111.325 192.372 113.503 192.372C115.018 192.372 116.468 192.55 117.853 192.905C119.25 193.26 120.487 193.81 121.564 194.556C122.653 195.302 123.511 196.261 124.139 197.432C124.766 198.593 125.08 199.983 125.08 201.605V220H117.907V216.218H117.694C117.256 217.07 116.67 217.822 115.936 218.473C115.202 219.112 114.32 219.615 113.29 219.982C112.26 220.337 111.071 220.515 109.721 220.515ZM111.887 215.295C113 215.295 113.983 215.076 114.835 214.638C115.687 214.188 116.356 213.584 116.841 212.827C117.327 212.069 117.569 211.211 117.569 210.252V207.358C117.333 207.512 117.007 207.654 116.593 207.784C116.19 207.902 115.734 208.015 115.225 208.121C114.717 208.216 114.208 208.305 113.699 208.388C113.19 208.459 112.728 208.524 112.314 208.583C111.426 208.713 110.65 208.92 109.988 209.205C109.325 209.489 108.81 209.873 108.443 210.359C108.076 210.832 107.892 211.424 107.892 212.134C107.892 213.164 108.265 213.951 109.011 214.496C109.769 215.028 110.727 215.295 111.887 215.295ZM138.175 210.021L147.994 192.727H155.451V220H148.242V202.653L138.459 220H130.948V192.727H138.175V210.021ZM146.697 183.21H151.971C151.959 185.365 151.16 187.099 149.574 188.413C148 189.727 145.869 190.383 143.182 190.383C140.483 190.383 138.346 189.727 136.772 188.413C135.198 187.099 134.411 185.365 134.411 183.21H139.648C139.637 184.027 139.897 184.761 140.43 185.412C140.974 186.063 141.892 186.388 143.182 186.388C144.437 186.388 145.336 186.069 145.881 185.43C146.425 184.79 146.697 184.051 146.697 183.21ZM180.495 203.345V209.293H166.255V203.345H180.495ZM168.741 192.727V220H161.515V192.727H168.741ZM185.236 192.727V220H178.063V192.727H185.236ZM204.275 183.636H211.785V213.821H222.226V183.636H229.701V213.821H240.017V183.636H247.492V220H204.275V183.636ZM255.118 220V192.727H262.682V203.31H264.813L272.235 192.727H281.112L271.471 206.257L281.219 220H272.235L265.505 210.323H262.682V220H255.118ZM295.614 220.533C292.856 220.533 290.471 219.947 288.459 218.775C286.458 217.591 284.914 215.946 283.825 213.839C282.736 211.72 282.191 209.264 282.191 206.47C282.191 203.653 282.736 201.191 283.825 199.084C284.914 196.965 286.458 195.32 288.459 194.148C290.471 192.964 292.856 192.372 295.614 192.372C298.372 192.372 300.752 192.964 302.752 194.148C304.764 195.32 306.315 196.965 307.404 199.084C308.493 201.191 309.038 203.653 309.038 206.47C309.038 209.264 308.493 211.72 307.404 213.839C306.315 215.946 304.764 217.591 302.752 218.775C300.752 219.947 298.372 220.533 295.614 220.533ZM295.65 214.673C296.905 214.673 297.952 214.318 298.793 213.608C299.633 212.886 300.266 211.903 300.692 210.66C301.13 209.418 301.349 208.003 301.349 206.417C301.349 204.831 301.13 203.416 300.692 202.173C300.266 200.93 299.633 199.948 298.793 199.226C297.952 198.504 296.905 198.143 295.65 198.143C294.383 198.143 293.318 198.504 292.454 199.226C291.602 199.948 290.956 200.93 290.518 202.173C290.092 203.416 289.879 204.831 289.879 206.417C289.879 208.003 290.092 209.418 290.518 210.66C290.956 211.903 291.602 212.886 292.454 213.608C293.318 214.318 294.383 214.673 295.65 214.673ZM312.358 220L312.322 213.999H313.228C313.867 213.999 314.418 213.845 314.879 213.537C315.353 213.217 315.743 212.702 316.051 211.992C316.359 211.282 316.602 210.341 316.779 209.169C316.957 207.985 317.075 206.529 317.134 204.801L317.578 192.727H338.317V220H331.108V198.675H324.379L323.952 207.003C323.846 209.287 323.568 211.252 323.118 212.898C322.68 214.543 322.07 215.892 321.289 216.946C320.508 217.988 319.567 218.757 318.466 219.254C317.365 219.751 316.087 220 314.631 220H312.358ZM351.958 220.515C350.218 220.515 348.667 220.213 347.306 219.609C345.944 218.994 344.867 218.088 344.074 216.893C343.293 215.685 342.902 214.182 342.902 212.383C342.902 210.868 343.18 209.595 343.737 208.565C344.293 207.535 345.051 206.707 346.009 206.08C346.968 205.452 348.057 204.979 349.276 204.659C350.508 204.339 351.798 204.115 353.147 203.984C354.733 203.819 356.012 203.665 356.982 203.523C357.953 203.369 358.657 203.144 359.095 202.848C359.533 202.552 359.752 202.114 359.752 201.534V201.428C359.752 200.303 359.397 199.433 358.687 198.817C357.989 198.202 356.994 197.894 355.704 197.894C354.343 197.894 353.26 198.196 352.455 198.8C351.65 199.392 351.117 200.137 350.857 201.037L343.861 200.469C344.216 198.812 344.914 197.379 345.956 196.172C346.998 194.953 348.341 194.017 349.987 193.366C351.644 192.704 353.561 192.372 355.74 192.372C357.255 192.372 358.705 192.55 360.09 192.905C361.486 193.26 362.723 193.81 363.801 194.556C364.89 195.302 365.748 196.261 366.375 197.432C367.003 198.593 367.316 199.983 367.316 201.605V220H360.143V216.218H359.93C359.492 217.07 358.906 217.822 358.172 218.473C357.438 219.112 356.556 219.615 355.526 219.982C354.497 220.337 353.307 220.515 351.958 220.515ZM354.124 215.295C355.236 215.295 356.219 215.076 357.071 214.638C357.923 214.188 358.592 213.584 359.078 212.827C359.563 212.069 359.806 211.211 359.806 210.252V207.358C359.569 207.512 359.243 207.654 358.829 207.784C358.427 207.902 357.971 208.015 357.462 208.121C356.953 208.216 356.444 208.305 355.935 208.388C355.426 208.459 354.964 208.524 354.55 208.583C353.662 208.713 352.887 208.92 352.224 209.205C351.561 209.489 351.046 209.873 350.679 210.359C350.312 210.832 350.129 211.424 350.129 212.134C350.129 213.164 350.502 213.951 351.247 214.496C352.005 215.028 352.964 215.295 354.124 215.295Z" fill="white"/>
<path d="M4.77273 268H1.81818L10.3636 244.727H13.2727L21.8182 268H18.8636L11.9091 248.409H11.7273L4.77273 268ZM5.86364 258.909H17.7727V261.409H5.86364V258.909ZM36.7614 258.045V260.545H27.125V258.045H36.7614ZM27.7614 250.545V268H25.0795V250.545H27.7614ZM38.8068 250.545V268H36.125V250.545H38.8068ZM48.8409 268.409C47.7348 268.409 46.7311 268.201 45.8295 267.784C44.928 267.36 44.2121 266.75 43.6818 265.955C43.1515 265.151 42.8864 264.182 42.8864 263.045C42.8864 262.045 43.0833 261.235 43.4773 260.614C43.8712 259.985 44.3977 259.492 45.0568 259.136C45.7159 258.78 46.4432 258.515 47.2386 258.341C48.0417 258.159 48.8485 258.015 49.6591 257.909C50.7197 257.773 51.5795 257.67 52.2386 257.602C52.9053 257.526 53.3902 257.401 53.6932 257.227C54.0038 257.053 54.1591 256.75 54.1591 256.318V256.227C54.1591 255.106 53.8523 254.235 53.2386 253.614C52.6326 252.992 51.7121 252.682 50.4773 252.682C49.197 252.682 48.1932 252.962 47.4659 253.523C46.7386 254.083 46.2273 254.682 45.9318 255.318L43.3864 254.409C43.8409 253.348 44.447 252.523 45.2045 251.932C45.9697 251.333 46.803 250.917 47.7045 250.682C48.6136 250.439 49.5076 250.318 50.3864 250.318C50.947 250.318 51.5909 250.386 52.3182 250.523C53.053 250.651 53.7614 250.92 54.4432 251.33C55.1326 251.739 55.7045 252.356 56.1591 253.182C56.6136 254.008 56.8409 255.114 56.8409 256.5V268H54.1591V265.636H54.0227C53.8409 266.015 53.5379 266.42 53.1136 266.852C52.6894 267.284 52.125 267.651 51.4205 267.955C50.7159 268.258 49.8561 268.409 48.8409 268.409ZM49.25 266C50.3106 266 51.2045 265.792 51.9318 265.375C52.6667 264.958 53.2197 264.42 53.5909 263.761C53.9697 263.102 54.1591 262.409 54.1591 261.682V259.227C54.0455 259.364 53.7955 259.489 53.4091 259.602C53.0303 259.708 52.5909 259.803 52.0909 259.886C51.5985 259.962 51.1174 260.03 50.6477 260.091C50.1856 260.144 49.8106 260.189 49.5227 260.227C48.8258 260.318 48.1742 260.466 47.5682 260.67C46.9697 260.867 46.4848 261.167 46.1136 261.568C45.75 261.962 45.5682 262.5 45.5682 263.182C45.5682 264.114 45.9129 264.818 46.6023 265.295C47.2992 265.765 48.1818 266 49.25 266ZM68.8267 268.364C67.1903 268.364 65.7813 267.977 64.5994 267.205C63.4176 266.432 62.5085 265.367 61.8722 264.011C61.2358 262.655 60.9176 261.106 60.9176 259.364C60.9176 257.591 61.2434 256.026 61.8949 254.67C62.554 253.307 63.4706 252.242 64.6449 251.477C65.8267 250.705 67.2055 250.318 68.7812 250.318C70.0085 250.318 71.1146 250.545 72.0994 251C73.0843 251.455 73.8911 252.091 74.5199 252.909C75.1487 253.727 75.5388 254.682 75.6903 255.773H73.0085C72.804 254.977 72.3494 254.273 71.6449 253.659C70.9479 253.038 70.0085 252.727 68.8267 252.727C67.7813 252.727 66.8646 253 66.0767 253.545C65.2964 254.083 64.6866 254.845 64.2472 255.83C63.8153 256.807 63.5994 257.955 63.5994 259.273C63.5994 260.621 63.8116 261.795 64.2358 262.795C64.6676 263.795 65.2737 264.572 66.054 265.125C66.8419 265.678 67.7661 265.955 68.8267 265.955C69.5237 265.955 70.1562 265.833 70.7244 265.591C71.2926 265.348 71.7737 265 72.1676 264.545C72.5616 264.091 72.8419 263.545 73.0085 262.909H75.6903C75.5388 263.939 75.1638 264.867 74.5653 265.693C73.9744 266.511 73.1903 267.163 72.2131 267.648C71.2434 268.125 70.1146 268.364 68.8267 268.364ZM78.2358 253.045V250.545H92.4176V253.045H86.6903V268H84.0085V253.045H78.2358ZM100.56 268.409C99.4536 268.409 98.4498 268.201 97.5483 267.784C96.6468 267.36 95.9309 266.75 95.4006 265.955C94.8703 265.151 94.6051 264.182 94.6051 263.045C94.6051 262.045 94.8021 261.235 95.196 260.614C95.59 259.985 96.1165 259.492 96.7756 259.136C97.4347 258.78 98.1619 258.515 98.9574 258.341C99.7604 258.159 100.567 258.015 101.378 257.909C102.438 257.773 103.298 257.67 103.957 257.602C104.624 257.526 105.109 257.401 105.412 257.227C105.723 257.053 105.878 256.75 105.878 256.318V256.227C105.878 255.106 105.571 254.235 104.957 253.614C104.351 252.992 103.431 252.682 102.196 252.682C100.916 252.682 99.9119 252.962 99.1847 253.523C98.4574 254.083 97.946 254.682 97.6506 255.318L95.1051 254.409C95.5597 253.348 96.1657 252.523 96.9233 251.932C97.6884 251.333 98.5218 250.917 99.4233 250.682C100.332 250.439 101.226 250.318 102.105 250.318C102.666 250.318 103.31 250.386 104.037 250.523C104.772 250.651 105.48 250.92 106.162 251.33C106.851 251.739 107.423 252.356 107.878 253.182C108.332 254.008 108.56 255.114 108.56 256.5V268H105.878V265.636H105.741C105.56 266.015 105.257 266.42 104.832 266.852C104.408 267.284 103.844 267.651 103.139 267.955C102.435 268.258 101.575 268.409 100.56 268.409ZM100.969 266C102.029 266 102.923 265.792 103.651 265.375C104.385 264.958 104.938 264.42 105.31 263.761C105.688 263.102 105.878 262.409 105.878 261.682V259.227C105.764 259.364 105.514 259.489 105.128 259.602C104.749 259.708 104.31 259.803 103.81 259.886C103.317 259.962 102.836 260.03 102.366 260.091C101.904 260.144 101.529 260.189 101.241 260.227C100.545 260.318 99.893 260.466 99.2869 260.67C98.6884 260.867 98.2036 261.167 97.8324 261.568C97.4688 261.962 97.2869 262.5 97.2869 263.182C97.2869 264.114 97.6316 264.818 98.321 265.295C99.018 265.765 99.9006 266 100.969 266ZM120.545 268.364C118.909 268.364 117.5 267.977 116.318 267.205C115.136 266.432 114.227 265.367 113.591 264.011C112.955 262.655 112.636 261.106 112.636 259.364C112.636 257.591 112.962 256.026 113.614 254.67C114.273 253.307 115.189 252.242 116.364 251.477C117.545 250.705 118.924 250.318 120.5 250.318C121.727 250.318 122.833 250.545 123.818 251C124.803 251.455 125.61 252.091 126.239 252.909C126.867 253.727 127.258 254.682 127.409 255.773H124.727C124.523 254.977 124.068 254.273 123.364 253.659C122.667 253.038 121.727 252.727 120.545 252.727C119.5 252.727 118.583 253 117.795 253.545C117.015 254.083 116.405 254.845 115.966 255.83C115.534 256.807 115.318 257.955 115.318 259.273C115.318 260.621 115.53 261.795 115.955 262.795C116.386 263.795 116.992 264.572 117.773 265.125C118.561 265.678 119.485 265.955 120.545 265.955C121.242 265.955 121.875 265.833 122.443 265.591C123.011 265.348 123.492 265 123.886 264.545C124.28 264.091 124.561 263.545 124.727 262.909H127.409C127.258 263.939 126.883 264.867 126.284 265.693C125.693 266.511 124.909 267.163 123.932 267.648C122.962 268.125 121.833 268.364 120.545 268.364ZM134.011 264.045L142.42 250.545H145.511V268H142.83V254.5L134.466 268H131.33V250.545H134.011V264.045ZM153.105 264.045L161.514 250.545H164.605V268H161.923V254.5L153.56 268H150.423V250.545H153.105V264.045ZM178.881 244.727H182.244L190.153 264.045H190.426L198.335 244.727H201.699V268H199.062V250.318H198.835L191.562 268H189.017L181.744 250.318H181.517V268H178.881V244.727ZM212.122 268.409C211.016 268.409 210.012 268.201 209.111 267.784C208.209 267.36 207.493 266.75 206.963 265.955C206.433 265.151 206.168 264.182 206.168 263.045C206.168 262.045 206.365 261.235 206.759 260.614C207.152 259.985 207.679 259.492 208.338 259.136C208.997 258.78 209.724 258.515 210.52 258.341C211.323 258.159 212.13 258.015 212.94 257.909C214.001 257.773 214.861 257.67 215.52 257.602C216.187 257.526 216.671 257.401 216.974 257.227C217.285 257.053 217.44 256.75 217.44 256.318V256.227C217.44 255.106 217.134 254.235 216.52 253.614C215.914 252.992 214.993 252.682 213.759 252.682C212.478 252.682 211.474 252.962 210.747 253.523C210.02 254.083 209.509 254.682 209.213 255.318L206.668 254.409C207.122 253.348 207.728 252.523 208.486 251.932C209.251 251.333 210.084 250.917 210.986 250.682C211.895 250.439 212.789 250.318 213.668 250.318C214.228 250.318 214.872 250.386 215.599 250.523C216.334 250.651 217.043 250.92 217.724 251.33C218.414 251.739 218.986 252.356 219.44 253.182C219.895 254.008 220.122 255.114 220.122 256.5V268H217.44V265.636H217.304C217.122 266.015 216.819 266.42 216.395 266.852C215.971 267.284 215.406 267.651 214.702 267.955C213.997 268.258 213.137 268.409 212.122 268.409ZM212.531 266C213.592 266 214.486 265.792 215.213 265.375C215.948 264.958 216.501 264.42 216.872 263.761C217.251 263.102 217.44 262.409 217.44 261.682V259.227C217.327 259.364 217.077 259.489 216.69 259.602C216.312 259.708 215.872 259.803 215.372 259.886C214.88 259.962 214.399 260.03 213.929 260.091C213.467 260.144 213.092 260.189 212.804 260.227C212.107 260.318 211.455 260.466 210.849 260.67C210.251 260.867 209.766 261.167 209.395 261.568C209.031 261.962 208.849 262.5 208.849 263.182C208.849 264.114 209.194 264.818 209.884 265.295C210.58 265.765 211.463 266 212.531 266ZM235.517 268V253H230.881C229.835 253 229.013 253.242 228.415 253.727C227.816 254.212 227.517 254.879 227.517 255.727C227.517 256.561 227.786 257.216 228.324 257.693C228.869 258.17 229.616 258.409 230.562 258.409H236.199V260.909H230.562C229.381 260.909 228.362 260.701 227.506 260.284C226.65 259.867 225.991 259.273 225.528 258.5C225.066 257.72 224.835 256.795 224.835 255.727C224.835 254.651 225.078 253.727 225.562 252.955C226.047 252.182 226.741 251.587 227.642 251.17C228.551 250.754 229.631 250.545 230.881 250.545H238.062V268H235.517ZM223.881 268L228.835 259.318H231.744L226.79 268H223.881ZM242.986 268V250.545H245.668V258.136H247.44L253.713 250.545H257.168L250.122 258.955L257.259 268H253.804L248.077 260.636H245.668V268H242.986ZM266.545 268.364C264.97 268.364 263.587 267.989 262.398 267.239C261.216 266.489 260.292 265.439 259.625 264.091C258.966 262.742 258.636 261.167 258.636 259.364C258.636 257.545 258.966 255.958 259.625 254.602C260.292 253.246 261.216 252.193 262.398 251.443C263.587 250.693 264.97 250.318 266.545 250.318C268.121 250.318 269.5 250.693 270.682 251.443C271.871 252.193 272.795 253.246 273.455 254.602C274.121 255.958 274.455 257.545 274.455 259.364C274.455 261.167 274.121 262.742 273.455 264.091C272.795 265.439 271.871 266.489 270.682 267.239C269.5 267.989 268.121 268.364 266.545 268.364ZM266.545 265.955C267.742 265.955 268.727 265.648 269.5 265.034C270.273 264.42 270.845 263.614 271.216 262.614C271.587 261.614 271.773 260.53 271.773 259.364C271.773 258.197 271.587 257.11 271.216 256.102C270.845 255.095 270.273 254.28 269.5 253.659C268.727 253.038 267.742 252.727 266.545 252.727C265.348 252.727 264.364 253.038 263.591 253.659C262.818 254.28 262.246 255.095 261.875 256.102C261.504 257.11 261.318 258.197 261.318 259.364C261.318 260.53 261.504 261.614 261.875 262.614C262.246 263.614 262.818 264.42 263.591 265.034C264.364 265.648 265.348 265.955 266.545 265.955ZM278.548 268V250.545H285.685C287.563 250.545 289.056 250.97 290.162 251.818C291.268 252.667 291.821 253.788 291.821 255.182C291.821 256.242 291.507 257.064 290.878 257.648C290.249 258.223 289.442 258.614 288.457 258.818C289.101 258.909 289.726 259.136 290.332 259.5C290.946 259.864 291.454 260.364 291.855 261C292.257 261.629 292.457 262.401 292.457 263.318C292.457 264.212 292.23 265.011 291.776 265.716C291.321 266.42 290.67 266.977 289.821 267.386C288.973 267.795 287.957 268 286.776 268H278.548ZM281.094 265.545H286.776C287.7 265.545 288.423 265.326 288.946 264.886C289.469 264.447 289.73 263.848 289.73 263.091C289.73 262.189 289.469 261.481 288.946 260.966C288.423 260.443 287.7 260.182 286.776 260.182H281.094V265.545ZM281.094 257.864H285.685C286.404 257.864 287.022 257.765 287.537 257.568C288.052 257.364 288.446 257.076 288.719 256.705C288.999 256.326 289.139 255.879 289.139 255.364C289.139 254.629 288.832 254.053 288.219 253.636C287.605 253.212 286.76 253 285.685 253H281.094V257.864ZM303.608 268.364C301.972 268.364 300.563 267.977 299.381 267.205C298.199 266.432 297.29 265.367 296.653 264.011C296.017 262.655 295.699 261.106 295.699 259.364C295.699 257.591 296.025 256.026 296.676 254.67C297.335 253.307 298.252 252.242 299.426 251.477C300.608 250.705 301.987 250.318 303.562 250.318C304.79 250.318 305.896 250.545 306.881 251C307.866 251.455 308.672 252.091 309.301 252.909C309.93 253.727 310.32 254.682 310.472 255.773H307.79C307.585 254.977 307.131 254.273 306.426 253.659C305.729 253.038 304.79 252.727 303.608 252.727C302.563 252.727 301.646 253 300.858 253.545C300.078 254.083 299.468 254.845 299.028 255.83C298.597 256.807 298.381 257.955 298.381 259.273C298.381 260.621 298.593 261.795 299.017 262.795C299.449 263.795 300.055 264.572 300.835 265.125C301.623 265.678 302.547 265.955 303.608 265.955C304.305 265.955 304.938 265.833 305.506 265.591C306.074 265.348 306.555 265 306.949 264.545C307.343 264.091 307.623 263.545 307.79 262.909H310.472C310.32 263.939 309.945 264.867 309.347 265.693C308.756 266.511 307.972 267.163 306.994 267.648C306.025 268.125 304.896 268.364 303.608 268.364ZM314.392 268V250.545H317.074V258.136H318.847L325.119 250.545H328.574L321.528 258.955L328.665 268H325.21L319.483 260.636H317.074V268H314.392ZM337.952 268.364C336.376 268.364 334.993 267.989 333.804 267.239C332.622 266.489 331.698 265.439 331.031 264.091C330.372 262.742 330.043 261.167 330.043 259.364C330.043 257.545 330.372 255.958 331.031 254.602C331.698 253.246 332.622 252.193 333.804 251.443C334.993 250.693 336.376 250.318 337.952 250.318C339.527 250.318 340.906 250.693 342.088 251.443C343.277 252.193 344.202 253.246 344.861 254.602C345.527 255.958 345.861 257.545 345.861 259.364C345.861 261.167 345.527 262.742 344.861 264.091C344.202 265.439 343.277 266.489 342.088 267.239C340.906 267.989 339.527 268.364 337.952 268.364ZM337.952 265.955C339.149 265.955 340.134 265.648 340.906 265.034C341.679 264.42 342.251 263.614 342.622 262.614C342.993 261.614 343.179 260.53 343.179 259.364C343.179 258.197 342.993 257.11 342.622 256.102C342.251 255.095 341.679 254.28 340.906 253.659C340.134 253.038 339.149 252.727 337.952 252.727C336.755 252.727 335.77 253.038 334.997 253.659C334.224 254.28 333.652 255.095 333.281 256.102C332.91 257.11 332.724 258.197 332.724 259.364C332.724 260.53 332.91 261.614 333.281 262.614C333.652 263.614 334.224 264.42 334.997 265.034C335.77 265.648 336.755 265.955 337.952 265.955ZM352.636 264.045L361.045 250.545H364.136V268H361.455V254.5L353.091 268H349.955V250.545H352.636V264.045ZM359.273 244.727H361.773C361.773 245.955 361.348 246.958 360.5 247.739C359.652 248.519 358.5 248.909 357.045 248.909C355.614 248.909 354.473 248.519 353.625 247.739C352.784 246.958 352.364 245.955 352.364 244.727H354.864C354.864 245.318 355.027 245.837 355.352 246.284C355.686 246.731 356.25 246.955 357.045 246.955C357.841 246.955 358.409 246.731 358.75 246.284C359.098 245.837 359.273 245.318 359.273 244.727Z" fill="white"/>
</svg>
