<svg width="198" height="222" viewBox="0 0 198 222" fill="none" xmlns="http://www.w3.org/2000/svg">
<path d="M46.5359 56C48.0755 53.3333 51.9245 53.3333 53.4641 56L89.8372 119C91.3768 121.667 89.4523 125 86.3731 125H13.6269C10.5477 125 8.62323 121.667 10.1628 119L46.5359 56Z" fill="#7CE7D7"/>
<path d="M179.397 168.042C181.575 170.219 180.578 173.937 177.604 174.734L107.337 193.562C104.363 194.359 101.641 191.637 102.438 188.663L121.266 118.396C122.063 115.422 125.781 114.425 127.958 116.603L179.397 168.042Z" fill="#E683C3"/>
<path d="M109.301 108.138C106.635 109.678 103.301 107.754 103.301 104.674L103.301 31.9282C103.301 28.849 106.635 26.9245 109.301 28.4641L172.301 64.8372C174.968 66.3768 174.968 70.2258 172.301 71.7654L109.301 108.138Z" fill="#F7DC69"/>
</svg>
